%TF.GenerationSoftware,KiCad,Pcbnew,9.0.0*%
%TF.CreationDate,2025-03-24T16:34:57+00:00*%
%TF.ProjectId,SimplifiedInstallModule,53696d70-6c69-4666-9965-64496e737461,01*%
%TF.SameCoordinates,Original*%
%TF.FileFunction,Soldermask,Top*%
%TF.FilePolarity,Negative*%
%FSLAX46Y46*%
G04 Gerber Fmt 4.6, Leading zero omitted, Abs format (unit mm)*
G04 Created by KiCad (PCBNEW 9.0.0) date 2025-03-24 16:34:57*
%MOMM*%
%LPD*%
G01*
G04 APERTURE LIST*
G04 Aperture macros list*
%AMRoundRect*
0 Rectangle with rounded corners*
0 $1 Rounding radius*
0 $2 $3 $4 $5 $6 $7 $8 $9 X,Y pos of 4 corners*
0 Add a 4 corners polygon primitive as box body*
4,1,4,$2,$3,$4,$5,$6,$7,$8,$9,$2,$3,0*
0 Add four circle primitives for the rounded corners*
1,1,$1+$1,$2,$3*
1,1,$1+$1,$4,$5*
1,1,$1+$1,$6,$7*
1,1,$1+$1,$8,$9*
0 Add four rect primitives between the rounded corners*
20,1,$1+$1,$2,$3,$4,$5,0*
20,1,$1+$1,$4,$5,$6,$7,0*
20,1,$1+$1,$6,$7,$8,$9,0*
20,1,$1+$1,$8,$9,$2,$3,0*%
G04 Aperture macros list end*
%ADD10RoundRect,0.140000X-0.170000X0.140000X-0.170000X-0.140000X0.170000X-0.140000X0.170000X0.140000X0*%
%ADD11RoundRect,0.200000X-0.275000X0.200000X-0.275000X-0.200000X0.275000X-0.200000X0.275000X0.200000X0*%
%ADD12RoundRect,0.150000X0.150000X-0.825000X0.150000X0.825000X-0.150000X0.825000X-0.150000X-0.825000X0*%
%ADD13RoundRect,0.250000X0.475000X-0.250000X0.475000X0.250000X-0.475000X0.250000X-0.475000X-0.250000X0*%
%ADD14RoundRect,0.200000X0.275000X-0.200000X0.275000X0.200000X-0.275000X0.200000X-0.275000X-0.200000X0*%
%ADD15RoundRect,0.150000X0.150000X-0.875000X0.150000X0.875000X-0.150000X0.875000X-0.150000X-0.875000X0*%
%ADD16RoundRect,0.250000X0.550000X-0.550000X0.550000X0.550000X-0.550000X0.550000X-0.550000X-0.550000X0*%
%ADD17C,1.600000*%
%ADD18RoundRect,0.140000X0.170000X-0.140000X0.170000X0.140000X-0.170000X0.140000X-0.170000X-0.140000X0*%
%ADD19RoundRect,0.250000X-0.475000X0.250000X-0.475000X-0.250000X0.475000X-0.250000X0.475000X0.250000X0*%
%ADD20RoundRect,0.218750X-0.256250X0.218750X-0.256250X-0.218750X0.256250X-0.218750X0.256250X0.218750X0*%
%ADD21RoundRect,0.150000X0.150000X-0.512500X0.150000X0.512500X-0.150000X0.512500X-0.150000X-0.512500X0*%
%ADD22C,1.448000*%
%ADD23C,5.100000*%
%ADD24RoundRect,0.150000X-0.150000X0.512500X-0.150000X-0.512500X0.150000X-0.512500X0.150000X0.512500X0*%
%ADD25RoundRect,0.225000X-0.250000X0.225000X-0.250000X-0.225000X0.250000X-0.225000X0.250000X0.225000X0*%
%ADD26R,0.400000X0.900000*%
%ADD27RoundRect,0.225000X0.250000X-0.225000X0.250000X0.225000X-0.250000X0.225000X-0.250000X-0.225000X0*%
%ADD28RoundRect,0.087500X0.087500X-0.537500X0.087500X0.537500X-0.087500X0.537500X-0.087500X-0.537500X0*%
%ADD29RoundRect,0.250000X0.300000X-0.500000X0.300000X0.500000X-0.300000X0.500000X-0.300000X-0.500000X0*%
%ADD30R,1.700000X1.700000*%
%ADD31O,1.700000X1.700000*%
G04 APERTURE END LIST*
D10*
X164292857Y-88433621D03*
X164292857Y-89393621D03*
D11*
X154513857Y-73356621D03*
X154513857Y-75006621D03*
X165689857Y-73356621D03*
X165689857Y-75006621D03*
X173309857Y-79960621D03*
X173309857Y-81610621D03*
D12*
X142321857Y-88848621D03*
X143591857Y-88848621D03*
X144861857Y-88848621D03*
X146131857Y-88848621D03*
X147401857Y-88848621D03*
X148671857Y-88848621D03*
X149941857Y-88848621D03*
X149941857Y-83898621D03*
X148671857Y-83898621D03*
X147401857Y-83898621D03*
X146131857Y-83898621D03*
X144861857Y-83898621D03*
X143591857Y-83898621D03*
X142321857Y-83898621D03*
D13*
X145750857Y-73607621D03*
X145750857Y-71707621D03*
D10*
X152608857Y-88433621D03*
X152608857Y-89393621D03*
D11*
X159593857Y-79960621D03*
X159593857Y-81610621D03*
D10*
X116496857Y-85519621D03*
X116496857Y-86479621D03*
D14*
X170769857Y-81610621D03*
X170769857Y-79960621D03*
X165689857Y-78308621D03*
X165689857Y-76658621D03*
D10*
X140924857Y-80559621D03*
X140924857Y-81519621D03*
D15*
X118401857Y-94967621D03*
X119671857Y-94967621D03*
X120941857Y-94967621D03*
X122211857Y-94967621D03*
X123481857Y-94967621D03*
X124751857Y-94967621D03*
X126021857Y-94967621D03*
X127291857Y-94967621D03*
X128561857Y-94967621D03*
X129831857Y-94967621D03*
X129831857Y-85667621D03*
X128561857Y-85667621D03*
X127291857Y-85667621D03*
X126021857Y-85667621D03*
X124751857Y-85667621D03*
X123481857Y-85667621D03*
X122211857Y-85667621D03*
X120941857Y-85667621D03*
X119671857Y-85667621D03*
X118401857Y-85667621D03*
D16*
X101518861Y-113939621D03*
D17*
X104058861Y-113939621D03*
X106598861Y-113939621D03*
X109138861Y-113939621D03*
X111678861Y-113939621D03*
X114218861Y-113939621D03*
X116758861Y-113939621D03*
X119298861Y-113939621D03*
X121838861Y-113939621D03*
X124378861Y-113939621D03*
X126918861Y-113939621D03*
X129458861Y-113939621D03*
X131998861Y-113939621D03*
X134538861Y-113939621D03*
X134538861Y-98699621D03*
X131998861Y-98699621D03*
X129458861Y-98699621D03*
X126918861Y-98699621D03*
X124378861Y-98699621D03*
X121838861Y-98699621D03*
X119298861Y-98699621D03*
X116758861Y-98699621D03*
X114218861Y-98699621D03*
X111678861Y-98699621D03*
X109138861Y-98699621D03*
X106598861Y-98699621D03*
X104058861Y-98699621D03*
X101518861Y-98699621D03*
D14*
X165689857Y-81610621D03*
X165689857Y-79960621D03*
D18*
X105574857Y-116451621D03*
X105574857Y-115491621D03*
D14*
X159593857Y-78308621D03*
X159593857Y-76658621D03*
X168229857Y-78308621D03*
X168229857Y-76658621D03*
D10*
X137568857Y-110411621D03*
X137568857Y-111371621D03*
D18*
X175849857Y-89393621D03*
X175849857Y-88433621D03*
X111670857Y-116451621D03*
X111670857Y-115491621D03*
D14*
X163149857Y-81610621D03*
X163149857Y-79960621D03*
X154513857Y-78308621D03*
X154513857Y-76658621D03*
D11*
X163149857Y-76658621D03*
X163149857Y-78308621D03*
D10*
X139854857Y-110411621D03*
X139854857Y-111371621D03*
D11*
X178262857Y-73356621D03*
X178262857Y-75006621D03*
D19*
X148544857Y-71707621D03*
X148544857Y-73607621D03*
D11*
X154513857Y-79960621D03*
X154513857Y-81610621D03*
D12*
X154005857Y-88848621D03*
X155275857Y-88848621D03*
X156545857Y-88848621D03*
X157815857Y-88848621D03*
X159085857Y-88848621D03*
X160355857Y-88848621D03*
X161625857Y-88848621D03*
X161625857Y-83898621D03*
X160355857Y-83898621D03*
X159085857Y-83898621D03*
X157815857Y-83898621D03*
X156545857Y-83898621D03*
X155275857Y-83898621D03*
X154005857Y-83898621D03*
D20*
X180802857Y-79998121D03*
X180802857Y-81573121D03*
D21*
X113260857Y-118887121D03*
X114210857Y-118887121D03*
X115160857Y-118887121D03*
X115160857Y-116612121D03*
X113260857Y-116612121D03*
D11*
X163149857Y-73356621D03*
X163149857Y-75006621D03*
D10*
X140924857Y-88433621D03*
X140924857Y-89393621D03*
D13*
X142956857Y-73607621D03*
X142956857Y-71707621D03*
D14*
X178262857Y-78308621D03*
X178262857Y-76658621D03*
D22*
X101391861Y-73561625D03*
D23*
X101290900Y-118059600D03*
D12*
X142321857Y-80974621D03*
X143591857Y-80974621D03*
X144861857Y-80974621D03*
X146131857Y-80974621D03*
X147401857Y-80974621D03*
X148671857Y-80974621D03*
X149941857Y-80974621D03*
X151211857Y-80974621D03*
X151211857Y-76024621D03*
X149941857Y-76024621D03*
X148671857Y-76024621D03*
X147401857Y-76024621D03*
X146131857Y-76024621D03*
X144861857Y-76024621D03*
X143591857Y-76024621D03*
X142321857Y-76024621D03*
D24*
X139862857Y-106191121D03*
X137962857Y-106191121D03*
X138912857Y-108466121D03*
D25*
X164038857Y-83820621D03*
X164038857Y-85370621D03*
D26*
X135222857Y-86546621D03*
X134422857Y-86546621D03*
X133622857Y-86546621D03*
X132822857Y-86546621D03*
X132822857Y-88246621D03*
X133622857Y-88246621D03*
X134422857Y-88246621D03*
X135222857Y-88246621D03*
D20*
X180802857Y-76696121D03*
X180802857Y-78271121D03*
D14*
X173309857Y-78308621D03*
X173309857Y-76658621D03*
D12*
X165689857Y-88848621D03*
X166959857Y-88848621D03*
X168229857Y-88848621D03*
X169499857Y-88848621D03*
X170769857Y-88848621D03*
X172039857Y-88848621D03*
X173309857Y-88848621D03*
X173309857Y-83898621D03*
X172039857Y-83898621D03*
X170769857Y-83898621D03*
X169499857Y-83898621D03*
X168229857Y-83898621D03*
X166959857Y-83898621D03*
X165689857Y-83898621D03*
D20*
X151211857Y-71870121D03*
X151211857Y-73445121D03*
D23*
X159290857Y-69059621D03*
D22*
X180290900Y-119059621D03*
D12*
X177246857Y-88848621D03*
X178516857Y-88848621D03*
X179786857Y-88848621D03*
X181056857Y-88848621D03*
X181056857Y-83898621D03*
X179786857Y-83898621D03*
X178516857Y-83898621D03*
X177246857Y-83898621D03*
D23*
X101290790Y-69059560D03*
D14*
X138594857Y-119717621D03*
X138594857Y-118067621D03*
D18*
X137568857Y-104506621D03*
X137568857Y-103546621D03*
D14*
X157053857Y-78308621D03*
X157053857Y-76658621D03*
X159593857Y-75006621D03*
X159593857Y-73356621D03*
X157053857Y-75006621D03*
X157053857Y-73356621D03*
D11*
X116306857Y-87771621D03*
X116306857Y-89421621D03*
X173309857Y-73356621D03*
X173309857Y-75006621D03*
D14*
X170769857Y-78308621D03*
X170769857Y-76658621D03*
D11*
X157053857Y-79960621D03*
X157053857Y-81610621D03*
D27*
X142468857Y-111659621D03*
X142468857Y-110109621D03*
D25*
X175595857Y-83820621D03*
X175595857Y-85370621D03*
D11*
X178262857Y-79960621D03*
X178262857Y-81610621D03*
D13*
X178790857Y-111841621D03*
X178790857Y-109941621D03*
D26*
X135222857Y-91880621D03*
X134422857Y-91880621D03*
X133622857Y-91880621D03*
X132822857Y-91880621D03*
X132822857Y-93580621D03*
X133622857Y-93580621D03*
X134422857Y-93580621D03*
X135222857Y-93580621D03*
D28*
X106856857Y-119149621D03*
X107356857Y-119149621D03*
X107856857Y-119149621D03*
X108356857Y-119149621D03*
X108356857Y-116349621D03*
X107856857Y-116349621D03*
X107356857Y-116349621D03*
X106856857Y-116349621D03*
D23*
X159290857Y-118059621D03*
D20*
X180802857Y-73394121D03*
X180802857Y-74969121D03*
D14*
X136816857Y-119717621D03*
X136816857Y-118067621D03*
D11*
X170769857Y-73356621D03*
X170769857Y-75006621D03*
D29*
X117766857Y-81051621D03*
X120306857Y-81051621D03*
X122846857Y-81051621D03*
X125386857Y-81051621D03*
X127926857Y-81051621D03*
X130466857Y-81051621D03*
X133006857Y-81051621D03*
X135546857Y-81051621D03*
X135546857Y-72151621D03*
X133006857Y-72151621D03*
X130466857Y-72151621D03*
X127926857Y-72151621D03*
X125386857Y-72151621D03*
X122846857Y-72151621D03*
X120306857Y-72151621D03*
X117766857Y-72151621D03*
D14*
X152354857Y-85420621D03*
X152354857Y-83770621D03*
D11*
X168229857Y-79960621D03*
X168229857Y-81610621D03*
X168229857Y-73356621D03*
X168229857Y-75006621D03*
D30*
X119290857Y-119019621D03*
D31*
X121830857Y-119019621D03*
X124370857Y-119019621D03*
X126910857Y-119019621D03*
X129450857Y-119019621D03*
X131990857Y-119019621D03*
X134530857Y-119019621D03*
D30*
X148500857Y-107589621D03*
D31*
X151040857Y-107589621D03*
X153580857Y-107589621D03*
X156120857Y-107589621D03*
X158660857Y-107589621D03*
X161200857Y-107589621D03*
X163740857Y-107589621D03*
X166280857Y-107589621D03*
X168820857Y-107589621D03*
X171360857Y-107589621D03*
X173900857Y-107589621D03*
X176440857Y-107589621D03*
X178980857Y-107589621D03*
X181520857Y-107589621D03*
X112940857Y-69489621D03*
X110400857Y-69489621D03*
X107860857Y-69489621D03*
X105320857Y-69489621D03*
D30*
X138150857Y-114059621D03*
D31*
X140690857Y-114059621D03*
X143230857Y-114059621D03*
X145770857Y-114059621D03*
X148310857Y-114059621D03*
X150850857Y-114059621D03*
X153390857Y-114059621D03*
X155930857Y-114059621D03*
X158470857Y-114059621D03*
X161010857Y-114059621D03*
X163550857Y-114059621D03*
X166090857Y-114059621D03*
X168630857Y-114059621D03*
X171170857Y-114059621D03*
X173710857Y-114059621D03*
X176250857Y-114059621D03*
X178790857Y-114059621D03*
X105320857Y-77109621D03*
X107860857Y-77109621D03*
X110400857Y-77109621D03*
X112940857Y-77109621D03*
X181520857Y-92349621D03*
X178980857Y-92349621D03*
X176440857Y-92349621D03*
X173900857Y-92349621D03*
X171360857Y-92349621D03*
X168820857Y-92349621D03*
X166280857Y-92349621D03*
X163740857Y-92349621D03*
X161200857Y-92349621D03*
X158660857Y-92349621D03*
X156120857Y-92349621D03*
X153580857Y-92349621D03*
X151040857Y-92349621D03*
X148500857Y-92349621D03*
D30*
X163550857Y-70879621D03*
D31*
X166090857Y-70879621D03*
X168630857Y-70879621D03*
X171170857Y-70879621D03*
X173710857Y-70879621D03*
M02*
