M48
; DRILL file {KiCad 9.0.0} date 2025-03-24T16:34:55+0000
; FORMAT={-:-/ absolute / metric / decimal}
; #@! TF.CreationDate,2025-03-24T16:34:55+00:00
; #@! TF.GenerationSoftware,Kicad,Pcbnew,9.0.0
; #@! TF.FileFunction,MixedPlating,1,4
FMAT,2
METRIC
; #@! TA.AperFunction,Plated,PTH,ViaDrill
T1C0.400
; #@! TA.AperFunction,Plated,PTH,ComponentDrill
T2C0.800
; #@! TA.AperFunction,Plated,PTH,ComponentDrill
T3C1.000
; #@! TA.AperFunction,NonPlated,NPTH,ComponentDrill
T4C1.152
; #@! TA.AperFunction,NonPlated,NPTH,ComponentDrill
T5C2.700
%
G90
G05
T1
X109.385Y-119.02
X110.435Y-115.991
X110.435Y-118.524
X117.767Y-79.65
X120.887Y-90.5
X122.113Y-89.554
X122.838Y-87.27
X124.662Y-87.868
X132.626Y-83.497
X132.626Y-85.398
X132.857Y-90.318
X133.698Y-85.398
X133.732Y-89.497
X133.769Y-82.922
X134.308Y-90.314
X134.851Y-83.948
X135.078Y-90.953
X135.148Y-85.398
X140.824Y-82.691
X141.877Y-100.899
X142.405Y-103.727
X142.602Y-85.739
X142.977Y-92.724
X143.231Y-116.67
X143.451Y-86.882
X143.568Y-79.315
X143.644Y-108.091
X144.554Y-91.092
X144.568Y-100.224
X144.814Y-77.738
X145.243Y-90.438
X146.767Y-85.358
X147.402Y-77.865
X147.491Y-87.009
X148.282Y-79.337
X149.434Y-78.373
X149.771Y-104.579
X149.835Y-87.136
X151.268Y-88.79
X151.339Y-83.834
X151.593Y-87.898
X151.974Y-82.437
X152.99Y-76.087
X153.27Y-82.31
X154.851Y-96.381
X155.784Y-79.135
X155.784Y-80.786
X155.931Y-87.098
X156.546Y-86.374
X157.391Y-96.782
X157.816Y-85.612
X158.324Y-73.369
X159.931Y-97.183
X160.356Y-87.049
X161.245Y-75.325
X162.388Y-86.374
X162.471Y-97.584
X162.678Y-88.698
X163.404Y-87.898
X164.801Y-82.564
X165.011Y-97.985
X166.281Y-104.228
X167.361Y-86.882
X167.551Y-98.386
X169.5Y-77.484
X169.5Y-79.135
X169.881Y-85.866
X170.091Y-98.787
X170.336Y-90.549
X171.361Y-104.579
X171.939Y-86.882
X172.631Y-99.462
X173.59Y-85.866
X174.961Y-79.897
X175.171Y-90.142
X175.171Y-106.574
X177.711Y-95.525
X177.711Y-101.367
X179.087Y-85.457
X179.149Y-86.755
X179.152Y-82.498
X179.16Y-90.42
X179.533Y-72.785
X179.533Y-76.087
X179.533Y-79.262
X180.177Y-94.14
X181.057Y-90.635
X181.521Y-101.367
T2
X101.519Y-98.7
X101.519Y-113.94
X104.059Y-98.7
X104.059Y-113.94
X106.599Y-98.7
X106.599Y-113.94
X109.139Y-98.7
X109.139Y-113.94
X111.679Y-98.7
X111.679Y-113.94
X114.219Y-98.7
X114.219Y-113.94
X116.759Y-98.7
X116.759Y-113.94
X119.299Y-98.7
X119.299Y-113.94
X121.839Y-98.7
X121.839Y-113.94
X124.379Y-98.7
X124.379Y-113.94
X126.919Y-98.7
X126.919Y-113.94
X129.459Y-98.7
X129.459Y-113.94
X131.999Y-98.7
X131.999Y-113.94
X134.539Y-98.7
X134.539Y-113.94
T3
X105.321Y-69.49
X105.321Y-77.11
X107.861Y-69.49
X107.861Y-77.11
X110.401Y-69.49
X110.401Y-77.11
X112.941Y-69.49
X112.941Y-77.11
X119.291Y-119.02
X121.831Y-119.02
X124.371Y-119.02
X126.911Y-119.02
X129.451Y-119.02
X131.991Y-119.02
X134.531Y-119.02
X138.151Y-114.06
X140.691Y-114.06
X143.231Y-114.06
X145.771Y-114.06
X148.311Y-114.06
X148.501Y-92.35
X148.501Y-107.59
X150.851Y-114.06
X151.041Y-92.35
X151.041Y-107.59
X153.391Y-114.06
X153.581Y-92.35
X153.581Y-107.59
X155.931Y-114.06
X156.121Y-92.35
X156.121Y-107.59
X158.471Y-114.06
X158.661Y-92.35
X158.661Y-107.59
X161.011Y-114.06
X161.201Y-92.35
X161.201Y-107.59
X163.551Y-70.88
X163.551Y-114.06
X163.741Y-92.35
X163.741Y-107.59
X166.091Y-70.88
X166.091Y-114.06
X166.281Y-92.35
X166.281Y-107.59
X168.631Y-70.88
X168.631Y-114.06
X168.821Y-92.35
X168.821Y-107.59
X171.171Y-70.88
X171.171Y-114.06
X171.361Y-92.35
X171.361Y-107.59
X173.711Y-70.88
X173.711Y-114.06
X173.901Y-92.35
X173.901Y-107.59
X176.251Y-114.06
X176.441Y-92.35
X176.441Y-107.59
X178.791Y-114.06
X178.981Y-92.35
X178.981Y-107.59
X181.521Y-92.35
X181.521Y-107.59
T4
X101.392Y-73.562
X180.291Y-119.06
T5
X101.291Y-69.06
X101.291Y-118.06
X159.291Y-69.06
X159.291Y-118.06
M30
