%TF.GenerationSoftware,KiCad,Pcbnew,9.0.0*%
%TF.CreationDate,2025-03-24T16:34:57+00:00*%
%TF.ProjectId,SimplifiedInstallModule,53696d70-6c69-4666-9965-64496e737461,01*%
%TF.SameCoordinates,Original*%
%TF.FileFunction,Soldermask,Bot*%
%TF.FilePolarity,Negative*%
%FSLAX46Y46*%
G04 Gerber Fmt 4.6, Leading zero omitted, Abs format (unit mm)*
G04 Created by KiCad (PCBNEW 9.0.0) date 2025-03-24 16:34:57*
%MOMM*%
%LPD*%
G01*
G04 APERTURE LIST*
G04 Aperture macros list*
%AMRoundRect*
0 Rectangle with rounded corners*
0 $1 Rounding radius*
0 $2 $3 $4 $5 $6 $7 $8 $9 X,Y pos of 4 corners*
0 Add a 4 corners polygon primitive as box body*
4,1,4,$2,$3,$4,$5,$6,$7,$8,$9,$2,$3,0*
0 Add four circle primitives for the rounded corners*
1,1,$1+$1,$2,$3*
1,1,$1+$1,$4,$5*
1,1,$1+$1,$6,$7*
1,1,$1+$1,$8,$9*
0 Add four rect primitives between the rounded corners*
20,1,$1+$1,$2,$3,$4,$5,0*
20,1,$1+$1,$4,$5,$6,$7,0*
20,1,$1+$1,$6,$7,$8,$9,0*
20,1,$1+$1,$8,$9,$2,$3,0*%
G04 Aperture macros list end*
%ADD10RoundRect,0.250000X0.550000X-0.550000X0.550000X0.550000X-0.550000X0.550000X-0.550000X-0.550000X0*%
%ADD11C,1.600000*%
%ADD12C,1.448000*%
%ADD13C,5.100000*%
%ADD14R,1.700000X1.700000*%
%ADD15O,1.700000X1.700000*%
G04 APERTURE END LIST*
D10*
X101518861Y-113939621D03*
D11*
X104058861Y-113939621D03*
X106598861Y-113939621D03*
X109138861Y-113939621D03*
X111678861Y-113939621D03*
X114218861Y-113939621D03*
X116758861Y-113939621D03*
X119298861Y-113939621D03*
X121838861Y-113939621D03*
X124378861Y-113939621D03*
X126918861Y-113939621D03*
X129458861Y-113939621D03*
X131998861Y-113939621D03*
X134538861Y-113939621D03*
X134538861Y-98699621D03*
X131998861Y-98699621D03*
X129458861Y-98699621D03*
X126918861Y-98699621D03*
X124378861Y-98699621D03*
X121838861Y-98699621D03*
X119298861Y-98699621D03*
X116758861Y-98699621D03*
X114218861Y-98699621D03*
X111678861Y-98699621D03*
X109138861Y-98699621D03*
X106598861Y-98699621D03*
X104058861Y-98699621D03*
X101518861Y-98699621D03*
D12*
X101391861Y-73561625D03*
D13*
X101290900Y-118059600D03*
X159290857Y-69059621D03*
D12*
X180290900Y-119059621D03*
D13*
X101290790Y-69059560D03*
X159290857Y-118059621D03*
D14*
X119290857Y-119019621D03*
D15*
X121830857Y-119019621D03*
X124370857Y-119019621D03*
X126910857Y-119019621D03*
X129450857Y-119019621D03*
X131990857Y-119019621D03*
X134530857Y-119019621D03*
D14*
X148500857Y-107589621D03*
D15*
X151040857Y-107589621D03*
X153580857Y-107589621D03*
X156120857Y-107589621D03*
X158660857Y-107589621D03*
X161200857Y-107589621D03*
X163740857Y-107589621D03*
X166280857Y-107589621D03*
X168820857Y-107589621D03*
X171360857Y-107589621D03*
X173900857Y-107589621D03*
X176440857Y-107589621D03*
X178980857Y-107589621D03*
X181520857Y-107589621D03*
X112940857Y-69489621D03*
X110400857Y-69489621D03*
X107860857Y-69489621D03*
X105320857Y-69489621D03*
D14*
X138150857Y-114059621D03*
D15*
X140690857Y-114059621D03*
X143230857Y-114059621D03*
X145770857Y-114059621D03*
X148310857Y-114059621D03*
X150850857Y-114059621D03*
X153390857Y-114059621D03*
X155930857Y-114059621D03*
X158470857Y-114059621D03*
X161010857Y-114059621D03*
X163550857Y-114059621D03*
X166090857Y-114059621D03*
X168630857Y-114059621D03*
X171170857Y-114059621D03*
X173710857Y-114059621D03*
X176250857Y-114059621D03*
X178790857Y-114059621D03*
X105320857Y-77109621D03*
X107860857Y-77109621D03*
X110400857Y-77109621D03*
X112940857Y-77109621D03*
X181520857Y-92349621D03*
X178980857Y-92349621D03*
X176440857Y-92349621D03*
X173900857Y-92349621D03*
X171360857Y-92349621D03*
X168820857Y-92349621D03*
X166280857Y-92349621D03*
X163740857Y-92349621D03*
X161200857Y-92349621D03*
X158660857Y-92349621D03*
X156120857Y-92349621D03*
X153580857Y-92349621D03*
X151040857Y-92349621D03*
X148500857Y-92349621D03*
D14*
X163550857Y-70879621D03*
D15*
X166090857Y-70879621D03*
X168630857Y-70879621D03*
X171170857Y-70879621D03*
X173710857Y-70879621D03*
M02*
