%TF.GenerationSoftware,KiCad,Pcbnew,9.0.0*%
%TF.CreationDate,2025-03-24T16:34:57+00:00*%
%TF.ProjectId,SimplifiedInstallModule,53696d70-6c69-4666-9965-64496e737461,01*%
%TF.SameCoordinates,Original*%
%TF.FileFunction,Legend,Top*%
%TF.FilePolarity,Positive*%
%FSLAX46Y46*%
G04 Gerber Fmt 4.6, Leading zero omitted, Abs format (unit mm)*
G04 Created by KiCad (PCBNEW 9.0.0) date 2025-03-24 16:34:57*
%MOMM*%
%LPD*%
G01*
G04 APERTURE LIST*
%ADD10C,0.200000*%
%ADD11C,0.120000*%
%ADD12C,0.100000*%
%ADD13C,0.150000*%
%ADD14C,0.300000*%
%ADD15C,0.000000*%
G04 APERTURE END LIST*
D10*
X143918857Y-92857621D02*
X143918857Y-104033621D01*
D11*
X147103857Y-108732621D02*
X147103857Y-100969621D01*
D12*
X114210857Y-78379621D02*
X114210857Y-68219621D01*
D11*
X139346857Y-103525621D02*
X143410857Y-103525621D01*
X135800857Y-120162621D02*
X135800857Y-116209621D01*
D12*
X104558857Y-78633621D02*
X104050857Y-78125621D01*
D11*
X147103857Y-98969621D02*
X147103857Y-91206621D01*
X182663857Y-108732621D02*
X147103857Y-108732621D01*
X182663857Y-108732621D02*
X182663857Y-91206621D01*
D12*
X104558857Y-68473621D02*
X104050857Y-67965621D01*
D11*
X147103857Y-98969621D02*
G75*
G02*
X147103857Y-100969579I43J-999979D01*
G01*
X143410857Y-103525621D02*
X143410857Y-93365621D01*
X117639857Y-116463621D02*
X118147857Y-115955621D01*
X135546857Y-116463621D02*
X136054857Y-115955621D01*
X117893857Y-120162621D02*
X135800857Y-120162621D01*
X139346857Y-93365621D02*
X139346857Y-103525621D01*
D10*
X138838857Y-104033621D02*
X138838857Y-92857621D01*
X138838857Y-92857621D02*
X143918857Y-92857621D01*
X143918857Y-104033621D02*
X138838857Y-104033621D01*
D11*
X182663857Y-91206621D02*
X147103857Y-91206621D01*
D12*
X114210857Y-68219621D02*
X104304857Y-68219621D01*
X114210857Y-78379621D02*
X104304857Y-78379621D01*
D11*
X143410857Y-93365621D02*
X139346857Y-93365621D01*
X117893857Y-120162621D02*
X117893857Y-116209621D01*
D13*
X146415676Y-101422001D02*
X145415676Y-101422001D01*
X146320437Y-100374383D02*
X146368057Y-100422002D01*
X146368057Y-100422002D02*
X146415676Y-100564859D01*
X146415676Y-100564859D02*
X146415676Y-100660097D01*
X146415676Y-100660097D02*
X146368057Y-100802954D01*
X146368057Y-100802954D02*
X146272818Y-100898192D01*
X146272818Y-100898192D02*
X146177580Y-100945811D01*
X146177580Y-100945811D02*
X145987104Y-100993430D01*
X145987104Y-100993430D02*
X145844247Y-100993430D01*
X145844247Y-100993430D02*
X145653771Y-100945811D01*
X145653771Y-100945811D02*
X145558533Y-100898192D01*
X145558533Y-100898192D02*
X145463295Y-100802954D01*
X145463295Y-100802954D02*
X145415676Y-100660097D01*
X145415676Y-100660097D02*
X145415676Y-100564859D01*
X145415676Y-100564859D02*
X145463295Y-100422002D01*
X145463295Y-100422002D02*
X145510914Y-100374383D01*
X145844247Y-99802954D02*
X145796628Y-99898192D01*
X145796628Y-99898192D02*
X145749009Y-99945811D01*
X145749009Y-99945811D02*
X145653771Y-99993430D01*
X145653771Y-99993430D02*
X145606152Y-99993430D01*
X145606152Y-99993430D02*
X145510914Y-99945811D01*
X145510914Y-99945811D02*
X145463295Y-99898192D01*
X145463295Y-99898192D02*
X145415676Y-99802954D01*
X145415676Y-99802954D02*
X145415676Y-99612478D01*
X145415676Y-99612478D02*
X145463295Y-99517240D01*
X145463295Y-99517240D02*
X145510914Y-99469621D01*
X145510914Y-99469621D02*
X145606152Y-99422002D01*
X145606152Y-99422002D02*
X145653771Y-99422002D01*
X145653771Y-99422002D02*
X145749009Y-99469621D01*
X145749009Y-99469621D02*
X145796628Y-99517240D01*
X145796628Y-99517240D02*
X145844247Y-99612478D01*
X145844247Y-99612478D02*
X145844247Y-99802954D01*
X145844247Y-99802954D02*
X145891866Y-99898192D01*
X145891866Y-99898192D02*
X145939485Y-99945811D01*
X145939485Y-99945811D02*
X146034723Y-99993430D01*
X146034723Y-99993430D02*
X146225199Y-99993430D01*
X146225199Y-99993430D02*
X146320437Y-99945811D01*
X146320437Y-99945811D02*
X146368057Y-99898192D01*
X146368057Y-99898192D02*
X146415676Y-99802954D01*
X146415676Y-99802954D02*
X146415676Y-99612478D01*
X146415676Y-99612478D02*
X146368057Y-99517240D01*
X146368057Y-99517240D02*
X146320437Y-99469621D01*
X146320437Y-99469621D02*
X146225199Y-99422002D01*
X146225199Y-99422002D02*
X146034723Y-99422002D01*
X146034723Y-99422002D02*
X145939485Y-99469621D01*
X145939485Y-99469621D02*
X145891866Y-99517240D01*
X145891866Y-99517240D02*
X145844247Y-99612478D01*
X146415676Y-98945811D02*
X146415676Y-98755335D01*
X146415676Y-98755335D02*
X146368057Y-98660097D01*
X146368057Y-98660097D02*
X146320437Y-98612478D01*
X146320437Y-98612478D02*
X146177580Y-98517240D01*
X146177580Y-98517240D02*
X145987104Y-98469621D01*
X145987104Y-98469621D02*
X145606152Y-98469621D01*
X145606152Y-98469621D02*
X145510914Y-98517240D01*
X145510914Y-98517240D02*
X145463295Y-98564859D01*
X145463295Y-98564859D02*
X145415676Y-98660097D01*
X145415676Y-98660097D02*
X145415676Y-98850573D01*
X145415676Y-98850573D02*
X145463295Y-98945811D01*
X145463295Y-98945811D02*
X145510914Y-98993430D01*
X145510914Y-98993430D02*
X145606152Y-99041049D01*
X145606152Y-99041049D02*
X145844247Y-99041049D01*
X145844247Y-99041049D02*
X145939485Y-98993430D01*
X145939485Y-98993430D02*
X145987104Y-98945811D01*
X145987104Y-98945811D02*
X146034723Y-98850573D01*
X146034723Y-98850573D02*
X146034723Y-98660097D01*
X146034723Y-98660097D02*
X145987104Y-98564859D01*
X145987104Y-98564859D02*
X145939485Y-98517240D01*
X145939485Y-98517240D02*
X145844247Y-98469621D01*
D14*
X105366040Y-93506288D02*
X103966040Y-93506288D01*
X104432707Y-92839621D02*
X105366040Y-92839621D01*
X104566040Y-92839621D02*
X104499374Y-92772955D01*
X104499374Y-92772955D02*
X104432707Y-92639621D01*
X104432707Y-92639621D02*
X104432707Y-92439621D01*
X104432707Y-92439621D02*
X104499374Y-92306288D01*
X104499374Y-92306288D02*
X104632707Y-92239621D01*
X104632707Y-92239621D02*
X105366040Y-92239621D01*
X104432707Y-91772954D02*
X104432707Y-91239621D01*
X103966040Y-91572954D02*
X105166040Y-91572954D01*
X105166040Y-91572954D02*
X105299374Y-91506288D01*
X105299374Y-91506288D02*
X105366040Y-91372954D01*
X105366040Y-91372954D02*
X105366040Y-91239621D01*
X105299374Y-90239621D02*
X105366040Y-90372954D01*
X105366040Y-90372954D02*
X105366040Y-90639621D01*
X105366040Y-90639621D02*
X105299374Y-90772954D01*
X105299374Y-90772954D02*
X105166040Y-90839621D01*
X105166040Y-90839621D02*
X104632707Y-90839621D01*
X104632707Y-90839621D02*
X104499374Y-90772954D01*
X104499374Y-90772954D02*
X104432707Y-90639621D01*
X104432707Y-90639621D02*
X104432707Y-90372954D01*
X104432707Y-90372954D02*
X104499374Y-90239621D01*
X104499374Y-90239621D02*
X104632707Y-90172954D01*
X104632707Y-90172954D02*
X104766040Y-90172954D01*
X104766040Y-90172954D02*
X104899374Y-90839621D01*
X104432707Y-88972954D02*
X105566040Y-88972954D01*
X105566040Y-88972954D02*
X105699374Y-89039621D01*
X105699374Y-89039621D02*
X105766040Y-89106288D01*
X105766040Y-89106288D02*
X105832707Y-89239621D01*
X105832707Y-89239621D02*
X105832707Y-89439621D01*
X105832707Y-89439621D02*
X105766040Y-89572954D01*
X105299374Y-88972954D02*
X105366040Y-89106288D01*
X105366040Y-89106288D02*
X105366040Y-89372954D01*
X105366040Y-89372954D02*
X105299374Y-89506288D01*
X105299374Y-89506288D02*
X105232707Y-89572954D01*
X105232707Y-89572954D02*
X105099374Y-89639621D01*
X105099374Y-89639621D02*
X104699374Y-89639621D01*
X104699374Y-89639621D02*
X104566040Y-89572954D01*
X104566040Y-89572954D02*
X104499374Y-89506288D01*
X104499374Y-89506288D02*
X104432707Y-89372954D01*
X104432707Y-89372954D02*
X104432707Y-89106288D01*
X104432707Y-89106288D02*
X104499374Y-88972954D01*
X105366040Y-88306287D02*
X104432707Y-88306287D01*
X104699374Y-88306287D02*
X104566040Y-88239621D01*
X104566040Y-88239621D02*
X104499374Y-88172954D01*
X104499374Y-88172954D02*
X104432707Y-88039621D01*
X104432707Y-88039621D02*
X104432707Y-87906287D01*
X105366040Y-86839620D02*
X104632707Y-86839620D01*
X104632707Y-86839620D02*
X104499374Y-86906287D01*
X104499374Y-86906287D02*
X104432707Y-87039620D01*
X104432707Y-87039620D02*
X104432707Y-87306287D01*
X104432707Y-87306287D02*
X104499374Y-87439620D01*
X105299374Y-86839620D02*
X105366040Y-86972954D01*
X105366040Y-86972954D02*
X105366040Y-87306287D01*
X105366040Y-87306287D02*
X105299374Y-87439620D01*
X105299374Y-87439620D02*
X105166040Y-87506287D01*
X105166040Y-87506287D02*
X105032707Y-87506287D01*
X105032707Y-87506287D02*
X104899374Y-87439620D01*
X104899374Y-87439620D02*
X104832707Y-87306287D01*
X104832707Y-87306287D02*
X104832707Y-86972954D01*
X104832707Y-86972954D02*
X104766040Y-86839620D01*
X104432707Y-86372953D02*
X104432707Y-85839620D01*
X103966040Y-86172953D02*
X105166040Y-86172953D01*
X105166040Y-86172953D02*
X105299374Y-86106287D01*
X105299374Y-86106287D02*
X105366040Y-85972953D01*
X105366040Y-85972953D02*
X105366040Y-85839620D01*
X105299374Y-84839620D02*
X105366040Y-84972953D01*
X105366040Y-84972953D02*
X105366040Y-85239620D01*
X105366040Y-85239620D02*
X105299374Y-85372953D01*
X105299374Y-85372953D02*
X105166040Y-85439620D01*
X105166040Y-85439620D02*
X104632707Y-85439620D01*
X104632707Y-85439620D02*
X104499374Y-85372953D01*
X104499374Y-85372953D02*
X104432707Y-85239620D01*
X104432707Y-85239620D02*
X104432707Y-84972953D01*
X104432707Y-84972953D02*
X104499374Y-84839620D01*
X104499374Y-84839620D02*
X104632707Y-84772953D01*
X104632707Y-84772953D02*
X104766040Y-84772953D01*
X104766040Y-84772953D02*
X104899374Y-85439620D01*
X105366040Y-83572953D02*
X103966040Y-83572953D01*
X105299374Y-83572953D02*
X105366040Y-83706287D01*
X105366040Y-83706287D02*
X105366040Y-83972953D01*
X105366040Y-83972953D02*
X105299374Y-84106287D01*
X105299374Y-84106287D02*
X105232707Y-84172953D01*
X105232707Y-84172953D02*
X105099374Y-84239620D01*
X105099374Y-84239620D02*
X104699374Y-84239620D01*
X104699374Y-84239620D02*
X104566040Y-84172953D01*
X104566040Y-84172953D02*
X104499374Y-84106287D01*
X104499374Y-84106287D02*
X104432707Y-83972953D01*
X104432707Y-83972953D02*
X104432707Y-83706287D01*
X104432707Y-83706287D02*
X104499374Y-83572953D01*
X106886629Y-96206288D02*
X106886629Y-95739622D01*
X107619962Y-95539622D02*
X107619962Y-96206288D01*
X107619962Y-96206288D02*
X106219962Y-96206288D01*
X106219962Y-96206288D02*
X106219962Y-95539622D01*
X107553296Y-94339621D02*
X107619962Y-94472955D01*
X107619962Y-94472955D02*
X107619962Y-94739621D01*
X107619962Y-94739621D02*
X107553296Y-94872955D01*
X107553296Y-94872955D02*
X107486629Y-94939621D01*
X107486629Y-94939621D02*
X107353296Y-95006288D01*
X107353296Y-95006288D02*
X106953296Y-95006288D01*
X106953296Y-95006288D02*
X106819962Y-94939621D01*
X106819962Y-94939621D02*
X106753296Y-94872955D01*
X106753296Y-94872955D02*
X106686629Y-94739621D01*
X106686629Y-94739621D02*
X106686629Y-94472955D01*
X106686629Y-94472955D02*
X106753296Y-94339621D01*
X107619962Y-93539621D02*
X107553296Y-93672955D01*
X107553296Y-93672955D02*
X107486629Y-93739621D01*
X107486629Y-93739621D02*
X107353296Y-93806288D01*
X107353296Y-93806288D02*
X106953296Y-93806288D01*
X106953296Y-93806288D02*
X106819962Y-93739621D01*
X106819962Y-93739621D02*
X106753296Y-93672955D01*
X106753296Y-93672955D02*
X106686629Y-93539621D01*
X106686629Y-93539621D02*
X106686629Y-93339621D01*
X106686629Y-93339621D02*
X106753296Y-93206288D01*
X106753296Y-93206288D02*
X106819962Y-93139621D01*
X106819962Y-93139621D02*
X106953296Y-93072955D01*
X106953296Y-93072955D02*
X107353296Y-93072955D01*
X107353296Y-93072955D02*
X107486629Y-93139621D01*
X107486629Y-93139621D02*
X107553296Y-93206288D01*
X107553296Y-93206288D02*
X107619962Y-93339621D01*
X107619962Y-93339621D02*
X107619962Y-93539621D01*
X106686629Y-92472954D02*
X107619962Y-92472954D01*
X106819962Y-92472954D02*
X106753296Y-92406288D01*
X106753296Y-92406288D02*
X106686629Y-92272954D01*
X106686629Y-92272954D02*
X106686629Y-92072954D01*
X106686629Y-92072954D02*
X106753296Y-91939621D01*
X106753296Y-91939621D02*
X106886629Y-91872954D01*
X106886629Y-91872954D02*
X107619962Y-91872954D01*
X107553296Y-90672954D02*
X107619962Y-90806287D01*
X107619962Y-90806287D02*
X107619962Y-91072954D01*
X107619962Y-91072954D02*
X107553296Y-91206287D01*
X107553296Y-91206287D02*
X107419962Y-91272954D01*
X107419962Y-91272954D02*
X106886629Y-91272954D01*
X106886629Y-91272954D02*
X106753296Y-91206287D01*
X106753296Y-91206287D02*
X106686629Y-91072954D01*
X106686629Y-91072954D02*
X106686629Y-90806287D01*
X106686629Y-90806287D02*
X106753296Y-90672954D01*
X106753296Y-90672954D02*
X106886629Y-90606287D01*
X106886629Y-90606287D02*
X107019962Y-90606287D01*
X107019962Y-90606287D02*
X107153296Y-91272954D01*
X106686629Y-90206287D02*
X106686629Y-89672954D01*
X106219962Y-90006287D02*
X107419962Y-90006287D01*
X107419962Y-90006287D02*
X107553296Y-89939621D01*
X107553296Y-89939621D02*
X107619962Y-89806287D01*
X107619962Y-89806287D02*
X107619962Y-89672954D01*
X107219962Y-88206287D02*
X107219962Y-87539620D01*
X107619962Y-88339620D02*
X106219962Y-87872954D01*
X106219962Y-87872954D02*
X107619962Y-87406287D01*
X107619962Y-86339620D02*
X106219962Y-86339620D01*
X107553296Y-86339620D02*
X107619962Y-86472954D01*
X107619962Y-86472954D02*
X107619962Y-86739620D01*
X107619962Y-86739620D02*
X107553296Y-86872954D01*
X107553296Y-86872954D02*
X107486629Y-86939620D01*
X107486629Y-86939620D02*
X107353296Y-87006287D01*
X107353296Y-87006287D02*
X106953296Y-87006287D01*
X106953296Y-87006287D02*
X106819962Y-86939620D01*
X106819962Y-86939620D02*
X106753296Y-86872954D01*
X106753296Y-86872954D02*
X106686629Y-86739620D01*
X106686629Y-86739620D02*
X106686629Y-86472954D01*
X106686629Y-86472954D02*
X106753296Y-86339620D01*
X107619962Y-85072953D02*
X106886629Y-85072953D01*
X106886629Y-85072953D02*
X106753296Y-85139620D01*
X106753296Y-85139620D02*
X106686629Y-85272953D01*
X106686629Y-85272953D02*
X106686629Y-85539620D01*
X106686629Y-85539620D02*
X106753296Y-85672953D01*
X107553296Y-85072953D02*
X107619962Y-85206287D01*
X107619962Y-85206287D02*
X107619962Y-85539620D01*
X107619962Y-85539620D02*
X107553296Y-85672953D01*
X107553296Y-85672953D02*
X107419962Y-85739620D01*
X107419962Y-85739620D02*
X107286629Y-85739620D01*
X107286629Y-85739620D02*
X107153296Y-85672953D01*
X107153296Y-85672953D02*
X107086629Y-85539620D01*
X107086629Y-85539620D02*
X107086629Y-85206287D01*
X107086629Y-85206287D02*
X107019962Y-85072953D01*
X106686629Y-84406286D02*
X108086629Y-84406286D01*
X106753296Y-84406286D02*
X106686629Y-84272953D01*
X106686629Y-84272953D02*
X106686629Y-84006286D01*
X106686629Y-84006286D02*
X106753296Y-83872953D01*
X106753296Y-83872953D02*
X106819962Y-83806286D01*
X106819962Y-83806286D02*
X106953296Y-83739620D01*
X106953296Y-83739620D02*
X107353296Y-83739620D01*
X107353296Y-83739620D02*
X107486629Y-83806286D01*
X107486629Y-83806286D02*
X107553296Y-83872953D01*
X107553296Y-83872953D02*
X107619962Y-84006286D01*
X107619962Y-84006286D02*
X107619962Y-84272953D01*
X107619962Y-84272953D02*
X107553296Y-84406286D01*
X106686629Y-83339619D02*
X106686629Y-82806286D01*
X106219962Y-83139619D02*
X107419962Y-83139619D01*
X107419962Y-83139619D02*
X107553296Y-83072953D01*
X107553296Y-83072953D02*
X107619962Y-82939619D01*
X107619962Y-82939619D02*
X107619962Y-82806286D01*
X107619962Y-82139619D02*
X107553296Y-82272953D01*
X107553296Y-82272953D02*
X107486629Y-82339619D01*
X107486629Y-82339619D02*
X107353296Y-82406286D01*
X107353296Y-82406286D02*
X106953296Y-82406286D01*
X106953296Y-82406286D02*
X106819962Y-82339619D01*
X106819962Y-82339619D02*
X106753296Y-82272953D01*
X106753296Y-82272953D02*
X106686629Y-82139619D01*
X106686629Y-82139619D02*
X106686629Y-81939619D01*
X106686629Y-81939619D02*
X106753296Y-81806286D01*
X106753296Y-81806286D02*
X106819962Y-81739619D01*
X106819962Y-81739619D02*
X106953296Y-81672953D01*
X106953296Y-81672953D02*
X107353296Y-81672953D01*
X107353296Y-81672953D02*
X107486629Y-81739619D01*
X107486629Y-81739619D02*
X107553296Y-81806286D01*
X107553296Y-81806286D02*
X107619962Y-81939619D01*
X107619962Y-81939619D02*
X107619962Y-82139619D01*
X107619962Y-81072952D02*
X106686629Y-81072952D01*
X106953296Y-81072952D02*
X106819962Y-81006286D01*
X106819962Y-81006286D02*
X106753296Y-80939619D01*
X106753296Y-80939619D02*
X106686629Y-80806286D01*
X106686629Y-80806286D02*
X106686629Y-80672952D01*
X108940551Y-95839621D02*
X108940551Y-95306288D01*
X109873884Y-95639621D02*
X108673884Y-95639621D01*
X108673884Y-95639621D02*
X108540551Y-95572955D01*
X108540551Y-95572955D02*
X108473884Y-95439621D01*
X108473884Y-95439621D02*
X108473884Y-95306288D01*
X109873884Y-94639621D02*
X109807218Y-94772955D01*
X109807218Y-94772955D02*
X109740551Y-94839621D01*
X109740551Y-94839621D02*
X109607218Y-94906288D01*
X109607218Y-94906288D02*
X109207218Y-94906288D01*
X109207218Y-94906288D02*
X109073884Y-94839621D01*
X109073884Y-94839621D02*
X109007218Y-94772955D01*
X109007218Y-94772955D02*
X108940551Y-94639621D01*
X108940551Y-94639621D02*
X108940551Y-94439621D01*
X108940551Y-94439621D02*
X109007218Y-94306288D01*
X109007218Y-94306288D02*
X109073884Y-94239621D01*
X109073884Y-94239621D02*
X109207218Y-94172955D01*
X109207218Y-94172955D02*
X109607218Y-94172955D01*
X109607218Y-94172955D02*
X109740551Y-94239621D01*
X109740551Y-94239621D02*
X109807218Y-94306288D01*
X109807218Y-94306288D02*
X109873884Y-94439621D01*
X109873884Y-94439621D02*
X109873884Y-94639621D01*
X109873884Y-93572954D02*
X108940551Y-93572954D01*
X109207218Y-93572954D02*
X109073884Y-93506288D01*
X109073884Y-93506288D02*
X109007218Y-93439621D01*
X109007218Y-93439621D02*
X108940551Y-93306288D01*
X108940551Y-93306288D02*
X108940551Y-93172954D01*
X109140551Y-91172954D02*
X109207218Y-90972954D01*
X109207218Y-90972954D02*
X109273884Y-90906287D01*
X109273884Y-90906287D02*
X109407218Y-90839620D01*
X109407218Y-90839620D02*
X109607218Y-90839620D01*
X109607218Y-90839620D02*
X109740551Y-90906287D01*
X109740551Y-90906287D02*
X109807218Y-90972954D01*
X109807218Y-90972954D02*
X109873884Y-91106287D01*
X109873884Y-91106287D02*
X109873884Y-91639620D01*
X109873884Y-91639620D02*
X108473884Y-91639620D01*
X108473884Y-91639620D02*
X108473884Y-91172954D01*
X108473884Y-91172954D02*
X108540551Y-91039620D01*
X108540551Y-91039620D02*
X108607218Y-90972954D01*
X108607218Y-90972954D02*
X108740551Y-90906287D01*
X108740551Y-90906287D02*
X108873884Y-90906287D01*
X108873884Y-90906287D02*
X109007218Y-90972954D01*
X109007218Y-90972954D02*
X109073884Y-91039620D01*
X109073884Y-91039620D02*
X109140551Y-91172954D01*
X109140551Y-91172954D02*
X109140551Y-91639620D01*
X109140551Y-89772954D02*
X109207218Y-89572954D01*
X109207218Y-89572954D02*
X109273884Y-89506287D01*
X109273884Y-89506287D02*
X109407218Y-89439620D01*
X109407218Y-89439620D02*
X109607218Y-89439620D01*
X109607218Y-89439620D02*
X109740551Y-89506287D01*
X109740551Y-89506287D02*
X109807218Y-89572954D01*
X109807218Y-89572954D02*
X109873884Y-89706287D01*
X109873884Y-89706287D02*
X109873884Y-90239620D01*
X109873884Y-90239620D02*
X108473884Y-90239620D01*
X108473884Y-90239620D02*
X108473884Y-89772954D01*
X108473884Y-89772954D02*
X108540551Y-89639620D01*
X108540551Y-89639620D02*
X108607218Y-89572954D01*
X108607218Y-89572954D02*
X108740551Y-89506287D01*
X108740551Y-89506287D02*
X108873884Y-89506287D01*
X108873884Y-89506287D02*
X109007218Y-89572954D01*
X109007218Y-89572954D02*
X109073884Y-89639620D01*
X109073884Y-89639620D02*
X109140551Y-89772954D01*
X109140551Y-89772954D02*
X109140551Y-90239620D01*
X109740551Y-88039620D02*
X109807218Y-88106287D01*
X109807218Y-88106287D02*
X109873884Y-88306287D01*
X109873884Y-88306287D02*
X109873884Y-88439620D01*
X109873884Y-88439620D02*
X109807218Y-88639620D01*
X109807218Y-88639620D02*
X109673884Y-88772954D01*
X109673884Y-88772954D02*
X109540551Y-88839620D01*
X109540551Y-88839620D02*
X109273884Y-88906287D01*
X109273884Y-88906287D02*
X109073884Y-88906287D01*
X109073884Y-88906287D02*
X108807218Y-88839620D01*
X108807218Y-88839620D02*
X108673884Y-88772954D01*
X108673884Y-88772954D02*
X108540551Y-88639620D01*
X108540551Y-88639620D02*
X108473884Y-88439620D01*
X108473884Y-88439620D02*
X108473884Y-88306287D01*
X108473884Y-88306287D02*
X108540551Y-88106287D01*
X108540551Y-88106287D02*
X108607218Y-88039620D01*
X109873884Y-86372953D02*
X108473884Y-86372953D01*
X108473884Y-86372953D02*
X109473884Y-85906287D01*
X109473884Y-85906287D02*
X108473884Y-85439620D01*
X108473884Y-85439620D02*
X109873884Y-85439620D01*
X109873884Y-84772953D02*
X108940551Y-84772953D01*
X108473884Y-84772953D02*
X108540551Y-84839620D01*
X108540551Y-84839620D02*
X108607218Y-84772953D01*
X108607218Y-84772953D02*
X108540551Y-84706287D01*
X108540551Y-84706287D02*
X108473884Y-84772953D01*
X108473884Y-84772953D02*
X108607218Y-84772953D01*
X109807218Y-83506286D02*
X109873884Y-83639620D01*
X109873884Y-83639620D02*
X109873884Y-83906286D01*
X109873884Y-83906286D02*
X109807218Y-84039620D01*
X109807218Y-84039620D02*
X109740551Y-84106286D01*
X109740551Y-84106286D02*
X109607218Y-84172953D01*
X109607218Y-84172953D02*
X109207218Y-84172953D01*
X109207218Y-84172953D02*
X109073884Y-84106286D01*
X109073884Y-84106286D02*
X109007218Y-84039620D01*
X109007218Y-84039620D02*
X108940551Y-83906286D01*
X108940551Y-83906286D02*
X108940551Y-83639620D01*
X108940551Y-83639620D02*
X109007218Y-83506286D01*
X109873884Y-82906286D02*
X108940551Y-82906286D01*
X109207218Y-82906286D02*
X109073884Y-82839620D01*
X109073884Y-82839620D02*
X109007218Y-82772953D01*
X109007218Y-82772953D02*
X108940551Y-82639620D01*
X108940551Y-82639620D02*
X108940551Y-82506286D01*
X109873884Y-81839619D02*
X109807218Y-81972953D01*
X109807218Y-81972953D02*
X109740551Y-82039619D01*
X109740551Y-82039619D02*
X109607218Y-82106286D01*
X109607218Y-82106286D02*
X109207218Y-82106286D01*
X109207218Y-82106286D02*
X109073884Y-82039619D01*
X109073884Y-82039619D02*
X109007218Y-81972953D01*
X109007218Y-81972953D02*
X108940551Y-81839619D01*
X108940551Y-81839619D02*
X108940551Y-81639619D01*
X108940551Y-81639619D02*
X109007218Y-81506286D01*
X109007218Y-81506286D02*
X109073884Y-81439619D01*
X109073884Y-81439619D02*
X109207218Y-81372953D01*
X109207218Y-81372953D02*
X109607218Y-81372953D01*
X109607218Y-81372953D02*
X109740551Y-81439619D01*
X109740551Y-81439619D02*
X109807218Y-81506286D01*
X109807218Y-81506286D02*
X109873884Y-81639619D01*
X109873884Y-81639619D02*
X109873884Y-81839619D01*
X112127806Y-94706287D02*
X110727806Y-94706287D01*
X112061140Y-94106287D02*
X112127806Y-93972954D01*
X112127806Y-93972954D02*
X112127806Y-93706287D01*
X112127806Y-93706287D02*
X112061140Y-93572954D01*
X112061140Y-93572954D02*
X111927806Y-93506287D01*
X111927806Y-93506287D02*
X111861140Y-93506287D01*
X111861140Y-93506287D02*
X111727806Y-93572954D01*
X111727806Y-93572954D02*
X111661140Y-93706287D01*
X111661140Y-93706287D02*
X111661140Y-93906287D01*
X111661140Y-93906287D02*
X111594473Y-94039620D01*
X111594473Y-94039620D02*
X111461140Y-94106287D01*
X111461140Y-94106287D02*
X111394473Y-94106287D01*
X111394473Y-94106287D02*
X111261140Y-94039620D01*
X111261140Y-94039620D02*
X111194473Y-93906287D01*
X111194473Y-93906287D02*
X111194473Y-93706287D01*
X111194473Y-93706287D02*
X111261140Y-93572954D01*
X112061140Y-92972954D02*
X112127806Y-92839621D01*
X112127806Y-92839621D02*
X112127806Y-92572954D01*
X112127806Y-92572954D02*
X112061140Y-92439621D01*
X112061140Y-92439621D02*
X111927806Y-92372954D01*
X111927806Y-92372954D02*
X111861140Y-92372954D01*
X111861140Y-92372954D02*
X111727806Y-92439621D01*
X111727806Y-92439621D02*
X111661140Y-92572954D01*
X111661140Y-92572954D02*
X111661140Y-92772954D01*
X111661140Y-92772954D02*
X111594473Y-92906287D01*
X111594473Y-92906287D02*
X111461140Y-92972954D01*
X111461140Y-92972954D02*
X111394473Y-92972954D01*
X111394473Y-92972954D02*
X111261140Y-92906287D01*
X111261140Y-92906287D02*
X111194473Y-92772954D01*
X111194473Y-92772954D02*
X111194473Y-92572954D01*
X111194473Y-92572954D02*
X111261140Y-92439621D01*
X111194473Y-91172954D02*
X112127806Y-91172954D01*
X111194473Y-91772954D02*
X111927806Y-91772954D01*
X111927806Y-91772954D02*
X112061140Y-91706288D01*
X112061140Y-91706288D02*
X112127806Y-91572954D01*
X112127806Y-91572954D02*
X112127806Y-91372954D01*
X112127806Y-91372954D02*
X112061140Y-91239621D01*
X112061140Y-91239621D02*
X111994473Y-91172954D01*
X112061140Y-89972954D02*
X112127806Y-90106287D01*
X112127806Y-90106287D02*
X112127806Y-90372954D01*
X112127806Y-90372954D02*
X112061140Y-90506287D01*
X112061140Y-90506287D02*
X111927806Y-90572954D01*
X111927806Y-90572954D02*
X111394473Y-90572954D01*
X111394473Y-90572954D02*
X111261140Y-90506287D01*
X111261140Y-90506287D02*
X111194473Y-90372954D01*
X111194473Y-90372954D02*
X111194473Y-90106287D01*
X111194473Y-90106287D02*
X111261140Y-89972954D01*
X111261140Y-89972954D02*
X111394473Y-89906287D01*
X111394473Y-89906287D02*
X111527806Y-89906287D01*
X111527806Y-89906287D02*
X111661140Y-90572954D01*
X111194473Y-87639620D02*
X112127806Y-87639620D01*
X110661140Y-87972954D02*
X111661140Y-88306287D01*
X111661140Y-88306287D02*
X111661140Y-87439620D01*
X112127806Y-84706287D02*
X112127806Y-84772954D01*
X112127806Y-84772954D02*
X112061140Y-84906287D01*
X112061140Y-84906287D02*
X111861140Y-85106287D01*
X111861140Y-85106287D02*
X111461140Y-85439620D01*
X111461140Y-85439620D02*
X111261140Y-85572954D01*
X111261140Y-85572954D02*
X111061140Y-85639620D01*
X111061140Y-85639620D02*
X110927806Y-85639620D01*
X110927806Y-85639620D02*
X110794473Y-85572954D01*
X110794473Y-85572954D02*
X110727806Y-85439620D01*
X110727806Y-85439620D02*
X110727806Y-85372954D01*
X110727806Y-85372954D02*
X110794473Y-85239620D01*
X110794473Y-85239620D02*
X110927806Y-85172954D01*
X110927806Y-85172954D02*
X110994473Y-85172954D01*
X110994473Y-85172954D02*
X111127806Y-85239620D01*
X111127806Y-85239620D02*
X111194473Y-85306287D01*
X111194473Y-85306287D02*
X111461140Y-85706287D01*
X111461140Y-85706287D02*
X111527806Y-85772954D01*
X111527806Y-85772954D02*
X111661140Y-85839620D01*
X111661140Y-85839620D02*
X111861140Y-85839620D01*
X111861140Y-85839620D02*
X111994473Y-85772954D01*
X111994473Y-85772954D02*
X112061140Y-85706287D01*
X112061140Y-85706287D02*
X112127806Y-85572954D01*
X112127806Y-85572954D02*
X112127806Y-85372954D01*
X112127806Y-85372954D02*
X112061140Y-85239620D01*
X112061140Y-85239620D02*
X111994473Y-85172954D01*
X111994473Y-85172954D02*
X111727806Y-84972954D01*
X111727806Y-84972954D02*
X111527806Y-84906287D01*
X111527806Y-84906287D02*
X111394473Y-84906287D01*
X110727806Y-83172954D02*
X110727806Y-82239620D01*
X110727806Y-82239620D02*
X112127806Y-82839620D01*
D13*
X128381676Y-69899032D02*
X128381676Y-70470460D01*
X128381676Y-70184746D02*
X127381676Y-70184746D01*
X127381676Y-70184746D02*
X127524533Y-70279984D01*
X127524533Y-70279984D02*
X127619771Y-70375222D01*
X127619771Y-70375222D02*
X127667390Y-70470460D01*
X127381676Y-69041889D02*
X127381676Y-69232365D01*
X127381676Y-69232365D02*
X127429295Y-69327603D01*
X127429295Y-69327603D02*
X127476914Y-69375222D01*
X127476914Y-69375222D02*
X127619771Y-69470460D01*
X127619771Y-69470460D02*
X127810247Y-69518079D01*
X127810247Y-69518079D02*
X128191199Y-69518079D01*
X128191199Y-69518079D02*
X128286437Y-69470460D01*
X128286437Y-69470460D02*
X128334057Y-69422841D01*
X128334057Y-69422841D02*
X128381676Y-69327603D01*
X128381676Y-69327603D02*
X128381676Y-69137127D01*
X128381676Y-69137127D02*
X128334057Y-69041889D01*
X128334057Y-69041889D02*
X128286437Y-68994270D01*
X128286437Y-68994270D02*
X128191199Y-68946651D01*
X128191199Y-68946651D02*
X127953104Y-68946651D01*
X127953104Y-68946651D02*
X127857866Y-68994270D01*
X127857866Y-68994270D02*
X127810247Y-69041889D01*
X127810247Y-69041889D02*
X127762628Y-69137127D01*
X127762628Y-69137127D02*
X127762628Y-69327603D01*
X127762628Y-69327603D02*
X127810247Y-69422841D01*
X127810247Y-69422841D02*
X127857866Y-69470460D01*
X127857866Y-69470460D02*
X127953104Y-69518079D01*
X112824247Y-71683733D02*
X112776628Y-71778971D01*
X112776628Y-71778971D02*
X112729009Y-71826590D01*
X112729009Y-71826590D02*
X112633771Y-71874209D01*
X112633771Y-71874209D02*
X112586152Y-71874209D01*
X112586152Y-71874209D02*
X112490914Y-71826590D01*
X112490914Y-71826590D02*
X112443295Y-71778971D01*
X112443295Y-71778971D02*
X112395676Y-71683733D01*
X112395676Y-71683733D02*
X112395676Y-71493257D01*
X112395676Y-71493257D02*
X112443295Y-71398019D01*
X112443295Y-71398019D02*
X112490914Y-71350400D01*
X112490914Y-71350400D02*
X112586152Y-71302781D01*
X112586152Y-71302781D02*
X112633771Y-71302781D01*
X112633771Y-71302781D02*
X112729009Y-71350400D01*
X112729009Y-71350400D02*
X112776628Y-71398019D01*
X112776628Y-71398019D02*
X112824247Y-71493257D01*
X112824247Y-71493257D02*
X112824247Y-71683733D01*
X112824247Y-71683733D02*
X112871866Y-71778971D01*
X112871866Y-71778971D02*
X112919485Y-71826590D01*
X112919485Y-71826590D02*
X113014723Y-71874209D01*
X113014723Y-71874209D02*
X113205199Y-71874209D01*
X113205199Y-71874209D02*
X113300437Y-71826590D01*
X113300437Y-71826590D02*
X113348057Y-71778971D01*
X113348057Y-71778971D02*
X113395676Y-71683733D01*
X113395676Y-71683733D02*
X113395676Y-71493257D01*
X113395676Y-71493257D02*
X113348057Y-71398019D01*
X113348057Y-71398019D02*
X113300437Y-71350400D01*
X113300437Y-71350400D02*
X113205199Y-71302781D01*
X113205199Y-71302781D02*
X113014723Y-71302781D01*
X113014723Y-71302781D02*
X112919485Y-71350400D01*
X112919485Y-71350400D02*
X112871866Y-71398019D01*
X112871866Y-71398019D02*
X112824247Y-71493257D01*
D12*
X149993823Y-73557621D02*
X149993823Y-73024288D01*
X150260490Y-73290954D02*
X149727157Y-73290954D01*
X149560490Y-72357621D02*
X149560490Y-72690954D01*
X149560490Y-72690954D02*
X149893823Y-72724287D01*
X149893823Y-72724287D02*
X149860490Y-72690954D01*
X149860490Y-72690954D02*
X149827157Y-72624287D01*
X149827157Y-72624287D02*
X149827157Y-72457621D01*
X149827157Y-72457621D02*
X149860490Y-72390954D01*
X149860490Y-72390954D02*
X149893823Y-72357621D01*
X149893823Y-72357621D02*
X149960490Y-72324287D01*
X149960490Y-72324287D02*
X150127157Y-72324287D01*
X150127157Y-72324287D02*
X150193823Y-72357621D01*
X150193823Y-72357621D02*
X150227157Y-72390954D01*
X150227157Y-72390954D02*
X150260490Y-72457621D01*
X150260490Y-72457621D02*
X150260490Y-72624287D01*
X150260490Y-72624287D02*
X150227157Y-72690954D01*
X150227157Y-72690954D02*
X150193823Y-72724287D01*
X149560490Y-72124287D02*
X150260490Y-71890954D01*
X150260490Y-71890954D02*
X149560490Y-71657620D01*
D13*
X105775676Y-72255162D02*
X105775676Y-72826590D01*
X105775676Y-72540876D02*
X104775676Y-72540876D01*
X104775676Y-72540876D02*
X104918533Y-72636114D01*
X104918533Y-72636114D02*
X105013771Y-72731352D01*
X105013771Y-72731352D02*
X105061390Y-72826590D01*
X105775676Y-71302781D02*
X105775676Y-71874209D01*
X105775676Y-71588495D02*
X104775676Y-71588495D01*
X104775676Y-71588495D02*
X104918533Y-71683733D01*
X104918533Y-71683733D02*
X105013771Y-71778971D01*
X105013771Y-71778971D02*
X105061390Y-71874209D01*
X148050914Y-95686590D02*
X148003295Y-95638971D01*
X148003295Y-95638971D02*
X147955676Y-95543733D01*
X147955676Y-95543733D02*
X147955676Y-95305638D01*
X147955676Y-95305638D02*
X148003295Y-95210400D01*
X148003295Y-95210400D02*
X148050914Y-95162781D01*
X148050914Y-95162781D02*
X148146152Y-95115162D01*
X148146152Y-95115162D02*
X148241390Y-95115162D01*
X148241390Y-95115162D02*
X148384247Y-95162781D01*
X148384247Y-95162781D02*
X148955676Y-95734209D01*
X148955676Y-95734209D02*
X148955676Y-95115162D01*
X148384247Y-94543733D02*
X148336628Y-94638971D01*
X148336628Y-94638971D02*
X148289009Y-94686590D01*
X148289009Y-94686590D02*
X148193771Y-94734209D01*
X148193771Y-94734209D02*
X148146152Y-94734209D01*
X148146152Y-94734209D02*
X148050914Y-94686590D01*
X148050914Y-94686590D02*
X148003295Y-94638971D01*
X148003295Y-94638971D02*
X147955676Y-94543733D01*
X147955676Y-94543733D02*
X147955676Y-94353257D01*
X147955676Y-94353257D02*
X148003295Y-94258019D01*
X148003295Y-94258019D02*
X148050914Y-94210400D01*
X148050914Y-94210400D02*
X148146152Y-94162781D01*
X148146152Y-94162781D02*
X148193771Y-94162781D01*
X148193771Y-94162781D02*
X148289009Y-94210400D01*
X148289009Y-94210400D02*
X148336628Y-94258019D01*
X148336628Y-94258019D02*
X148384247Y-94353257D01*
X148384247Y-94353257D02*
X148384247Y-94543733D01*
X148384247Y-94543733D02*
X148431866Y-94638971D01*
X148431866Y-94638971D02*
X148479485Y-94686590D01*
X148479485Y-94686590D02*
X148574723Y-94734209D01*
X148574723Y-94734209D02*
X148765199Y-94734209D01*
X148765199Y-94734209D02*
X148860437Y-94686590D01*
X148860437Y-94686590D02*
X148908057Y-94638971D01*
X148908057Y-94638971D02*
X148955676Y-94543733D01*
X148955676Y-94543733D02*
X148955676Y-94353257D01*
X148955676Y-94353257D02*
X148908057Y-94258019D01*
X148908057Y-94258019D02*
X148860437Y-94210400D01*
X148860437Y-94210400D02*
X148765199Y-94162781D01*
X148765199Y-94162781D02*
X148574723Y-94162781D01*
X148574723Y-94162781D02*
X148479485Y-94210400D01*
X148479485Y-94210400D02*
X148431866Y-94258019D01*
X148431866Y-94258019D02*
X148384247Y-94353257D01*
X125270247Y-70279984D02*
X125222628Y-70375222D01*
X125222628Y-70375222D02*
X125175009Y-70422841D01*
X125175009Y-70422841D02*
X125079771Y-70470460D01*
X125079771Y-70470460D02*
X125032152Y-70470460D01*
X125032152Y-70470460D02*
X124936914Y-70422841D01*
X124936914Y-70422841D02*
X124889295Y-70375222D01*
X124889295Y-70375222D02*
X124841676Y-70279984D01*
X124841676Y-70279984D02*
X124841676Y-70089508D01*
X124841676Y-70089508D02*
X124889295Y-69994270D01*
X124889295Y-69994270D02*
X124936914Y-69946651D01*
X124936914Y-69946651D02*
X125032152Y-69899032D01*
X125032152Y-69899032D02*
X125079771Y-69899032D01*
X125079771Y-69899032D02*
X125175009Y-69946651D01*
X125175009Y-69946651D02*
X125222628Y-69994270D01*
X125222628Y-69994270D02*
X125270247Y-70089508D01*
X125270247Y-70089508D02*
X125270247Y-70279984D01*
X125270247Y-70279984D02*
X125317866Y-70375222D01*
X125317866Y-70375222D02*
X125365485Y-70422841D01*
X125365485Y-70422841D02*
X125460723Y-70470460D01*
X125460723Y-70470460D02*
X125651199Y-70470460D01*
X125651199Y-70470460D02*
X125746437Y-70422841D01*
X125746437Y-70422841D02*
X125794057Y-70375222D01*
X125794057Y-70375222D02*
X125841676Y-70279984D01*
X125841676Y-70279984D02*
X125841676Y-70089508D01*
X125841676Y-70089508D02*
X125794057Y-69994270D01*
X125794057Y-69994270D02*
X125746437Y-69946651D01*
X125746437Y-69946651D02*
X125651199Y-69899032D01*
X125651199Y-69899032D02*
X125460723Y-69899032D01*
X125460723Y-69899032D02*
X125365485Y-69946651D01*
X125365485Y-69946651D02*
X125317866Y-69994270D01*
X125317866Y-69994270D02*
X125270247Y-70089508D01*
X133985676Y-117254079D02*
X133985676Y-116587413D01*
X133985676Y-116587413D02*
X134985676Y-117015984D01*
X181975676Y-95115162D02*
X181975676Y-95686590D01*
X181975676Y-95400876D02*
X180975676Y-95400876D01*
X180975676Y-95400876D02*
X181118533Y-95496114D01*
X181118533Y-95496114D02*
X181213771Y-95591352D01*
X181213771Y-95591352D02*
X181261390Y-95686590D01*
X180975676Y-94210400D02*
X180975676Y-94686590D01*
X180975676Y-94686590D02*
X181451866Y-94734209D01*
X181451866Y-94734209D02*
X181404247Y-94686590D01*
X181404247Y-94686590D02*
X181356628Y-94591352D01*
X181356628Y-94591352D02*
X181356628Y-94353257D01*
X181356628Y-94353257D02*
X181404247Y-94258019D01*
X181404247Y-94258019D02*
X181451866Y-94210400D01*
X181451866Y-94210400D02*
X181547104Y-94162781D01*
X181547104Y-94162781D02*
X181785199Y-94162781D01*
X181785199Y-94162781D02*
X181880437Y-94210400D01*
X181880437Y-94210400D02*
X181928057Y-94258019D01*
X181928057Y-94258019D02*
X181975676Y-94353257D01*
X181975676Y-94353257D02*
X181975676Y-94591352D01*
X181975676Y-94591352D02*
X181928057Y-94686590D01*
X181928057Y-94686590D02*
X181880437Y-94734209D01*
X123085428Y-67610821D02*
X123228285Y-67658440D01*
X123228285Y-67658440D02*
X123466380Y-67658440D01*
X123466380Y-67658440D02*
X123561618Y-67610821D01*
X123561618Y-67610821D02*
X123609237Y-67563201D01*
X123609237Y-67563201D02*
X123656856Y-67467963D01*
X123656856Y-67467963D02*
X123656856Y-67372725D01*
X123656856Y-67372725D02*
X123609237Y-67277487D01*
X123609237Y-67277487D02*
X123561618Y-67229868D01*
X123561618Y-67229868D02*
X123466380Y-67182249D01*
X123466380Y-67182249D02*
X123275904Y-67134630D01*
X123275904Y-67134630D02*
X123180666Y-67087011D01*
X123180666Y-67087011D02*
X123133047Y-67039392D01*
X123133047Y-67039392D02*
X123085428Y-66944154D01*
X123085428Y-66944154D02*
X123085428Y-66848916D01*
X123085428Y-66848916D02*
X123133047Y-66753678D01*
X123133047Y-66753678D02*
X123180666Y-66706059D01*
X123180666Y-66706059D02*
X123275904Y-66658440D01*
X123275904Y-66658440D02*
X123513999Y-66658440D01*
X123513999Y-66658440D02*
X123656856Y-66706059D01*
X123942571Y-66991773D02*
X124323523Y-66991773D01*
X124085428Y-66658440D02*
X124085428Y-67515582D01*
X124085428Y-67515582D02*
X124133047Y-67610821D01*
X124133047Y-67610821D02*
X124228285Y-67658440D01*
X124228285Y-67658440D02*
X124323523Y-67658440D01*
X125085428Y-67658440D02*
X125085428Y-67134630D01*
X125085428Y-67134630D02*
X125037809Y-67039392D01*
X125037809Y-67039392D02*
X124942571Y-66991773D01*
X124942571Y-66991773D02*
X124752095Y-66991773D01*
X124752095Y-66991773D02*
X124656857Y-67039392D01*
X125085428Y-67610821D02*
X124990190Y-67658440D01*
X124990190Y-67658440D02*
X124752095Y-67658440D01*
X124752095Y-67658440D02*
X124656857Y-67610821D01*
X124656857Y-67610821D02*
X124609238Y-67515582D01*
X124609238Y-67515582D02*
X124609238Y-67420344D01*
X124609238Y-67420344D02*
X124656857Y-67325106D01*
X124656857Y-67325106D02*
X124752095Y-67277487D01*
X124752095Y-67277487D02*
X124990190Y-67277487D01*
X124990190Y-67277487D02*
X125085428Y-67229868D01*
X125418762Y-66991773D02*
X125799714Y-66991773D01*
X125561619Y-66658440D02*
X125561619Y-67515582D01*
X125561619Y-67515582D02*
X125609238Y-67610821D01*
X125609238Y-67610821D02*
X125704476Y-67658440D01*
X125704476Y-67658440D02*
X125799714Y-67658440D01*
X126133048Y-67658440D02*
X126133048Y-66991773D01*
X126133048Y-66658440D02*
X126085429Y-66706059D01*
X126085429Y-66706059D02*
X126133048Y-66753678D01*
X126133048Y-66753678D02*
X126180667Y-66706059D01*
X126180667Y-66706059D02*
X126133048Y-66658440D01*
X126133048Y-66658440D02*
X126133048Y-66753678D01*
X126752095Y-67658440D02*
X126656857Y-67610821D01*
X126656857Y-67610821D02*
X126609238Y-67563201D01*
X126609238Y-67563201D02*
X126561619Y-67467963D01*
X126561619Y-67467963D02*
X126561619Y-67182249D01*
X126561619Y-67182249D02*
X126609238Y-67087011D01*
X126609238Y-67087011D02*
X126656857Y-67039392D01*
X126656857Y-67039392D02*
X126752095Y-66991773D01*
X126752095Y-66991773D02*
X126894952Y-66991773D01*
X126894952Y-66991773D02*
X126990190Y-67039392D01*
X126990190Y-67039392D02*
X127037809Y-67087011D01*
X127037809Y-67087011D02*
X127085428Y-67182249D01*
X127085428Y-67182249D02*
X127085428Y-67467963D01*
X127085428Y-67467963D02*
X127037809Y-67563201D01*
X127037809Y-67563201D02*
X126990190Y-67610821D01*
X126990190Y-67610821D02*
X126894952Y-67658440D01*
X126894952Y-67658440D02*
X126752095Y-67658440D01*
X127514000Y-66991773D02*
X127514000Y-67658440D01*
X127514000Y-67087011D02*
X127561619Y-67039392D01*
X127561619Y-67039392D02*
X127656857Y-66991773D01*
X127656857Y-66991773D02*
X127799714Y-66991773D01*
X127799714Y-66991773D02*
X127894952Y-67039392D01*
X127894952Y-67039392D02*
X127942571Y-67134630D01*
X127942571Y-67134630D02*
X127942571Y-67658440D01*
X129180667Y-67658440D02*
X129180667Y-66658440D01*
X129656857Y-67658440D02*
X129656857Y-66658440D01*
X129656857Y-66658440D02*
X129894952Y-66658440D01*
X129894952Y-66658440D02*
X130037809Y-66706059D01*
X130037809Y-66706059D02*
X130133047Y-66801297D01*
X130133047Y-66801297D02*
X130180666Y-66896535D01*
X130180666Y-66896535D02*
X130228285Y-67087011D01*
X130228285Y-67087011D02*
X130228285Y-67229868D01*
X130228285Y-67229868D02*
X130180666Y-67420344D01*
X130180666Y-67420344D02*
X130133047Y-67515582D01*
X130133047Y-67515582D02*
X130037809Y-67610821D01*
X130037809Y-67610821D02*
X129894952Y-67658440D01*
X129894952Y-67658440D02*
X129656857Y-67658440D01*
X132461676Y-69994270D02*
X132461676Y-70184746D01*
X132461676Y-70184746D02*
X132509295Y-70279984D01*
X132509295Y-70279984D02*
X132556914Y-70327603D01*
X132556914Y-70327603D02*
X132699771Y-70422841D01*
X132699771Y-70422841D02*
X132890247Y-70470460D01*
X132890247Y-70470460D02*
X133271199Y-70470460D01*
X133271199Y-70470460D02*
X133366437Y-70422841D01*
X133366437Y-70422841D02*
X133414057Y-70375222D01*
X133414057Y-70375222D02*
X133461676Y-70279984D01*
X133461676Y-70279984D02*
X133461676Y-70089508D01*
X133461676Y-70089508D02*
X133414057Y-69994270D01*
X133414057Y-69994270D02*
X133366437Y-69946651D01*
X133366437Y-69946651D02*
X133271199Y-69899032D01*
X133271199Y-69899032D02*
X133033104Y-69899032D01*
X133033104Y-69899032D02*
X132937866Y-69946651D01*
X132937866Y-69946651D02*
X132890247Y-69994270D01*
X132890247Y-69994270D02*
X132842628Y-70089508D01*
X132842628Y-70089508D02*
X132842628Y-70279984D01*
X132842628Y-70279984D02*
X132890247Y-70375222D01*
X132890247Y-70375222D02*
X132937866Y-70422841D01*
X132937866Y-70422841D02*
X133033104Y-70470460D01*
X132795009Y-69041889D02*
X133461676Y-69041889D01*
X132414057Y-69279984D02*
X133128342Y-69518079D01*
X133128342Y-69518079D02*
X133128342Y-68899032D01*
D12*
X179784823Y-81035621D02*
X179818157Y-81068954D01*
X179818157Y-81068954D02*
X179851490Y-81168954D01*
X179851490Y-81168954D02*
X179851490Y-81235621D01*
X179851490Y-81235621D02*
X179818157Y-81335621D01*
X179818157Y-81335621D02*
X179751490Y-81402288D01*
X179751490Y-81402288D02*
X179684823Y-81435621D01*
X179684823Y-81435621D02*
X179551490Y-81468954D01*
X179551490Y-81468954D02*
X179451490Y-81468954D01*
X179451490Y-81468954D02*
X179318157Y-81435621D01*
X179318157Y-81435621D02*
X179251490Y-81402288D01*
X179251490Y-81402288D02*
X179184823Y-81335621D01*
X179184823Y-81335621D02*
X179151490Y-81235621D01*
X179151490Y-81235621D02*
X179151490Y-81168954D01*
X179151490Y-81168954D02*
X179184823Y-81068954D01*
X179184823Y-81068954D02*
X179218157Y-81035621D01*
X179851490Y-80635621D02*
X179818157Y-80702288D01*
X179818157Y-80702288D02*
X179751490Y-80735621D01*
X179751490Y-80735621D02*
X179151490Y-80735621D01*
X179851490Y-80368954D02*
X179151490Y-80368954D01*
X179584823Y-80302287D02*
X179851490Y-80102287D01*
X179384823Y-80102287D02*
X179651490Y-80368954D01*
D13*
X105109009Y-74820270D02*
X105775676Y-74820270D01*
X104728057Y-75058365D02*
X105442342Y-75296460D01*
X105442342Y-75296460D02*
X105442342Y-74677413D01*
X99933676Y-76148954D02*
X99457485Y-76482287D01*
X99933676Y-76720382D02*
X98933676Y-76720382D01*
X98933676Y-76720382D02*
X98933676Y-76339430D01*
X98933676Y-76339430D02*
X98981295Y-76244192D01*
X98981295Y-76244192D02*
X99028914Y-76196573D01*
X99028914Y-76196573D02*
X99124152Y-76148954D01*
X99124152Y-76148954D02*
X99267009Y-76148954D01*
X99267009Y-76148954D02*
X99362247Y-76196573D01*
X99362247Y-76196573D02*
X99409866Y-76244192D01*
X99409866Y-76244192D02*
X99457485Y-76339430D01*
X99457485Y-76339430D02*
X99457485Y-76720382D01*
X99886057Y-75339430D02*
X99933676Y-75434668D01*
X99933676Y-75434668D02*
X99933676Y-75625144D01*
X99933676Y-75625144D02*
X99886057Y-75720382D01*
X99886057Y-75720382D02*
X99790818Y-75768001D01*
X99790818Y-75768001D02*
X99409866Y-75768001D01*
X99409866Y-75768001D02*
X99314628Y-75720382D01*
X99314628Y-75720382D02*
X99267009Y-75625144D01*
X99267009Y-75625144D02*
X99267009Y-75434668D01*
X99267009Y-75434668D02*
X99314628Y-75339430D01*
X99314628Y-75339430D02*
X99409866Y-75291811D01*
X99409866Y-75291811D02*
X99505104Y-75291811D01*
X99505104Y-75291811D02*
X99600342Y-75768001D01*
X99267009Y-74958477D02*
X99933676Y-74720382D01*
X99933676Y-74720382D02*
X99267009Y-74482287D01*
X98933676Y-73148953D02*
X98933676Y-73053715D01*
X98933676Y-73053715D02*
X98981295Y-72958477D01*
X98981295Y-72958477D02*
X99028914Y-72910858D01*
X99028914Y-72910858D02*
X99124152Y-72863239D01*
X99124152Y-72863239D02*
X99314628Y-72815620D01*
X99314628Y-72815620D02*
X99552723Y-72815620D01*
X99552723Y-72815620D02*
X99743199Y-72863239D01*
X99743199Y-72863239D02*
X99838437Y-72910858D01*
X99838437Y-72910858D02*
X99886057Y-72958477D01*
X99886057Y-72958477D02*
X99933676Y-73053715D01*
X99933676Y-73053715D02*
X99933676Y-73148953D01*
X99933676Y-73148953D02*
X99886057Y-73244191D01*
X99886057Y-73244191D02*
X99838437Y-73291810D01*
X99838437Y-73291810D02*
X99743199Y-73339429D01*
X99743199Y-73339429D02*
X99552723Y-73387048D01*
X99552723Y-73387048D02*
X99314628Y-73387048D01*
X99314628Y-73387048D02*
X99124152Y-73339429D01*
X99124152Y-73339429D02*
X99028914Y-73291810D01*
X99028914Y-73291810D02*
X98981295Y-73244191D01*
X98981295Y-73244191D02*
X98933676Y-73148953D01*
X99933676Y-71863239D02*
X99933676Y-72434667D01*
X99933676Y-72148953D02*
X98933676Y-72148953D01*
X98933676Y-72148953D02*
X99076533Y-72244191D01*
X99076533Y-72244191D02*
X99171771Y-72339429D01*
X99171771Y-72339429D02*
X99219390Y-72434667D01*
X181975676Y-105205032D02*
X181975676Y-105776460D01*
X181975676Y-105490746D02*
X180975676Y-105490746D01*
X180975676Y-105490746D02*
X181118533Y-105585984D01*
X181118533Y-105585984D02*
X181213771Y-105681222D01*
X181213771Y-105681222D02*
X181261390Y-105776460D01*
X181309009Y-104347889D02*
X181975676Y-104347889D01*
X180928057Y-104585984D02*
X181642342Y-104824079D01*
X181642342Y-104824079D02*
X181642342Y-104205032D01*
X117327581Y-119710001D02*
X116327581Y-119710001D01*
X117232342Y-118662383D02*
X117279962Y-118710002D01*
X117279962Y-118710002D02*
X117327581Y-118852859D01*
X117327581Y-118852859D02*
X117327581Y-118948097D01*
X117327581Y-118948097D02*
X117279962Y-119090954D01*
X117279962Y-119090954D02*
X117184723Y-119186192D01*
X117184723Y-119186192D02*
X117089485Y-119233811D01*
X117089485Y-119233811D02*
X116899009Y-119281430D01*
X116899009Y-119281430D02*
X116756152Y-119281430D01*
X116756152Y-119281430D02*
X116565676Y-119233811D01*
X116565676Y-119233811D02*
X116470438Y-119186192D01*
X116470438Y-119186192D02*
X116375200Y-119090954D01*
X116375200Y-119090954D02*
X116327581Y-118948097D01*
X116327581Y-118948097D02*
X116327581Y-118852859D01*
X116327581Y-118852859D02*
X116375200Y-118710002D01*
X116375200Y-118710002D02*
X116422819Y-118662383D01*
X117327581Y-118186192D02*
X117327581Y-117995716D01*
X117327581Y-117995716D02*
X117279962Y-117900478D01*
X117279962Y-117900478D02*
X117232342Y-117852859D01*
X117232342Y-117852859D02*
X117089485Y-117757621D01*
X117089485Y-117757621D02*
X116899009Y-117710002D01*
X116899009Y-117710002D02*
X116518057Y-117710002D01*
X116518057Y-117710002D02*
X116422819Y-117757621D01*
X116422819Y-117757621D02*
X116375200Y-117805240D01*
X116375200Y-117805240D02*
X116327581Y-117900478D01*
X116327581Y-117900478D02*
X116327581Y-118090954D01*
X116327581Y-118090954D02*
X116375200Y-118186192D01*
X116375200Y-118186192D02*
X116422819Y-118233811D01*
X116422819Y-118233811D02*
X116518057Y-118281430D01*
X116518057Y-118281430D02*
X116756152Y-118281430D01*
X116756152Y-118281430D02*
X116851390Y-118233811D01*
X116851390Y-118233811D02*
X116899009Y-118186192D01*
X116899009Y-118186192D02*
X116946628Y-118090954D01*
X116946628Y-118090954D02*
X116946628Y-117900478D01*
X116946628Y-117900478D02*
X116899009Y-117805240D01*
X116899009Y-117805240D02*
X116851390Y-117757621D01*
X116851390Y-117757621D02*
X116756152Y-117710002D01*
X116327581Y-117376668D02*
X116327581Y-116710002D01*
X116327581Y-116710002D02*
X117327581Y-117138573D01*
X129921676Y-70518079D02*
X129921676Y-69899032D01*
X129921676Y-69899032D02*
X130302628Y-70232365D01*
X130302628Y-70232365D02*
X130302628Y-70089508D01*
X130302628Y-70089508D02*
X130350247Y-69994270D01*
X130350247Y-69994270D02*
X130397866Y-69946651D01*
X130397866Y-69946651D02*
X130493104Y-69899032D01*
X130493104Y-69899032D02*
X130731199Y-69899032D01*
X130731199Y-69899032D02*
X130826437Y-69946651D01*
X130826437Y-69946651D02*
X130874057Y-69994270D01*
X130874057Y-69994270D02*
X130921676Y-70089508D01*
X130921676Y-70089508D02*
X130921676Y-70375222D01*
X130921676Y-70375222D02*
X130874057Y-70470460D01*
X130874057Y-70470460D02*
X130826437Y-70518079D01*
X130016914Y-69518079D02*
X129969295Y-69470460D01*
X129969295Y-69470460D02*
X129921676Y-69375222D01*
X129921676Y-69375222D02*
X129921676Y-69137127D01*
X129921676Y-69137127D02*
X129969295Y-69041889D01*
X129969295Y-69041889D02*
X130016914Y-68994270D01*
X130016914Y-68994270D02*
X130112152Y-68946651D01*
X130112152Y-68946651D02*
X130207390Y-68946651D01*
X130207390Y-68946651D02*
X130350247Y-68994270D01*
X130350247Y-68994270D02*
X130921676Y-69565698D01*
X130921676Y-69565698D02*
X130921676Y-68946651D01*
X136001676Y-69899032D02*
X136001676Y-70470460D01*
X136001676Y-70184746D02*
X135001676Y-70184746D01*
X135001676Y-70184746D02*
X135144533Y-70279984D01*
X135144533Y-70279984D02*
X135239771Y-70375222D01*
X135239771Y-70375222D02*
X135287390Y-70470460D01*
X135096914Y-69518079D02*
X135049295Y-69470460D01*
X135049295Y-69470460D02*
X135001676Y-69375222D01*
X135001676Y-69375222D02*
X135001676Y-69137127D01*
X135001676Y-69137127D02*
X135049295Y-69041889D01*
X135049295Y-69041889D02*
X135096914Y-68994270D01*
X135096914Y-68994270D02*
X135192152Y-68946651D01*
X135192152Y-68946651D02*
X135287390Y-68946651D01*
X135287390Y-68946651D02*
X135430247Y-68994270D01*
X135430247Y-68994270D02*
X136001676Y-69565698D01*
X136001676Y-69565698D02*
X136001676Y-68946651D01*
X135430247Y-68375222D02*
X135382628Y-68470460D01*
X135382628Y-68470460D02*
X135335009Y-68518079D01*
X135335009Y-68518079D02*
X135239771Y-68565698D01*
X135239771Y-68565698D02*
X135192152Y-68565698D01*
X135192152Y-68565698D02*
X135096914Y-68518079D01*
X135096914Y-68518079D02*
X135049295Y-68470460D01*
X135049295Y-68470460D02*
X135001676Y-68375222D01*
X135001676Y-68375222D02*
X135001676Y-68184746D01*
X135001676Y-68184746D02*
X135049295Y-68089508D01*
X135049295Y-68089508D02*
X135096914Y-68041889D01*
X135096914Y-68041889D02*
X135192152Y-67994270D01*
X135192152Y-67994270D02*
X135239771Y-67994270D01*
X135239771Y-67994270D02*
X135335009Y-68041889D01*
X135335009Y-68041889D02*
X135382628Y-68089508D01*
X135382628Y-68089508D02*
X135430247Y-68184746D01*
X135430247Y-68184746D02*
X135430247Y-68375222D01*
X135430247Y-68375222D02*
X135477866Y-68470460D01*
X135477866Y-68470460D02*
X135525485Y-68518079D01*
X135525485Y-68518079D02*
X135620723Y-68565698D01*
X135620723Y-68565698D02*
X135811199Y-68565698D01*
X135811199Y-68565698D02*
X135906437Y-68518079D01*
X135906437Y-68518079D02*
X135954057Y-68470460D01*
X135954057Y-68470460D02*
X136001676Y-68375222D01*
X136001676Y-68375222D02*
X136001676Y-68184746D01*
X136001676Y-68184746D02*
X135954057Y-68089508D01*
X135954057Y-68089508D02*
X135906437Y-68041889D01*
X135906437Y-68041889D02*
X135811199Y-67994270D01*
X135811199Y-67994270D02*
X135620723Y-67994270D01*
X135620723Y-67994270D02*
X135525485Y-68041889D01*
X135525485Y-68041889D02*
X135477866Y-68089508D01*
X135477866Y-68089508D02*
X135430247Y-68184746D01*
D12*
X101829490Y-112183165D02*
X101129490Y-112183165D01*
X101129490Y-112183165D02*
X101129490Y-111916498D01*
X101129490Y-111916498D02*
X101162823Y-111849832D01*
X101162823Y-111849832D02*
X101196157Y-111816498D01*
X101196157Y-111816498D02*
X101262823Y-111783165D01*
X101262823Y-111783165D02*
X101362823Y-111783165D01*
X101362823Y-111783165D02*
X101429490Y-111816498D01*
X101429490Y-111816498D02*
X101462823Y-111849832D01*
X101462823Y-111849832D02*
X101496157Y-111916498D01*
X101496157Y-111916498D02*
X101496157Y-112183165D01*
X101829490Y-111483165D02*
X101362823Y-111483165D01*
X101129490Y-111483165D02*
X101162823Y-111516498D01*
X101162823Y-111516498D02*
X101196157Y-111483165D01*
X101196157Y-111483165D02*
X101162823Y-111449832D01*
X101162823Y-111449832D02*
X101129490Y-111483165D01*
X101129490Y-111483165D02*
X101196157Y-111483165D01*
X101362823Y-111149832D02*
X101829490Y-111149832D01*
X101429490Y-111149832D02*
X101396157Y-111116499D01*
X101396157Y-111116499D02*
X101362823Y-111049832D01*
X101362823Y-111049832D02*
X101362823Y-110949832D01*
X101362823Y-110949832D02*
X101396157Y-110883165D01*
X101396157Y-110883165D02*
X101462823Y-110849832D01*
X101462823Y-110849832D02*
X101829490Y-110849832D01*
X101829490Y-109616499D02*
X101829490Y-110016499D01*
X101829490Y-109816499D02*
X101129490Y-109816499D01*
X101129490Y-109816499D02*
X101229490Y-109883166D01*
X101229490Y-109883166D02*
X101296157Y-109949833D01*
X101296157Y-109949833D02*
X101329490Y-110016499D01*
D13*
X112395676Y-75344079D02*
X112395676Y-74677413D01*
X112395676Y-74677413D02*
X113395676Y-75105984D01*
X119856914Y-70470460D02*
X119809295Y-70422841D01*
X119809295Y-70422841D02*
X119761676Y-70327603D01*
X119761676Y-70327603D02*
X119761676Y-70089508D01*
X119761676Y-70089508D02*
X119809295Y-69994270D01*
X119809295Y-69994270D02*
X119856914Y-69946651D01*
X119856914Y-69946651D02*
X119952152Y-69899032D01*
X119952152Y-69899032D02*
X120047390Y-69899032D01*
X120047390Y-69899032D02*
X120190247Y-69946651D01*
X120190247Y-69946651D02*
X120761676Y-70518079D01*
X120761676Y-70518079D02*
X120761676Y-69899032D01*
X119745676Y-116635032D02*
X119745676Y-117206460D01*
X119745676Y-116920746D02*
X118745676Y-116920746D01*
X118745676Y-116920746D02*
X118888533Y-117015984D01*
X118888533Y-117015984D02*
X118983771Y-117111222D01*
X118983771Y-117111222D02*
X119031390Y-117206460D01*
X140266799Y-102207525D02*
X140219180Y-102302764D01*
X140219180Y-102302764D02*
X140219180Y-102493240D01*
X140219180Y-102493240D02*
X140266799Y-102588478D01*
X140266799Y-102588478D02*
X140362037Y-102683716D01*
X140362037Y-102683716D02*
X140457275Y-102731335D01*
X140457275Y-102731335D02*
X140647751Y-102731335D01*
X140647751Y-102731335D02*
X140742989Y-102683716D01*
X140742989Y-102683716D02*
X140838227Y-102588478D01*
X140838227Y-102588478D02*
X140885846Y-102493240D01*
X140885846Y-102493240D02*
X140885846Y-102302764D01*
X140885846Y-102302764D02*
X140838227Y-102207525D01*
X139885846Y-102398002D02*
X139933465Y-102636097D01*
X139933465Y-102636097D02*
X140076323Y-102874192D01*
X140076323Y-102874192D02*
X140314418Y-103017049D01*
X140314418Y-103017049D02*
X140552513Y-103064668D01*
X140552513Y-103064668D02*
X140790608Y-103017049D01*
X140790608Y-103017049D02*
X141028704Y-102874192D01*
X141028704Y-102874192D02*
X141171561Y-102636097D01*
X141171561Y-102636097D02*
X141219180Y-102398002D01*
X141219180Y-102398002D02*
X141171561Y-102159906D01*
X141171561Y-102159906D02*
X141028704Y-101921811D01*
X141028704Y-101921811D02*
X140790608Y-101778954D01*
X140790608Y-101778954D02*
X140552513Y-101731335D01*
X140552513Y-101731335D02*
X140314418Y-101778954D01*
X140314418Y-101778954D02*
X140076323Y-101921811D01*
X140076323Y-101921811D02*
X139933465Y-102159906D01*
X139933465Y-102159906D02*
X139885846Y-102398002D01*
X141028704Y-100540858D02*
X140028704Y-100540858D01*
X141028704Y-99969430D02*
X140457275Y-100398001D01*
X140028704Y-99969430D02*
X140600132Y-100540858D01*
X140981085Y-99159906D02*
X141028704Y-99255144D01*
X141028704Y-99255144D02*
X141028704Y-99445620D01*
X141028704Y-99445620D02*
X140981085Y-99540858D01*
X140981085Y-99540858D02*
X140885846Y-99588477D01*
X140885846Y-99588477D02*
X140504894Y-99588477D01*
X140504894Y-99588477D02*
X140409656Y-99540858D01*
X140409656Y-99540858D02*
X140362037Y-99445620D01*
X140362037Y-99445620D02*
X140362037Y-99255144D01*
X140362037Y-99255144D02*
X140409656Y-99159906D01*
X140409656Y-99159906D02*
X140504894Y-99112287D01*
X140504894Y-99112287D02*
X140600132Y-99112287D01*
X140600132Y-99112287D02*
X140695370Y-99588477D01*
X140362037Y-98683715D02*
X141028704Y-98683715D01*
X140457275Y-98683715D02*
X140409656Y-98636096D01*
X140409656Y-98636096D02*
X140362037Y-98540858D01*
X140362037Y-98540858D02*
X140362037Y-98398001D01*
X140362037Y-98398001D02*
X140409656Y-98302763D01*
X140409656Y-98302763D02*
X140504894Y-98255144D01*
X140504894Y-98255144D02*
X141028704Y-98255144D01*
X141028704Y-96540858D02*
X141028704Y-97017048D01*
X141028704Y-97017048D02*
X140028704Y-97017048D01*
X141028704Y-96064667D02*
X140981085Y-96159905D01*
X140981085Y-96159905D02*
X140933465Y-96207524D01*
X140933465Y-96207524D02*
X140838227Y-96255143D01*
X140838227Y-96255143D02*
X140552513Y-96255143D01*
X140552513Y-96255143D02*
X140457275Y-96207524D01*
X140457275Y-96207524D02*
X140409656Y-96159905D01*
X140409656Y-96159905D02*
X140362037Y-96064667D01*
X140362037Y-96064667D02*
X140362037Y-95921810D01*
X140362037Y-95921810D02*
X140409656Y-95826572D01*
X140409656Y-95826572D02*
X140457275Y-95778953D01*
X140457275Y-95778953D02*
X140552513Y-95731334D01*
X140552513Y-95731334D02*
X140838227Y-95731334D01*
X140838227Y-95731334D02*
X140933465Y-95778953D01*
X140933465Y-95778953D02*
X140981085Y-95826572D01*
X140981085Y-95826572D02*
X141028704Y-95921810D01*
X141028704Y-95921810D02*
X141028704Y-96064667D01*
X140362037Y-95398000D02*
X141028704Y-95207524D01*
X141028704Y-95207524D02*
X140552513Y-95017048D01*
X140552513Y-95017048D02*
X141028704Y-94826572D01*
X141028704Y-94826572D02*
X140362037Y-94636096D01*
X140981085Y-93874191D02*
X141028704Y-93969429D01*
X141028704Y-93969429D02*
X141028704Y-94159905D01*
X141028704Y-94159905D02*
X140981085Y-94255143D01*
X140981085Y-94255143D02*
X140885846Y-94302762D01*
X140885846Y-94302762D02*
X140504894Y-94302762D01*
X140504894Y-94302762D02*
X140409656Y-94255143D01*
X140409656Y-94255143D02*
X140362037Y-94159905D01*
X140362037Y-94159905D02*
X140362037Y-93969429D01*
X140362037Y-93969429D02*
X140409656Y-93874191D01*
X140409656Y-93874191D02*
X140504894Y-93826572D01*
X140504894Y-93826572D02*
X140600132Y-93826572D01*
X140600132Y-93826572D02*
X140695370Y-94302762D01*
X142638648Y-101826573D02*
X141638648Y-101826573D01*
X141638648Y-101826573D02*
X142352933Y-101493240D01*
X142352933Y-101493240D02*
X141638648Y-101159907D01*
X141638648Y-101159907D02*
X142638648Y-101159907D01*
X142638648Y-100255145D02*
X142114838Y-100255145D01*
X142114838Y-100255145D02*
X142019600Y-100302764D01*
X142019600Y-100302764D02*
X141971981Y-100398002D01*
X141971981Y-100398002D02*
X141971981Y-100588478D01*
X141971981Y-100588478D02*
X142019600Y-100683716D01*
X142591029Y-100255145D02*
X142638648Y-100350383D01*
X142638648Y-100350383D02*
X142638648Y-100588478D01*
X142638648Y-100588478D02*
X142591029Y-100683716D01*
X142591029Y-100683716D02*
X142495790Y-100731335D01*
X142495790Y-100731335D02*
X142400552Y-100731335D01*
X142400552Y-100731335D02*
X142305314Y-100683716D01*
X142305314Y-100683716D02*
X142257695Y-100588478D01*
X142257695Y-100588478D02*
X142257695Y-100350383D01*
X142257695Y-100350383D02*
X142210076Y-100255145D01*
X142638648Y-99778954D02*
X141971981Y-99778954D01*
X142162457Y-99778954D02*
X142067219Y-99731335D01*
X142067219Y-99731335D02*
X142019600Y-99683716D01*
X142019600Y-99683716D02*
X141971981Y-99588478D01*
X141971981Y-99588478D02*
X141971981Y-99493240D01*
X141733886Y-98445620D02*
X141686267Y-98398001D01*
X141686267Y-98398001D02*
X141638648Y-98302763D01*
X141638648Y-98302763D02*
X141638648Y-98064668D01*
X141638648Y-98064668D02*
X141686267Y-97969430D01*
X141686267Y-97969430D02*
X141733886Y-97921811D01*
X141733886Y-97921811D02*
X141829124Y-97874192D01*
X141829124Y-97874192D02*
X141924362Y-97874192D01*
X141924362Y-97874192D02*
X142067219Y-97921811D01*
X142067219Y-97921811D02*
X142638648Y-98493239D01*
X142638648Y-98493239D02*
X142638648Y-97874192D01*
X141638648Y-97255144D02*
X141638648Y-97159906D01*
X141638648Y-97159906D02*
X141686267Y-97064668D01*
X141686267Y-97064668D02*
X141733886Y-97017049D01*
X141733886Y-97017049D02*
X141829124Y-96969430D01*
X141829124Y-96969430D02*
X142019600Y-96921811D01*
X142019600Y-96921811D02*
X142257695Y-96921811D01*
X142257695Y-96921811D02*
X142448171Y-96969430D01*
X142448171Y-96969430D02*
X142543409Y-97017049D01*
X142543409Y-97017049D02*
X142591029Y-97064668D01*
X142591029Y-97064668D02*
X142638648Y-97159906D01*
X142638648Y-97159906D02*
X142638648Y-97255144D01*
X142638648Y-97255144D02*
X142591029Y-97350382D01*
X142591029Y-97350382D02*
X142543409Y-97398001D01*
X142543409Y-97398001D02*
X142448171Y-97445620D01*
X142448171Y-97445620D02*
X142257695Y-97493239D01*
X142257695Y-97493239D02*
X142019600Y-97493239D01*
X142019600Y-97493239D02*
X141829124Y-97445620D01*
X141829124Y-97445620D02*
X141733886Y-97398001D01*
X141733886Y-97398001D02*
X141686267Y-97350382D01*
X141686267Y-97350382D02*
X141638648Y-97255144D01*
X141733886Y-96540858D02*
X141686267Y-96493239D01*
X141686267Y-96493239D02*
X141638648Y-96398001D01*
X141638648Y-96398001D02*
X141638648Y-96159906D01*
X141638648Y-96159906D02*
X141686267Y-96064668D01*
X141686267Y-96064668D02*
X141733886Y-96017049D01*
X141733886Y-96017049D02*
X141829124Y-95969430D01*
X141829124Y-95969430D02*
X141924362Y-95969430D01*
X141924362Y-95969430D02*
X142067219Y-96017049D01*
X142067219Y-96017049D02*
X142638648Y-96588477D01*
X142638648Y-96588477D02*
X142638648Y-95969430D01*
X141638648Y-95064668D02*
X141638648Y-95540858D01*
X141638648Y-95540858D02*
X142114838Y-95588477D01*
X142114838Y-95588477D02*
X142067219Y-95540858D01*
X142067219Y-95540858D02*
X142019600Y-95445620D01*
X142019600Y-95445620D02*
X142019600Y-95207525D01*
X142019600Y-95207525D02*
X142067219Y-95112287D01*
X142067219Y-95112287D02*
X142114838Y-95064668D01*
X142114838Y-95064668D02*
X142210076Y-95017049D01*
X142210076Y-95017049D02*
X142448171Y-95017049D01*
X142448171Y-95017049D02*
X142543409Y-95064668D01*
X142543409Y-95064668D02*
X142591029Y-95112287D01*
X142591029Y-95112287D02*
X142638648Y-95207525D01*
X142638648Y-95207525D02*
X142638648Y-95445620D01*
X142638648Y-95445620D02*
X142591029Y-95540858D01*
X142591029Y-95540858D02*
X142543409Y-95588477D01*
X103743676Y-74752001D02*
X102743676Y-74752001D01*
X103648437Y-73704383D02*
X103696057Y-73752002D01*
X103696057Y-73752002D02*
X103743676Y-73894859D01*
X103743676Y-73894859D02*
X103743676Y-73990097D01*
X103743676Y-73990097D02*
X103696057Y-74132954D01*
X103696057Y-74132954D02*
X103600818Y-74228192D01*
X103600818Y-74228192D02*
X103505580Y-74275811D01*
X103505580Y-74275811D02*
X103315104Y-74323430D01*
X103315104Y-74323430D02*
X103172247Y-74323430D01*
X103172247Y-74323430D02*
X102981771Y-74275811D01*
X102981771Y-74275811D02*
X102886533Y-74228192D01*
X102886533Y-74228192D02*
X102791295Y-74132954D01*
X102791295Y-74132954D02*
X102743676Y-73990097D01*
X102743676Y-73990097D02*
X102743676Y-73894859D01*
X102743676Y-73894859D02*
X102791295Y-73752002D01*
X102791295Y-73752002D02*
X102838914Y-73704383D01*
X103743676Y-73228192D02*
X103743676Y-73037716D01*
X103743676Y-73037716D02*
X103696057Y-72942478D01*
X103696057Y-72942478D02*
X103648437Y-72894859D01*
X103648437Y-72894859D02*
X103505580Y-72799621D01*
X103505580Y-72799621D02*
X103315104Y-72752002D01*
X103315104Y-72752002D02*
X102934152Y-72752002D01*
X102934152Y-72752002D02*
X102838914Y-72799621D01*
X102838914Y-72799621D02*
X102791295Y-72847240D01*
X102791295Y-72847240D02*
X102743676Y-72942478D01*
X102743676Y-72942478D02*
X102743676Y-73132954D01*
X102743676Y-73132954D02*
X102791295Y-73228192D01*
X102791295Y-73228192D02*
X102838914Y-73275811D01*
X102838914Y-73275811D02*
X102934152Y-73323430D01*
X102934152Y-73323430D02*
X103172247Y-73323430D01*
X103172247Y-73323430D02*
X103267485Y-73275811D01*
X103267485Y-73275811D02*
X103315104Y-73228192D01*
X103315104Y-73228192D02*
X103362723Y-73132954D01*
X103362723Y-73132954D02*
X103362723Y-72942478D01*
X103362723Y-72942478D02*
X103315104Y-72847240D01*
X103315104Y-72847240D02*
X103267485Y-72799621D01*
X103267485Y-72799621D02*
X103172247Y-72752002D01*
X103077009Y-71894859D02*
X103743676Y-71894859D01*
X102696057Y-72132954D02*
X103410342Y-72371049D01*
X103410342Y-72371049D02*
X103410342Y-71752002D01*
D12*
X179151490Y-74664954D02*
X179151490Y-74264954D01*
X179851490Y-74464954D02*
X179151490Y-74464954D01*
X179851490Y-74098288D02*
X179384823Y-73731621D01*
X179384823Y-74098288D02*
X179851490Y-73731621D01*
D13*
X118285676Y-69899032D02*
X118285676Y-70470460D01*
X118285676Y-70184746D02*
X117285676Y-70184746D01*
X117285676Y-70184746D02*
X117428533Y-70279984D01*
X117428533Y-70279984D02*
X117523771Y-70375222D01*
X117523771Y-70375222D02*
X117571390Y-70470460D01*
X122635009Y-69994270D02*
X123301676Y-69994270D01*
X122254057Y-70232365D02*
X122968342Y-70470460D01*
X122968342Y-70470460D02*
X122968342Y-69851413D01*
X148955676Y-105205032D02*
X148955676Y-105776460D01*
X148955676Y-105490746D02*
X147955676Y-105490746D01*
X147955676Y-105490746D02*
X148098533Y-105585984D01*
X148098533Y-105585984D02*
X148193771Y-105681222D01*
X148193771Y-105681222D02*
X148241390Y-105776460D01*
D12*
X179851490Y-77550287D02*
X179518157Y-77783620D01*
X179851490Y-77950287D02*
X179151490Y-77950287D01*
X179151490Y-77950287D02*
X179151490Y-77683620D01*
X179151490Y-77683620D02*
X179184823Y-77616954D01*
X179184823Y-77616954D02*
X179218157Y-77583620D01*
X179218157Y-77583620D02*
X179284823Y-77550287D01*
X179284823Y-77550287D02*
X179384823Y-77550287D01*
X179384823Y-77550287D02*
X179451490Y-77583620D01*
X179451490Y-77583620D02*
X179484823Y-77616954D01*
X179484823Y-77616954D02*
X179518157Y-77683620D01*
X179518157Y-77683620D02*
X179518157Y-77950287D01*
X179851490Y-77316954D02*
X179384823Y-76950287D01*
X179384823Y-77316954D02*
X179851490Y-76950287D01*
X163528823Y-89363621D02*
X163562157Y-89396954D01*
X163562157Y-89396954D02*
X163595490Y-89496954D01*
X163595490Y-89496954D02*
X163595490Y-89563621D01*
X163595490Y-89563621D02*
X163562157Y-89663621D01*
X163562157Y-89663621D02*
X163495490Y-89730288D01*
X163495490Y-89730288D02*
X163428823Y-89763621D01*
X163428823Y-89763621D02*
X163295490Y-89796954D01*
X163295490Y-89796954D02*
X163195490Y-89796954D01*
X163195490Y-89796954D02*
X163062157Y-89763621D01*
X163062157Y-89763621D02*
X162995490Y-89730288D01*
X162995490Y-89730288D02*
X162928823Y-89663621D01*
X162928823Y-89663621D02*
X162895490Y-89563621D01*
X162895490Y-89563621D02*
X162895490Y-89496954D01*
X162895490Y-89496954D02*
X162928823Y-89396954D01*
X162928823Y-89396954D02*
X162962157Y-89363621D01*
X163595490Y-88696954D02*
X163595490Y-89096954D01*
X163595490Y-88896954D02*
X162895490Y-88896954D01*
X162895490Y-88896954D02*
X162995490Y-88963621D01*
X162995490Y-88963621D02*
X163062157Y-89030288D01*
X163062157Y-89030288D02*
X163095490Y-89096954D01*
X162895490Y-88063621D02*
X162895490Y-88396954D01*
X162895490Y-88396954D02*
X163228823Y-88430287D01*
X163228823Y-88430287D02*
X163195490Y-88396954D01*
X163195490Y-88396954D02*
X163162157Y-88330287D01*
X163162157Y-88330287D02*
X163162157Y-88163621D01*
X163162157Y-88163621D02*
X163195490Y-88096954D01*
X163195490Y-88096954D02*
X163228823Y-88063621D01*
X163228823Y-88063621D02*
X163295490Y-88030287D01*
X163295490Y-88030287D02*
X163462157Y-88030287D01*
X163462157Y-88030287D02*
X163528823Y-88063621D01*
X163528823Y-88063621D02*
X163562157Y-88096954D01*
X163562157Y-88096954D02*
X163595490Y-88163621D01*
X163595490Y-88163621D02*
X163595490Y-88330287D01*
X163595490Y-88330287D02*
X163562157Y-88396954D01*
X163562157Y-88396954D02*
X163528823Y-88430287D01*
X153562490Y-74631621D02*
X153229157Y-74864954D01*
X153562490Y-75031621D02*
X152862490Y-75031621D01*
X152862490Y-75031621D02*
X152862490Y-74764954D01*
X152862490Y-74764954D02*
X152895823Y-74698288D01*
X152895823Y-74698288D02*
X152929157Y-74664954D01*
X152929157Y-74664954D02*
X152995823Y-74631621D01*
X152995823Y-74631621D02*
X153095823Y-74631621D01*
X153095823Y-74631621D02*
X153162490Y-74664954D01*
X153162490Y-74664954D02*
X153195823Y-74698288D01*
X153195823Y-74698288D02*
X153229157Y-74764954D01*
X153229157Y-74764954D02*
X153229157Y-75031621D01*
X152929157Y-74364954D02*
X152895823Y-74331621D01*
X152895823Y-74331621D02*
X152862490Y-74264954D01*
X152862490Y-74264954D02*
X152862490Y-74098288D01*
X152862490Y-74098288D02*
X152895823Y-74031621D01*
X152895823Y-74031621D02*
X152929157Y-73998288D01*
X152929157Y-73998288D02*
X152995823Y-73964954D01*
X152995823Y-73964954D02*
X153062490Y-73964954D01*
X153062490Y-73964954D02*
X153162490Y-73998288D01*
X153162490Y-73998288D02*
X153562490Y-74398288D01*
X153562490Y-74398288D02*
X153562490Y-73964954D01*
X152862490Y-73331621D02*
X152862490Y-73664954D01*
X152862490Y-73664954D02*
X153195823Y-73698287D01*
X153195823Y-73698287D02*
X153162490Y-73664954D01*
X153162490Y-73664954D02*
X153129157Y-73598287D01*
X153129157Y-73598287D02*
X153129157Y-73431621D01*
X153129157Y-73431621D02*
X153162490Y-73364954D01*
X153162490Y-73364954D02*
X153195823Y-73331621D01*
X153195823Y-73331621D02*
X153262490Y-73298287D01*
X153262490Y-73298287D02*
X153429157Y-73298287D01*
X153429157Y-73298287D02*
X153495823Y-73331621D01*
X153495823Y-73331621D02*
X153529157Y-73364954D01*
X153529157Y-73364954D02*
X153562490Y-73431621D01*
X153562490Y-73431621D02*
X153562490Y-73598287D01*
X153562490Y-73598287D02*
X153529157Y-73664954D01*
X153529157Y-73664954D02*
X153495823Y-73698287D01*
X164738490Y-74631621D02*
X164405157Y-74864954D01*
X164738490Y-75031621D02*
X164038490Y-75031621D01*
X164038490Y-75031621D02*
X164038490Y-74764954D01*
X164038490Y-74764954D02*
X164071823Y-74698288D01*
X164071823Y-74698288D02*
X164105157Y-74664954D01*
X164105157Y-74664954D02*
X164171823Y-74631621D01*
X164171823Y-74631621D02*
X164271823Y-74631621D01*
X164271823Y-74631621D02*
X164338490Y-74664954D01*
X164338490Y-74664954D02*
X164371823Y-74698288D01*
X164371823Y-74698288D02*
X164405157Y-74764954D01*
X164405157Y-74764954D02*
X164405157Y-75031621D01*
X164738490Y-73964954D02*
X164738490Y-74364954D01*
X164738490Y-74164954D02*
X164038490Y-74164954D01*
X164038490Y-74164954D02*
X164138490Y-74231621D01*
X164138490Y-74231621D02*
X164205157Y-74298288D01*
X164205157Y-74298288D02*
X164238490Y-74364954D01*
X164271823Y-73364954D02*
X164738490Y-73364954D01*
X164005157Y-73531621D02*
X164505157Y-73698287D01*
X164505157Y-73698287D02*
X164505157Y-73264954D01*
X172358490Y-81235621D02*
X172025157Y-81468954D01*
X172358490Y-81635621D02*
X171658490Y-81635621D01*
X171658490Y-81635621D02*
X171658490Y-81368954D01*
X171658490Y-81368954D02*
X171691823Y-81302288D01*
X171691823Y-81302288D02*
X171725157Y-81268954D01*
X171725157Y-81268954D02*
X171791823Y-81235621D01*
X171791823Y-81235621D02*
X171891823Y-81235621D01*
X171891823Y-81235621D02*
X171958490Y-81268954D01*
X171958490Y-81268954D02*
X171991823Y-81302288D01*
X171991823Y-81302288D02*
X172025157Y-81368954D01*
X172025157Y-81368954D02*
X172025157Y-81635621D01*
X172358490Y-80568954D02*
X172358490Y-80968954D01*
X172358490Y-80768954D02*
X171658490Y-80768954D01*
X171658490Y-80768954D02*
X171758490Y-80835621D01*
X171758490Y-80835621D02*
X171825157Y-80902288D01*
X171825157Y-80902288D02*
X171858490Y-80968954D01*
X171658490Y-80335621D02*
X171658490Y-79868954D01*
X171658490Y-79868954D02*
X172358490Y-80168954D01*
X141370490Y-87390287D02*
X140670490Y-87390287D01*
X141303823Y-86656954D02*
X141337157Y-86690287D01*
X141337157Y-86690287D02*
X141370490Y-86790287D01*
X141370490Y-86790287D02*
X141370490Y-86856954D01*
X141370490Y-86856954D02*
X141337157Y-86956954D01*
X141337157Y-86956954D02*
X141270490Y-87023621D01*
X141270490Y-87023621D02*
X141203823Y-87056954D01*
X141203823Y-87056954D02*
X141070490Y-87090287D01*
X141070490Y-87090287D02*
X140970490Y-87090287D01*
X140970490Y-87090287D02*
X140837157Y-87056954D01*
X140837157Y-87056954D02*
X140770490Y-87023621D01*
X140770490Y-87023621D02*
X140703823Y-86956954D01*
X140703823Y-86956954D02*
X140670490Y-86856954D01*
X140670490Y-86856954D02*
X140670490Y-86790287D01*
X140670490Y-86790287D02*
X140703823Y-86690287D01*
X140703823Y-86690287D02*
X140737157Y-86656954D01*
X141370490Y-85990287D02*
X141370490Y-86390287D01*
X141370490Y-86190287D02*
X140670490Y-86190287D01*
X140670490Y-86190287D02*
X140770490Y-86256954D01*
X140770490Y-86256954D02*
X140837157Y-86323621D01*
X140837157Y-86323621D02*
X140870490Y-86390287D01*
X141370490Y-85323620D02*
X141370490Y-85723620D01*
X141370490Y-85523620D02*
X140670490Y-85523620D01*
X140670490Y-85523620D02*
X140770490Y-85590287D01*
X140770490Y-85590287D02*
X140837157Y-85656954D01*
X140837157Y-85656954D02*
X140870490Y-85723620D01*
X144605823Y-73540954D02*
X144639157Y-73574287D01*
X144639157Y-73574287D02*
X144672490Y-73674287D01*
X144672490Y-73674287D02*
X144672490Y-73740954D01*
X144672490Y-73740954D02*
X144639157Y-73840954D01*
X144639157Y-73840954D02*
X144572490Y-73907621D01*
X144572490Y-73907621D02*
X144505823Y-73940954D01*
X144505823Y-73940954D02*
X144372490Y-73974287D01*
X144372490Y-73974287D02*
X144272490Y-73974287D01*
X144272490Y-73974287D02*
X144139157Y-73940954D01*
X144139157Y-73940954D02*
X144072490Y-73907621D01*
X144072490Y-73907621D02*
X144005823Y-73840954D01*
X144005823Y-73840954D02*
X143972490Y-73740954D01*
X143972490Y-73740954D02*
X143972490Y-73674287D01*
X143972490Y-73674287D02*
X144005823Y-73574287D01*
X144005823Y-73574287D02*
X144039157Y-73540954D01*
X143972490Y-73307621D02*
X143972490Y-72874287D01*
X143972490Y-72874287D02*
X144239157Y-73107621D01*
X144239157Y-73107621D02*
X144239157Y-73007621D01*
X144239157Y-73007621D02*
X144272490Y-72940954D01*
X144272490Y-72940954D02*
X144305823Y-72907621D01*
X144305823Y-72907621D02*
X144372490Y-72874287D01*
X144372490Y-72874287D02*
X144539157Y-72874287D01*
X144539157Y-72874287D02*
X144605823Y-72907621D01*
X144605823Y-72907621D02*
X144639157Y-72940954D01*
X144639157Y-72940954D02*
X144672490Y-73007621D01*
X144672490Y-73007621D02*
X144672490Y-73207621D01*
X144672490Y-73207621D02*
X144639157Y-73274287D01*
X144639157Y-73274287D02*
X144605823Y-73307621D01*
X144405823Y-72574287D02*
X144405823Y-72040954D01*
X144039157Y-71740953D02*
X144005823Y-71707620D01*
X144005823Y-71707620D02*
X143972490Y-71640953D01*
X143972490Y-71640953D02*
X143972490Y-71474287D01*
X143972490Y-71474287D02*
X144005823Y-71407620D01*
X144005823Y-71407620D02*
X144039157Y-71374287D01*
X144039157Y-71374287D02*
X144105823Y-71340953D01*
X144105823Y-71340953D02*
X144172490Y-71340953D01*
X144172490Y-71340953D02*
X144272490Y-71374287D01*
X144272490Y-71374287D02*
X144672490Y-71774287D01*
X144672490Y-71774287D02*
X144672490Y-71340953D01*
X151844823Y-89363621D02*
X151878157Y-89396954D01*
X151878157Y-89396954D02*
X151911490Y-89496954D01*
X151911490Y-89496954D02*
X151911490Y-89563621D01*
X151911490Y-89563621D02*
X151878157Y-89663621D01*
X151878157Y-89663621D02*
X151811490Y-89730288D01*
X151811490Y-89730288D02*
X151744823Y-89763621D01*
X151744823Y-89763621D02*
X151611490Y-89796954D01*
X151611490Y-89796954D02*
X151511490Y-89796954D01*
X151511490Y-89796954D02*
X151378157Y-89763621D01*
X151378157Y-89763621D02*
X151311490Y-89730288D01*
X151311490Y-89730288D02*
X151244823Y-89663621D01*
X151244823Y-89663621D02*
X151211490Y-89563621D01*
X151211490Y-89563621D02*
X151211490Y-89496954D01*
X151211490Y-89496954D02*
X151244823Y-89396954D01*
X151244823Y-89396954D02*
X151278157Y-89363621D01*
X151911490Y-88696954D02*
X151911490Y-89096954D01*
X151911490Y-88896954D02*
X151211490Y-88896954D01*
X151211490Y-88896954D02*
X151311490Y-88963621D01*
X151311490Y-88963621D02*
X151378157Y-89030288D01*
X151378157Y-89030288D02*
X151411490Y-89096954D01*
X151444823Y-88096954D02*
X151911490Y-88096954D01*
X151178157Y-88263621D02*
X151678157Y-88430287D01*
X151678157Y-88430287D02*
X151678157Y-87996954D01*
X158642490Y-80902287D02*
X158309157Y-81135620D01*
X158642490Y-81302287D02*
X157942490Y-81302287D01*
X157942490Y-81302287D02*
X157942490Y-81035620D01*
X157942490Y-81035620D02*
X157975823Y-80968954D01*
X157975823Y-80968954D02*
X158009157Y-80935620D01*
X158009157Y-80935620D02*
X158075823Y-80902287D01*
X158075823Y-80902287D02*
X158175823Y-80902287D01*
X158175823Y-80902287D02*
X158242490Y-80935620D01*
X158242490Y-80935620D02*
X158275823Y-80968954D01*
X158275823Y-80968954D02*
X158309157Y-81035620D01*
X158309157Y-81035620D02*
X158309157Y-81302287D01*
X158242490Y-80502287D02*
X158209157Y-80568954D01*
X158209157Y-80568954D02*
X158175823Y-80602287D01*
X158175823Y-80602287D02*
X158109157Y-80635620D01*
X158109157Y-80635620D02*
X158075823Y-80635620D01*
X158075823Y-80635620D02*
X158009157Y-80602287D01*
X158009157Y-80602287D02*
X157975823Y-80568954D01*
X157975823Y-80568954D02*
X157942490Y-80502287D01*
X157942490Y-80502287D02*
X157942490Y-80368954D01*
X157942490Y-80368954D02*
X157975823Y-80302287D01*
X157975823Y-80302287D02*
X158009157Y-80268954D01*
X158009157Y-80268954D02*
X158075823Y-80235620D01*
X158075823Y-80235620D02*
X158109157Y-80235620D01*
X158109157Y-80235620D02*
X158175823Y-80268954D01*
X158175823Y-80268954D02*
X158209157Y-80302287D01*
X158209157Y-80302287D02*
X158242490Y-80368954D01*
X158242490Y-80368954D02*
X158242490Y-80502287D01*
X158242490Y-80502287D02*
X158275823Y-80568954D01*
X158275823Y-80568954D02*
X158309157Y-80602287D01*
X158309157Y-80602287D02*
X158375823Y-80635620D01*
X158375823Y-80635620D02*
X158509157Y-80635620D01*
X158509157Y-80635620D02*
X158575823Y-80602287D01*
X158575823Y-80602287D02*
X158609157Y-80568954D01*
X158609157Y-80568954D02*
X158642490Y-80502287D01*
X158642490Y-80502287D02*
X158642490Y-80368954D01*
X158642490Y-80368954D02*
X158609157Y-80302287D01*
X158609157Y-80302287D02*
X158575823Y-80268954D01*
X158575823Y-80268954D02*
X158509157Y-80235620D01*
X158509157Y-80235620D02*
X158375823Y-80235620D01*
X158375823Y-80235620D02*
X158309157Y-80268954D01*
X158309157Y-80268954D02*
X158275823Y-80302287D01*
X158275823Y-80302287D02*
X158242490Y-80368954D01*
X115478823Y-86449621D02*
X115512157Y-86482954D01*
X115512157Y-86482954D02*
X115545490Y-86582954D01*
X115545490Y-86582954D02*
X115545490Y-86649621D01*
X115545490Y-86649621D02*
X115512157Y-86749621D01*
X115512157Y-86749621D02*
X115445490Y-86816288D01*
X115445490Y-86816288D02*
X115378823Y-86849621D01*
X115378823Y-86849621D02*
X115245490Y-86882954D01*
X115245490Y-86882954D02*
X115145490Y-86882954D01*
X115145490Y-86882954D02*
X115012157Y-86849621D01*
X115012157Y-86849621D02*
X114945490Y-86816288D01*
X114945490Y-86816288D02*
X114878823Y-86749621D01*
X114878823Y-86749621D02*
X114845490Y-86649621D01*
X114845490Y-86649621D02*
X114845490Y-86582954D01*
X114845490Y-86582954D02*
X114878823Y-86482954D01*
X114878823Y-86482954D02*
X114912157Y-86449621D01*
X115545490Y-85782954D02*
X115545490Y-86182954D01*
X115545490Y-85982954D02*
X114845490Y-85982954D01*
X114845490Y-85982954D02*
X114945490Y-86049621D01*
X114945490Y-86049621D02*
X115012157Y-86116288D01*
X115012157Y-86116288D02*
X115045490Y-86182954D01*
X114845490Y-85182954D02*
X114845490Y-85316287D01*
X114845490Y-85316287D02*
X114878823Y-85382954D01*
X114878823Y-85382954D02*
X114912157Y-85416287D01*
X114912157Y-85416287D02*
X115012157Y-85482954D01*
X115012157Y-85482954D02*
X115145490Y-85516287D01*
X115145490Y-85516287D02*
X115412157Y-85516287D01*
X115412157Y-85516287D02*
X115478823Y-85482954D01*
X115478823Y-85482954D02*
X115512157Y-85449621D01*
X115512157Y-85449621D02*
X115545490Y-85382954D01*
X115545490Y-85382954D02*
X115545490Y-85249621D01*
X115545490Y-85249621D02*
X115512157Y-85182954D01*
X115512157Y-85182954D02*
X115478823Y-85149621D01*
X115478823Y-85149621D02*
X115412157Y-85116287D01*
X115412157Y-85116287D02*
X115245490Y-85116287D01*
X115245490Y-85116287D02*
X115178823Y-85149621D01*
X115178823Y-85149621D02*
X115145490Y-85182954D01*
X115145490Y-85182954D02*
X115112157Y-85249621D01*
X115112157Y-85249621D02*
X115112157Y-85382954D01*
X115112157Y-85382954D02*
X115145490Y-85449621D01*
X115145490Y-85449621D02*
X115178823Y-85482954D01*
X115178823Y-85482954D02*
X115245490Y-85516287D01*
X169818490Y-80902287D02*
X169485157Y-81135620D01*
X169818490Y-81302287D02*
X169118490Y-81302287D01*
X169118490Y-81302287D02*
X169118490Y-81035620D01*
X169118490Y-81035620D02*
X169151823Y-80968954D01*
X169151823Y-80968954D02*
X169185157Y-80935620D01*
X169185157Y-80935620D02*
X169251823Y-80902287D01*
X169251823Y-80902287D02*
X169351823Y-80902287D01*
X169351823Y-80902287D02*
X169418490Y-80935620D01*
X169418490Y-80935620D02*
X169451823Y-80968954D01*
X169451823Y-80968954D02*
X169485157Y-81035620D01*
X169485157Y-81035620D02*
X169485157Y-81302287D01*
X169351823Y-80302287D02*
X169818490Y-80302287D01*
X169085157Y-80468954D02*
X169585157Y-80635620D01*
X169585157Y-80635620D02*
X169585157Y-80202287D01*
X164738490Y-77933621D02*
X164405157Y-78166954D01*
X164738490Y-78333621D02*
X164038490Y-78333621D01*
X164038490Y-78333621D02*
X164038490Y-78066954D01*
X164038490Y-78066954D02*
X164071823Y-78000288D01*
X164071823Y-78000288D02*
X164105157Y-77966954D01*
X164105157Y-77966954D02*
X164171823Y-77933621D01*
X164171823Y-77933621D02*
X164271823Y-77933621D01*
X164271823Y-77933621D02*
X164338490Y-77966954D01*
X164338490Y-77966954D02*
X164371823Y-78000288D01*
X164371823Y-78000288D02*
X164405157Y-78066954D01*
X164405157Y-78066954D02*
X164405157Y-78333621D01*
X164738490Y-77266954D02*
X164738490Y-77666954D01*
X164738490Y-77466954D02*
X164038490Y-77466954D01*
X164038490Y-77466954D02*
X164138490Y-77533621D01*
X164138490Y-77533621D02*
X164205157Y-77600288D01*
X164205157Y-77600288D02*
X164238490Y-77666954D01*
X164738490Y-76933621D02*
X164738490Y-76800287D01*
X164738490Y-76800287D02*
X164705157Y-76733621D01*
X164705157Y-76733621D02*
X164671823Y-76700287D01*
X164671823Y-76700287D02*
X164571823Y-76633621D01*
X164571823Y-76633621D02*
X164438490Y-76600287D01*
X164438490Y-76600287D02*
X164171823Y-76600287D01*
X164171823Y-76600287D02*
X164105157Y-76633621D01*
X164105157Y-76633621D02*
X164071823Y-76666954D01*
X164071823Y-76666954D02*
X164038490Y-76733621D01*
X164038490Y-76733621D02*
X164038490Y-76866954D01*
X164038490Y-76866954D02*
X164071823Y-76933621D01*
X164071823Y-76933621D02*
X164105157Y-76966954D01*
X164105157Y-76966954D02*
X164171823Y-77000287D01*
X164171823Y-77000287D02*
X164338490Y-77000287D01*
X164338490Y-77000287D02*
X164405157Y-76966954D01*
X164405157Y-76966954D02*
X164438490Y-76933621D01*
X164438490Y-76933621D02*
X164471823Y-76866954D01*
X164471823Y-76866954D02*
X164471823Y-76733621D01*
X164471823Y-76733621D02*
X164438490Y-76666954D01*
X164438490Y-76666954D02*
X164405157Y-76633621D01*
X164405157Y-76633621D02*
X164338490Y-76600287D01*
X140160823Y-81489621D02*
X140194157Y-81522954D01*
X140194157Y-81522954D02*
X140227490Y-81622954D01*
X140227490Y-81622954D02*
X140227490Y-81689621D01*
X140227490Y-81689621D02*
X140194157Y-81789621D01*
X140194157Y-81789621D02*
X140127490Y-81856288D01*
X140127490Y-81856288D02*
X140060823Y-81889621D01*
X140060823Y-81889621D02*
X139927490Y-81922954D01*
X139927490Y-81922954D02*
X139827490Y-81922954D01*
X139827490Y-81922954D02*
X139694157Y-81889621D01*
X139694157Y-81889621D02*
X139627490Y-81856288D01*
X139627490Y-81856288D02*
X139560823Y-81789621D01*
X139560823Y-81789621D02*
X139527490Y-81689621D01*
X139527490Y-81689621D02*
X139527490Y-81622954D01*
X139527490Y-81622954D02*
X139560823Y-81522954D01*
X139560823Y-81522954D02*
X139594157Y-81489621D01*
X140227490Y-80822954D02*
X140227490Y-81222954D01*
X140227490Y-81022954D02*
X139527490Y-81022954D01*
X139527490Y-81022954D02*
X139627490Y-81089621D01*
X139627490Y-81089621D02*
X139694157Y-81156288D01*
X139694157Y-81156288D02*
X139727490Y-81222954D01*
X139527490Y-80589621D02*
X139527490Y-80156287D01*
X139527490Y-80156287D02*
X139794157Y-80389621D01*
X139794157Y-80389621D02*
X139794157Y-80289621D01*
X139794157Y-80289621D02*
X139827490Y-80222954D01*
X139827490Y-80222954D02*
X139860823Y-80189621D01*
X139860823Y-80189621D02*
X139927490Y-80156287D01*
X139927490Y-80156287D02*
X140094157Y-80156287D01*
X140094157Y-80156287D02*
X140160823Y-80189621D01*
X140160823Y-80189621D02*
X140194157Y-80222954D01*
X140194157Y-80222954D02*
X140227490Y-80289621D01*
X140227490Y-80289621D02*
X140227490Y-80489621D01*
X140227490Y-80489621D02*
X140194157Y-80556287D01*
X140194157Y-80556287D02*
X140160823Y-80589621D01*
X117085490Y-92978287D02*
X116385490Y-92978287D01*
X117018823Y-92244954D02*
X117052157Y-92278287D01*
X117052157Y-92278287D02*
X117085490Y-92378287D01*
X117085490Y-92378287D02*
X117085490Y-92444954D01*
X117085490Y-92444954D02*
X117052157Y-92544954D01*
X117052157Y-92544954D02*
X116985490Y-92611621D01*
X116985490Y-92611621D02*
X116918823Y-92644954D01*
X116918823Y-92644954D02*
X116785490Y-92678287D01*
X116785490Y-92678287D02*
X116685490Y-92678287D01*
X116685490Y-92678287D02*
X116552157Y-92644954D01*
X116552157Y-92644954D02*
X116485490Y-92611621D01*
X116485490Y-92611621D02*
X116418823Y-92544954D01*
X116418823Y-92544954D02*
X116385490Y-92444954D01*
X116385490Y-92444954D02*
X116385490Y-92378287D01*
X116385490Y-92378287D02*
X116418823Y-92278287D01*
X116418823Y-92278287D02*
X116452157Y-92244954D01*
X117085490Y-91578287D02*
X117085490Y-91978287D01*
X117085490Y-91778287D02*
X116385490Y-91778287D01*
X116385490Y-91778287D02*
X116485490Y-91844954D01*
X116485490Y-91844954D02*
X116552157Y-91911621D01*
X116552157Y-91911621D02*
X116585490Y-91978287D01*
X116385490Y-90978287D02*
X116385490Y-91111620D01*
X116385490Y-91111620D02*
X116418823Y-91178287D01*
X116418823Y-91178287D02*
X116452157Y-91211620D01*
X116452157Y-91211620D02*
X116552157Y-91278287D01*
X116552157Y-91278287D02*
X116685490Y-91311620D01*
X116685490Y-91311620D02*
X116952157Y-91311620D01*
X116952157Y-91311620D02*
X117018823Y-91278287D01*
X117018823Y-91278287D02*
X117052157Y-91244954D01*
X117052157Y-91244954D02*
X117085490Y-91178287D01*
X117085490Y-91178287D02*
X117085490Y-91044954D01*
X117085490Y-91044954D02*
X117052157Y-90978287D01*
X117052157Y-90978287D02*
X117018823Y-90944954D01*
X117018823Y-90944954D02*
X116952157Y-90911620D01*
X116952157Y-90911620D02*
X116785490Y-90911620D01*
X116785490Y-90911620D02*
X116718823Y-90944954D01*
X116718823Y-90944954D02*
X116685490Y-90978287D01*
X116685490Y-90978287D02*
X116652157Y-91044954D01*
X116652157Y-91044954D02*
X116652157Y-91178287D01*
X116652157Y-91178287D02*
X116685490Y-91244954D01*
X116685490Y-91244954D02*
X116718823Y-91278287D01*
X116718823Y-91278287D02*
X116785490Y-91311620D01*
X99507494Y-107336287D02*
X98807494Y-107336287D01*
X99440827Y-106602954D02*
X99474161Y-106636287D01*
X99474161Y-106636287D02*
X99507494Y-106736287D01*
X99507494Y-106736287D02*
X99507494Y-106802954D01*
X99507494Y-106802954D02*
X99474161Y-106902954D01*
X99474161Y-106902954D02*
X99407494Y-106969621D01*
X99407494Y-106969621D02*
X99340827Y-107002954D01*
X99340827Y-107002954D02*
X99207494Y-107036287D01*
X99207494Y-107036287D02*
X99107494Y-107036287D01*
X99107494Y-107036287D02*
X98974161Y-107002954D01*
X98974161Y-107002954D02*
X98907494Y-106969621D01*
X98907494Y-106969621D02*
X98840827Y-106902954D01*
X98840827Y-106902954D02*
X98807494Y-106802954D01*
X98807494Y-106802954D02*
X98807494Y-106736287D01*
X98807494Y-106736287D02*
X98840827Y-106636287D01*
X98840827Y-106636287D02*
X98874161Y-106602954D01*
X99507494Y-105936287D02*
X99507494Y-106336287D01*
X99507494Y-106136287D02*
X98807494Y-106136287D01*
X98807494Y-106136287D02*
X98907494Y-106202954D01*
X98907494Y-106202954D02*
X98974161Y-106269621D01*
X98974161Y-106269621D02*
X99007494Y-106336287D01*
X98807494Y-105502954D02*
X98807494Y-105436287D01*
X98807494Y-105436287D02*
X98840827Y-105369620D01*
X98840827Y-105369620D02*
X98874161Y-105336287D01*
X98874161Y-105336287D02*
X98940827Y-105302954D01*
X98940827Y-105302954D02*
X99074161Y-105269620D01*
X99074161Y-105269620D02*
X99240827Y-105269620D01*
X99240827Y-105269620D02*
X99374161Y-105302954D01*
X99374161Y-105302954D02*
X99440827Y-105336287D01*
X99440827Y-105336287D02*
X99474161Y-105369620D01*
X99474161Y-105369620D02*
X99507494Y-105436287D01*
X99507494Y-105436287D02*
X99507494Y-105502954D01*
X99507494Y-105502954D02*
X99474161Y-105569620D01*
X99474161Y-105569620D02*
X99440827Y-105602954D01*
X99440827Y-105602954D02*
X99374161Y-105636287D01*
X99374161Y-105636287D02*
X99240827Y-105669620D01*
X99240827Y-105669620D02*
X99074161Y-105669620D01*
X99074161Y-105669620D02*
X98940827Y-105636287D01*
X98940827Y-105636287D02*
X98874161Y-105602954D01*
X98874161Y-105602954D02*
X98840827Y-105569620D01*
X98840827Y-105569620D02*
X98807494Y-105502954D01*
X164738490Y-81235621D02*
X164405157Y-81468954D01*
X164738490Y-81635621D02*
X164038490Y-81635621D01*
X164038490Y-81635621D02*
X164038490Y-81368954D01*
X164038490Y-81368954D02*
X164071823Y-81302288D01*
X164071823Y-81302288D02*
X164105157Y-81268954D01*
X164105157Y-81268954D02*
X164171823Y-81235621D01*
X164171823Y-81235621D02*
X164271823Y-81235621D01*
X164271823Y-81235621D02*
X164338490Y-81268954D01*
X164338490Y-81268954D02*
X164371823Y-81302288D01*
X164371823Y-81302288D02*
X164405157Y-81368954D01*
X164405157Y-81368954D02*
X164405157Y-81635621D01*
X164105157Y-80968954D02*
X164071823Y-80935621D01*
X164071823Y-80935621D02*
X164038490Y-80868954D01*
X164038490Y-80868954D02*
X164038490Y-80702288D01*
X164038490Y-80702288D02*
X164071823Y-80635621D01*
X164071823Y-80635621D02*
X164105157Y-80602288D01*
X164105157Y-80602288D02*
X164171823Y-80568954D01*
X164171823Y-80568954D02*
X164238490Y-80568954D01*
X164238490Y-80568954D02*
X164338490Y-80602288D01*
X164338490Y-80602288D02*
X164738490Y-81002288D01*
X164738490Y-81002288D02*
X164738490Y-80568954D01*
X164738490Y-79902287D02*
X164738490Y-80302287D01*
X164738490Y-80102287D02*
X164038490Y-80102287D01*
X164038490Y-80102287D02*
X164138490Y-80168954D01*
X164138490Y-80168954D02*
X164205157Y-80235621D01*
X164205157Y-80235621D02*
X164238490Y-80302287D01*
X104666823Y-116421621D02*
X104700157Y-116454954D01*
X104700157Y-116454954D02*
X104733490Y-116554954D01*
X104733490Y-116554954D02*
X104733490Y-116621621D01*
X104733490Y-116621621D02*
X104700157Y-116721621D01*
X104700157Y-116721621D02*
X104633490Y-116788288D01*
X104633490Y-116788288D02*
X104566823Y-116821621D01*
X104566823Y-116821621D02*
X104433490Y-116854954D01*
X104433490Y-116854954D02*
X104333490Y-116854954D01*
X104333490Y-116854954D02*
X104200157Y-116821621D01*
X104200157Y-116821621D02*
X104133490Y-116788288D01*
X104133490Y-116788288D02*
X104066823Y-116721621D01*
X104066823Y-116721621D02*
X104033490Y-116621621D01*
X104033490Y-116621621D02*
X104033490Y-116554954D01*
X104033490Y-116554954D02*
X104066823Y-116454954D01*
X104066823Y-116454954D02*
X104100157Y-116421621D01*
X104733490Y-115754954D02*
X104733490Y-116154954D01*
X104733490Y-115954954D02*
X104033490Y-115954954D01*
X104033490Y-115954954D02*
X104133490Y-116021621D01*
X104133490Y-116021621D02*
X104200157Y-116088288D01*
X104200157Y-116088288D02*
X104233490Y-116154954D01*
X104033490Y-115521621D02*
X104033490Y-115054954D01*
X104033490Y-115054954D02*
X104733490Y-115354954D01*
X158642490Y-77933621D02*
X158309157Y-78166954D01*
X158642490Y-78333621D02*
X157942490Y-78333621D01*
X157942490Y-78333621D02*
X157942490Y-78066954D01*
X157942490Y-78066954D02*
X157975823Y-78000288D01*
X157975823Y-78000288D02*
X158009157Y-77966954D01*
X158009157Y-77966954D02*
X158075823Y-77933621D01*
X158075823Y-77933621D02*
X158175823Y-77933621D01*
X158175823Y-77933621D02*
X158242490Y-77966954D01*
X158242490Y-77966954D02*
X158275823Y-78000288D01*
X158275823Y-78000288D02*
X158309157Y-78066954D01*
X158309157Y-78066954D02*
X158309157Y-78333621D01*
X158642490Y-77266954D02*
X158642490Y-77666954D01*
X158642490Y-77466954D02*
X157942490Y-77466954D01*
X157942490Y-77466954D02*
X158042490Y-77533621D01*
X158042490Y-77533621D02*
X158109157Y-77600288D01*
X158109157Y-77600288D02*
X158142490Y-77666954D01*
X158642490Y-76600287D02*
X158642490Y-77000287D01*
X158642490Y-76800287D02*
X157942490Y-76800287D01*
X157942490Y-76800287D02*
X158042490Y-76866954D01*
X158042490Y-76866954D02*
X158109157Y-76933621D01*
X158109157Y-76933621D02*
X158142490Y-77000287D01*
X167278490Y-77933621D02*
X166945157Y-78166954D01*
X167278490Y-78333621D02*
X166578490Y-78333621D01*
X166578490Y-78333621D02*
X166578490Y-78066954D01*
X166578490Y-78066954D02*
X166611823Y-78000288D01*
X166611823Y-78000288D02*
X166645157Y-77966954D01*
X166645157Y-77966954D02*
X166711823Y-77933621D01*
X166711823Y-77933621D02*
X166811823Y-77933621D01*
X166811823Y-77933621D02*
X166878490Y-77966954D01*
X166878490Y-77966954D02*
X166911823Y-78000288D01*
X166911823Y-78000288D02*
X166945157Y-78066954D01*
X166945157Y-78066954D02*
X166945157Y-78333621D01*
X166645157Y-77666954D02*
X166611823Y-77633621D01*
X166611823Y-77633621D02*
X166578490Y-77566954D01*
X166578490Y-77566954D02*
X166578490Y-77400288D01*
X166578490Y-77400288D02*
X166611823Y-77333621D01*
X166611823Y-77333621D02*
X166645157Y-77300288D01*
X166645157Y-77300288D02*
X166711823Y-77266954D01*
X166711823Y-77266954D02*
X166778490Y-77266954D01*
X166778490Y-77266954D02*
X166878490Y-77300288D01*
X166878490Y-77300288D02*
X167278490Y-77700288D01*
X167278490Y-77700288D02*
X167278490Y-77266954D01*
X166645157Y-77000287D02*
X166611823Y-76966954D01*
X166611823Y-76966954D02*
X166578490Y-76900287D01*
X166578490Y-76900287D02*
X166578490Y-76733621D01*
X166578490Y-76733621D02*
X166611823Y-76666954D01*
X166611823Y-76666954D02*
X166645157Y-76633621D01*
X166645157Y-76633621D02*
X166711823Y-76600287D01*
X166711823Y-76600287D02*
X166778490Y-76600287D01*
X166778490Y-76600287D02*
X166878490Y-76633621D01*
X166878490Y-76633621D02*
X167278490Y-77033621D01*
X167278490Y-77033621D02*
X167278490Y-76600287D01*
X136931823Y-111774954D02*
X136965157Y-111808287D01*
X136965157Y-111808287D02*
X136998490Y-111908287D01*
X136998490Y-111908287D02*
X136998490Y-111974954D01*
X136998490Y-111974954D02*
X136965157Y-112074954D01*
X136965157Y-112074954D02*
X136898490Y-112141621D01*
X136898490Y-112141621D02*
X136831823Y-112174954D01*
X136831823Y-112174954D02*
X136698490Y-112208287D01*
X136698490Y-112208287D02*
X136598490Y-112208287D01*
X136598490Y-112208287D02*
X136465157Y-112174954D01*
X136465157Y-112174954D02*
X136398490Y-112141621D01*
X136398490Y-112141621D02*
X136331823Y-112074954D01*
X136331823Y-112074954D02*
X136298490Y-111974954D01*
X136298490Y-111974954D02*
X136298490Y-111908287D01*
X136298490Y-111908287D02*
X136331823Y-111808287D01*
X136331823Y-111808287D02*
X136365157Y-111774954D01*
X136298490Y-111141621D02*
X136298490Y-111474954D01*
X136298490Y-111474954D02*
X136631823Y-111508287D01*
X136631823Y-111508287D02*
X136598490Y-111474954D01*
X136598490Y-111474954D02*
X136565157Y-111408287D01*
X136565157Y-111408287D02*
X136565157Y-111241621D01*
X136565157Y-111241621D02*
X136598490Y-111174954D01*
X136598490Y-111174954D02*
X136631823Y-111141621D01*
X136631823Y-111141621D02*
X136698490Y-111108287D01*
X136698490Y-111108287D02*
X136865157Y-111108287D01*
X136865157Y-111108287D02*
X136931823Y-111141621D01*
X136931823Y-111141621D02*
X136965157Y-111174954D01*
X136965157Y-111174954D02*
X136998490Y-111241621D01*
X136998490Y-111241621D02*
X136998490Y-111408287D01*
X136998490Y-111408287D02*
X136965157Y-111474954D01*
X136965157Y-111474954D02*
X136931823Y-111508287D01*
X136731823Y-110808287D02*
X136731823Y-110274954D01*
X136998490Y-109574953D02*
X136998490Y-109974953D01*
X136998490Y-109774953D02*
X136298490Y-109774953D01*
X136298490Y-109774953D02*
X136398490Y-109841620D01*
X136398490Y-109841620D02*
X136465157Y-109908287D01*
X136465157Y-109908287D02*
X136498490Y-109974953D01*
X175085823Y-89363621D02*
X175119157Y-89396954D01*
X175119157Y-89396954D02*
X175152490Y-89496954D01*
X175152490Y-89496954D02*
X175152490Y-89563621D01*
X175152490Y-89563621D02*
X175119157Y-89663621D01*
X175119157Y-89663621D02*
X175052490Y-89730288D01*
X175052490Y-89730288D02*
X174985823Y-89763621D01*
X174985823Y-89763621D02*
X174852490Y-89796954D01*
X174852490Y-89796954D02*
X174752490Y-89796954D01*
X174752490Y-89796954D02*
X174619157Y-89763621D01*
X174619157Y-89763621D02*
X174552490Y-89730288D01*
X174552490Y-89730288D02*
X174485823Y-89663621D01*
X174485823Y-89663621D02*
X174452490Y-89563621D01*
X174452490Y-89563621D02*
X174452490Y-89496954D01*
X174452490Y-89496954D02*
X174485823Y-89396954D01*
X174485823Y-89396954D02*
X174519157Y-89363621D01*
X175152490Y-88696954D02*
X175152490Y-89096954D01*
X175152490Y-88896954D02*
X174452490Y-88896954D01*
X174452490Y-88896954D02*
X174552490Y-88963621D01*
X174552490Y-88963621D02*
X174619157Y-89030288D01*
X174619157Y-89030288D02*
X174652490Y-89096954D01*
X174519157Y-88430287D02*
X174485823Y-88396954D01*
X174485823Y-88396954D02*
X174452490Y-88330287D01*
X174452490Y-88330287D02*
X174452490Y-88163621D01*
X174452490Y-88163621D02*
X174485823Y-88096954D01*
X174485823Y-88096954D02*
X174519157Y-88063621D01*
X174519157Y-88063621D02*
X174585823Y-88030287D01*
X174585823Y-88030287D02*
X174652490Y-88030287D01*
X174652490Y-88030287D02*
X174752490Y-88063621D01*
X174752490Y-88063621D02*
X175152490Y-88463621D01*
X175152490Y-88463621D02*
X175152490Y-88030287D01*
X110762823Y-116421621D02*
X110796157Y-116454954D01*
X110796157Y-116454954D02*
X110829490Y-116554954D01*
X110829490Y-116554954D02*
X110829490Y-116621621D01*
X110829490Y-116621621D02*
X110796157Y-116721621D01*
X110796157Y-116721621D02*
X110729490Y-116788288D01*
X110729490Y-116788288D02*
X110662823Y-116821621D01*
X110662823Y-116821621D02*
X110529490Y-116854954D01*
X110529490Y-116854954D02*
X110429490Y-116854954D01*
X110429490Y-116854954D02*
X110296157Y-116821621D01*
X110296157Y-116821621D02*
X110229490Y-116788288D01*
X110229490Y-116788288D02*
X110162823Y-116721621D01*
X110162823Y-116721621D02*
X110129490Y-116621621D01*
X110129490Y-116621621D02*
X110129490Y-116554954D01*
X110129490Y-116554954D02*
X110162823Y-116454954D01*
X110162823Y-116454954D02*
X110196157Y-116421621D01*
X110829490Y-115754954D02*
X110829490Y-116154954D01*
X110829490Y-115954954D02*
X110129490Y-115954954D01*
X110129490Y-115954954D02*
X110229490Y-116021621D01*
X110229490Y-116021621D02*
X110296157Y-116088288D01*
X110296157Y-116088288D02*
X110329490Y-116154954D01*
X110429490Y-115354954D02*
X110396157Y-115421621D01*
X110396157Y-115421621D02*
X110362823Y-115454954D01*
X110362823Y-115454954D02*
X110296157Y-115488287D01*
X110296157Y-115488287D02*
X110262823Y-115488287D01*
X110262823Y-115488287D02*
X110196157Y-115454954D01*
X110196157Y-115454954D02*
X110162823Y-115421621D01*
X110162823Y-115421621D02*
X110129490Y-115354954D01*
X110129490Y-115354954D02*
X110129490Y-115221621D01*
X110129490Y-115221621D02*
X110162823Y-115154954D01*
X110162823Y-115154954D02*
X110196157Y-115121621D01*
X110196157Y-115121621D02*
X110262823Y-115088287D01*
X110262823Y-115088287D02*
X110296157Y-115088287D01*
X110296157Y-115088287D02*
X110362823Y-115121621D01*
X110362823Y-115121621D02*
X110396157Y-115154954D01*
X110396157Y-115154954D02*
X110429490Y-115221621D01*
X110429490Y-115221621D02*
X110429490Y-115354954D01*
X110429490Y-115354954D02*
X110462823Y-115421621D01*
X110462823Y-115421621D02*
X110496157Y-115454954D01*
X110496157Y-115454954D02*
X110562823Y-115488287D01*
X110562823Y-115488287D02*
X110696157Y-115488287D01*
X110696157Y-115488287D02*
X110762823Y-115454954D01*
X110762823Y-115454954D02*
X110796157Y-115421621D01*
X110796157Y-115421621D02*
X110829490Y-115354954D01*
X110829490Y-115354954D02*
X110829490Y-115221621D01*
X110829490Y-115221621D02*
X110796157Y-115154954D01*
X110796157Y-115154954D02*
X110762823Y-115121621D01*
X110762823Y-115121621D02*
X110696157Y-115088287D01*
X110696157Y-115088287D02*
X110562823Y-115088287D01*
X110562823Y-115088287D02*
X110496157Y-115121621D01*
X110496157Y-115121621D02*
X110462823Y-115154954D01*
X110462823Y-115154954D02*
X110429490Y-115221621D01*
X162198490Y-81235621D02*
X161865157Y-81468954D01*
X162198490Y-81635621D02*
X161498490Y-81635621D01*
X161498490Y-81635621D02*
X161498490Y-81368954D01*
X161498490Y-81368954D02*
X161531823Y-81302288D01*
X161531823Y-81302288D02*
X161565157Y-81268954D01*
X161565157Y-81268954D02*
X161631823Y-81235621D01*
X161631823Y-81235621D02*
X161731823Y-81235621D01*
X161731823Y-81235621D02*
X161798490Y-81268954D01*
X161798490Y-81268954D02*
X161831823Y-81302288D01*
X161831823Y-81302288D02*
X161865157Y-81368954D01*
X161865157Y-81368954D02*
X161865157Y-81635621D01*
X162198490Y-80568954D02*
X162198490Y-80968954D01*
X162198490Y-80768954D02*
X161498490Y-80768954D01*
X161498490Y-80768954D02*
X161598490Y-80835621D01*
X161598490Y-80835621D02*
X161665157Y-80902288D01*
X161665157Y-80902288D02*
X161698490Y-80968954D01*
X161565157Y-80302287D02*
X161531823Y-80268954D01*
X161531823Y-80268954D02*
X161498490Y-80202287D01*
X161498490Y-80202287D02*
X161498490Y-80035621D01*
X161498490Y-80035621D02*
X161531823Y-79968954D01*
X161531823Y-79968954D02*
X161565157Y-79935621D01*
X161565157Y-79935621D02*
X161631823Y-79902287D01*
X161631823Y-79902287D02*
X161698490Y-79902287D01*
X161698490Y-79902287D02*
X161798490Y-79935621D01*
X161798490Y-79935621D02*
X162198490Y-80335621D01*
X162198490Y-80335621D02*
X162198490Y-79902287D01*
X153562490Y-77600287D02*
X153229157Y-77833620D01*
X153562490Y-78000287D02*
X152862490Y-78000287D01*
X152862490Y-78000287D02*
X152862490Y-77733620D01*
X152862490Y-77733620D02*
X152895823Y-77666954D01*
X152895823Y-77666954D02*
X152929157Y-77633620D01*
X152929157Y-77633620D02*
X152995823Y-77600287D01*
X152995823Y-77600287D02*
X153095823Y-77600287D01*
X153095823Y-77600287D02*
X153162490Y-77633620D01*
X153162490Y-77633620D02*
X153195823Y-77666954D01*
X153195823Y-77666954D02*
X153229157Y-77733620D01*
X153229157Y-77733620D02*
X153229157Y-78000287D01*
X152929157Y-77333620D02*
X152895823Y-77300287D01*
X152895823Y-77300287D02*
X152862490Y-77233620D01*
X152862490Y-77233620D02*
X152862490Y-77066954D01*
X152862490Y-77066954D02*
X152895823Y-77000287D01*
X152895823Y-77000287D02*
X152929157Y-76966954D01*
X152929157Y-76966954D02*
X152995823Y-76933620D01*
X152995823Y-76933620D02*
X153062490Y-76933620D01*
X153062490Y-76933620D02*
X153162490Y-76966954D01*
X153162490Y-76966954D02*
X153562490Y-77366954D01*
X153562490Y-77366954D02*
X153562490Y-76933620D01*
X162198490Y-77600287D02*
X161865157Y-77833620D01*
X162198490Y-78000287D02*
X161498490Y-78000287D01*
X161498490Y-78000287D02*
X161498490Y-77733620D01*
X161498490Y-77733620D02*
X161531823Y-77666954D01*
X161531823Y-77666954D02*
X161565157Y-77633620D01*
X161565157Y-77633620D02*
X161631823Y-77600287D01*
X161631823Y-77600287D02*
X161731823Y-77600287D01*
X161731823Y-77600287D02*
X161798490Y-77633620D01*
X161798490Y-77633620D02*
X161831823Y-77666954D01*
X161831823Y-77666954D02*
X161865157Y-77733620D01*
X161865157Y-77733620D02*
X161865157Y-78000287D01*
X162198490Y-77266954D02*
X162198490Y-77133620D01*
X162198490Y-77133620D02*
X162165157Y-77066954D01*
X162165157Y-77066954D02*
X162131823Y-77033620D01*
X162131823Y-77033620D02*
X162031823Y-76966954D01*
X162031823Y-76966954D02*
X161898490Y-76933620D01*
X161898490Y-76933620D02*
X161631823Y-76933620D01*
X161631823Y-76933620D02*
X161565157Y-76966954D01*
X161565157Y-76966954D02*
X161531823Y-77000287D01*
X161531823Y-77000287D02*
X161498490Y-77066954D01*
X161498490Y-77066954D02*
X161498490Y-77200287D01*
X161498490Y-77200287D02*
X161531823Y-77266954D01*
X161531823Y-77266954D02*
X161565157Y-77300287D01*
X161565157Y-77300287D02*
X161631823Y-77333620D01*
X161631823Y-77333620D02*
X161798490Y-77333620D01*
X161798490Y-77333620D02*
X161865157Y-77300287D01*
X161865157Y-77300287D02*
X161898490Y-77266954D01*
X161898490Y-77266954D02*
X161931823Y-77200287D01*
X161931823Y-77200287D02*
X161931823Y-77066954D01*
X161931823Y-77066954D02*
X161898490Y-77000287D01*
X161898490Y-77000287D02*
X161865157Y-76966954D01*
X161865157Y-76966954D02*
X161798490Y-76933620D01*
X139090823Y-111341621D02*
X139124157Y-111374954D01*
X139124157Y-111374954D02*
X139157490Y-111474954D01*
X139157490Y-111474954D02*
X139157490Y-111541621D01*
X139157490Y-111541621D02*
X139124157Y-111641621D01*
X139124157Y-111641621D02*
X139057490Y-111708288D01*
X139057490Y-111708288D02*
X138990823Y-111741621D01*
X138990823Y-111741621D02*
X138857490Y-111774954D01*
X138857490Y-111774954D02*
X138757490Y-111774954D01*
X138757490Y-111774954D02*
X138624157Y-111741621D01*
X138624157Y-111741621D02*
X138557490Y-111708288D01*
X138557490Y-111708288D02*
X138490823Y-111641621D01*
X138490823Y-111641621D02*
X138457490Y-111541621D01*
X138457490Y-111541621D02*
X138457490Y-111474954D01*
X138457490Y-111474954D02*
X138490823Y-111374954D01*
X138490823Y-111374954D02*
X138524157Y-111341621D01*
X139157490Y-110674954D02*
X139157490Y-111074954D01*
X139157490Y-110874954D02*
X138457490Y-110874954D01*
X138457490Y-110874954D02*
X138557490Y-110941621D01*
X138557490Y-110941621D02*
X138624157Y-111008288D01*
X138624157Y-111008288D02*
X138657490Y-111074954D01*
X138457490Y-110241621D02*
X138457490Y-110174954D01*
X138457490Y-110174954D02*
X138490823Y-110108287D01*
X138490823Y-110108287D02*
X138524157Y-110074954D01*
X138524157Y-110074954D02*
X138590823Y-110041621D01*
X138590823Y-110041621D02*
X138724157Y-110008287D01*
X138724157Y-110008287D02*
X138890823Y-110008287D01*
X138890823Y-110008287D02*
X139024157Y-110041621D01*
X139024157Y-110041621D02*
X139090823Y-110074954D01*
X139090823Y-110074954D02*
X139124157Y-110108287D01*
X139124157Y-110108287D02*
X139157490Y-110174954D01*
X139157490Y-110174954D02*
X139157490Y-110241621D01*
X139157490Y-110241621D02*
X139124157Y-110308287D01*
X139124157Y-110308287D02*
X139090823Y-110341621D01*
X139090823Y-110341621D02*
X139024157Y-110374954D01*
X139024157Y-110374954D02*
X138890823Y-110408287D01*
X138890823Y-110408287D02*
X138724157Y-110408287D01*
X138724157Y-110408287D02*
X138590823Y-110374954D01*
X138590823Y-110374954D02*
X138524157Y-110341621D01*
X138524157Y-110341621D02*
X138490823Y-110308287D01*
X138490823Y-110308287D02*
X138457490Y-110241621D01*
X177438490Y-74631621D02*
X177105157Y-74864954D01*
X177438490Y-75031621D02*
X176738490Y-75031621D01*
X176738490Y-75031621D02*
X176738490Y-74764954D01*
X176738490Y-74764954D02*
X176771823Y-74698288D01*
X176771823Y-74698288D02*
X176805157Y-74664954D01*
X176805157Y-74664954D02*
X176871823Y-74631621D01*
X176871823Y-74631621D02*
X176971823Y-74631621D01*
X176971823Y-74631621D02*
X177038490Y-74664954D01*
X177038490Y-74664954D02*
X177071823Y-74698288D01*
X177071823Y-74698288D02*
X177105157Y-74764954D01*
X177105157Y-74764954D02*
X177105157Y-75031621D01*
X176805157Y-74364954D02*
X176771823Y-74331621D01*
X176771823Y-74331621D02*
X176738490Y-74264954D01*
X176738490Y-74264954D02*
X176738490Y-74098288D01*
X176738490Y-74098288D02*
X176771823Y-74031621D01*
X176771823Y-74031621D02*
X176805157Y-73998288D01*
X176805157Y-73998288D02*
X176871823Y-73964954D01*
X176871823Y-73964954D02*
X176938490Y-73964954D01*
X176938490Y-73964954D02*
X177038490Y-73998288D01*
X177038490Y-73998288D02*
X177438490Y-74398288D01*
X177438490Y-74398288D02*
X177438490Y-73964954D01*
X176738490Y-73364954D02*
X176738490Y-73498287D01*
X176738490Y-73498287D02*
X176771823Y-73564954D01*
X176771823Y-73564954D02*
X176805157Y-73598287D01*
X176805157Y-73598287D02*
X176905157Y-73664954D01*
X176905157Y-73664954D02*
X177038490Y-73698287D01*
X177038490Y-73698287D02*
X177305157Y-73698287D01*
X177305157Y-73698287D02*
X177371823Y-73664954D01*
X177371823Y-73664954D02*
X177405157Y-73631621D01*
X177405157Y-73631621D02*
X177438490Y-73564954D01*
X177438490Y-73564954D02*
X177438490Y-73431621D01*
X177438490Y-73431621D02*
X177405157Y-73364954D01*
X177405157Y-73364954D02*
X177371823Y-73331621D01*
X177371823Y-73331621D02*
X177305157Y-73298287D01*
X177305157Y-73298287D02*
X177138490Y-73298287D01*
X177138490Y-73298287D02*
X177071823Y-73331621D01*
X177071823Y-73331621D02*
X177038490Y-73364954D01*
X177038490Y-73364954D02*
X177005157Y-73431621D01*
X177005157Y-73431621D02*
X177005157Y-73564954D01*
X177005157Y-73564954D02*
X177038490Y-73631621D01*
X177038490Y-73631621D02*
X177071823Y-73664954D01*
X177071823Y-73664954D02*
X177138490Y-73698287D01*
X147399823Y-72774287D02*
X147433157Y-72807620D01*
X147433157Y-72807620D02*
X147466490Y-72907620D01*
X147466490Y-72907620D02*
X147466490Y-72974287D01*
X147466490Y-72974287D02*
X147433157Y-73074287D01*
X147433157Y-73074287D02*
X147366490Y-73140954D01*
X147366490Y-73140954D02*
X147299823Y-73174287D01*
X147299823Y-73174287D02*
X147166490Y-73207620D01*
X147166490Y-73207620D02*
X147066490Y-73207620D01*
X147066490Y-73207620D02*
X146933157Y-73174287D01*
X146933157Y-73174287D02*
X146866490Y-73140954D01*
X146866490Y-73140954D02*
X146799823Y-73074287D01*
X146799823Y-73074287D02*
X146766490Y-72974287D01*
X146766490Y-72974287D02*
X146766490Y-72907620D01*
X146766490Y-72907620D02*
X146799823Y-72807620D01*
X146799823Y-72807620D02*
X146833157Y-72774287D01*
X147466490Y-72107620D02*
X147466490Y-72507620D01*
X147466490Y-72307620D02*
X146766490Y-72307620D01*
X146766490Y-72307620D02*
X146866490Y-72374287D01*
X146866490Y-72374287D02*
X146933157Y-72440954D01*
X146933157Y-72440954D02*
X146966490Y-72507620D01*
X153562490Y-81235621D02*
X153229157Y-81468954D01*
X153562490Y-81635621D02*
X152862490Y-81635621D01*
X152862490Y-81635621D02*
X152862490Y-81368954D01*
X152862490Y-81368954D02*
X152895823Y-81302288D01*
X152895823Y-81302288D02*
X152929157Y-81268954D01*
X152929157Y-81268954D02*
X152995823Y-81235621D01*
X152995823Y-81235621D02*
X153095823Y-81235621D01*
X153095823Y-81235621D02*
X153162490Y-81268954D01*
X153162490Y-81268954D02*
X153195823Y-81302288D01*
X153195823Y-81302288D02*
X153229157Y-81368954D01*
X153229157Y-81368954D02*
X153229157Y-81635621D01*
X152929157Y-80968954D02*
X152895823Y-80935621D01*
X152895823Y-80935621D02*
X152862490Y-80868954D01*
X152862490Y-80868954D02*
X152862490Y-80702288D01*
X152862490Y-80702288D02*
X152895823Y-80635621D01*
X152895823Y-80635621D02*
X152929157Y-80602288D01*
X152929157Y-80602288D02*
X152995823Y-80568954D01*
X152995823Y-80568954D02*
X153062490Y-80568954D01*
X153062490Y-80568954D02*
X153162490Y-80602288D01*
X153162490Y-80602288D02*
X153562490Y-81002288D01*
X153562490Y-81002288D02*
X153562490Y-80568954D01*
X153095823Y-79968954D02*
X153562490Y-79968954D01*
X152829157Y-80135621D02*
X153329157Y-80302287D01*
X153329157Y-80302287D02*
X153329157Y-79868954D01*
X153054490Y-88025287D02*
X152354490Y-88025287D01*
X152987823Y-87291954D02*
X153021157Y-87325287D01*
X153021157Y-87325287D02*
X153054490Y-87425287D01*
X153054490Y-87425287D02*
X153054490Y-87491954D01*
X153054490Y-87491954D02*
X153021157Y-87591954D01*
X153021157Y-87591954D02*
X152954490Y-87658621D01*
X152954490Y-87658621D02*
X152887823Y-87691954D01*
X152887823Y-87691954D02*
X152754490Y-87725287D01*
X152754490Y-87725287D02*
X152654490Y-87725287D01*
X152654490Y-87725287D02*
X152521157Y-87691954D01*
X152521157Y-87691954D02*
X152454490Y-87658621D01*
X152454490Y-87658621D02*
X152387823Y-87591954D01*
X152387823Y-87591954D02*
X152354490Y-87491954D01*
X152354490Y-87491954D02*
X152354490Y-87425287D01*
X152354490Y-87425287D02*
X152387823Y-87325287D01*
X152387823Y-87325287D02*
X152421157Y-87291954D01*
X153054490Y-86625287D02*
X153054490Y-87025287D01*
X153054490Y-86825287D02*
X152354490Y-86825287D01*
X152354490Y-86825287D02*
X152454490Y-86891954D01*
X152454490Y-86891954D02*
X152521157Y-86958621D01*
X152521157Y-86958621D02*
X152554490Y-87025287D01*
X152587823Y-86025287D02*
X153054490Y-86025287D01*
X152321157Y-86191954D02*
X152821157Y-86358620D01*
X152821157Y-86358620D02*
X152821157Y-85925287D01*
X112129490Y-119274287D02*
X111429490Y-119274287D01*
X112062823Y-118540954D02*
X112096157Y-118574287D01*
X112096157Y-118574287D02*
X112129490Y-118674287D01*
X112129490Y-118674287D02*
X112129490Y-118740954D01*
X112129490Y-118740954D02*
X112096157Y-118840954D01*
X112096157Y-118840954D02*
X112029490Y-118907621D01*
X112029490Y-118907621D02*
X111962823Y-118940954D01*
X111962823Y-118940954D02*
X111829490Y-118974287D01*
X111829490Y-118974287D02*
X111729490Y-118974287D01*
X111729490Y-118974287D02*
X111596157Y-118940954D01*
X111596157Y-118940954D02*
X111529490Y-118907621D01*
X111529490Y-118907621D02*
X111462823Y-118840954D01*
X111462823Y-118840954D02*
X111429490Y-118740954D01*
X111429490Y-118740954D02*
X111429490Y-118674287D01*
X111429490Y-118674287D02*
X111462823Y-118574287D01*
X111462823Y-118574287D02*
X111496157Y-118540954D01*
X112129490Y-117874287D02*
X112129490Y-118274287D01*
X112129490Y-118074287D02*
X111429490Y-118074287D01*
X111429490Y-118074287D02*
X111529490Y-118140954D01*
X111529490Y-118140954D02*
X111596157Y-118207621D01*
X111596157Y-118207621D02*
X111629490Y-118274287D01*
X111729490Y-117474287D02*
X111696157Y-117540954D01*
X111696157Y-117540954D02*
X111662823Y-117574287D01*
X111662823Y-117574287D02*
X111596157Y-117607620D01*
X111596157Y-117607620D02*
X111562823Y-117607620D01*
X111562823Y-117607620D02*
X111496157Y-117574287D01*
X111496157Y-117574287D02*
X111462823Y-117540954D01*
X111462823Y-117540954D02*
X111429490Y-117474287D01*
X111429490Y-117474287D02*
X111429490Y-117340954D01*
X111429490Y-117340954D02*
X111462823Y-117274287D01*
X111462823Y-117274287D02*
X111496157Y-117240954D01*
X111496157Y-117240954D02*
X111562823Y-117207620D01*
X111562823Y-117207620D02*
X111596157Y-117207620D01*
X111596157Y-117207620D02*
X111662823Y-117240954D01*
X111662823Y-117240954D02*
X111696157Y-117274287D01*
X111696157Y-117274287D02*
X111729490Y-117340954D01*
X111729490Y-117340954D02*
X111729490Y-117474287D01*
X111729490Y-117474287D02*
X111762823Y-117540954D01*
X111762823Y-117540954D02*
X111796157Y-117574287D01*
X111796157Y-117574287D02*
X111862823Y-117607620D01*
X111862823Y-117607620D02*
X111996157Y-117607620D01*
X111996157Y-117607620D02*
X112062823Y-117574287D01*
X112062823Y-117574287D02*
X112096157Y-117540954D01*
X112096157Y-117540954D02*
X112129490Y-117474287D01*
X112129490Y-117474287D02*
X112129490Y-117340954D01*
X112129490Y-117340954D02*
X112096157Y-117274287D01*
X112096157Y-117274287D02*
X112062823Y-117240954D01*
X112062823Y-117240954D02*
X111996157Y-117207620D01*
X111996157Y-117207620D02*
X111862823Y-117207620D01*
X111862823Y-117207620D02*
X111796157Y-117240954D01*
X111796157Y-117240954D02*
X111762823Y-117274287D01*
X111762823Y-117274287D02*
X111729490Y-117340954D01*
X162198490Y-74631621D02*
X161865157Y-74864954D01*
X162198490Y-75031621D02*
X161498490Y-75031621D01*
X161498490Y-75031621D02*
X161498490Y-74764954D01*
X161498490Y-74764954D02*
X161531823Y-74698288D01*
X161531823Y-74698288D02*
X161565157Y-74664954D01*
X161565157Y-74664954D02*
X161631823Y-74631621D01*
X161631823Y-74631621D02*
X161731823Y-74631621D01*
X161731823Y-74631621D02*
X161798490Y-74664954D01*
X161798490Y-74664954D02*
X161831823Y-74698288D01*
X161831823Y-74698288D02*
X161865157Y-74764954D01*
X161865157Y-74764954D02*
X161865157Y-75031621D01*
X162198490Y-73964954D02*
X162198490Y-74364954D01*
X162198490Y-74164954D02*
X161498490Y-74164954D01*
X161498490Y-74164954D02*
X161598490Y-74231621D01*
X161598490Y-74231621D02*
X161665157Y-74298288D01*
X161665157Y-74298288D02*
X161698490Y-74364954D01*
X161498490Y-73731621D02*
X161498490Y-73298287D01*
X161498490Y-73298287D02*
X161765157Y-73531621D01*
X161765157Y-73531621D02*
X161765157Y-73431621D01*
X161765157Y-73431621D02*
X161798490Y-73364954D01*
X161798490Y-73364954D02*
X161831823Y-73331621D01*
X161831823Y-73331621D02*
X161898490Y-73298287D01*
X161898490Y-73298287D02*
X162065157Y-73298287D01*
X162065157Y-73298287D02*
X162131823Y-73331621D01*
X162131823Y-73331621D02*
X162165157Y-73364954D01*
X162165157Y-73364954D02*
X162198490Y-73431621D01*
X162198490Y-73431621D02*
X162198490Y-73631621D01*
X162198490Y-73631621D02*
X162165157Y-73698287D01*
X162165157Y-73698287D02*
X162131823Y-73731621D01*
X140160823Y-89363621D02*
X140194157Y-89396954D01*
X140194157Y-89396954D02*
X140227490Y-89496954D01*
X140227490Y-89496954D02*
X140227490Y-89563621D01*
X140227490Y-89563621D02*
X140194157Y-89663621D01*
X140194157Y-89663621D02*
X140127490Y-89730288D01*
X140127490Y-89730288D02*
X140060823Y-89763621D01*
X140060823Y-89763621D02*
X139927490Y-89796954D01*
X139927490Y-89796954D02*
X139827490Y-89796954D01*
X139827490Y-89796954D02*
X139694157Y-89763621D01*
X139694157Y-89763621D02*
X139627490Y-89730288D01*
X139627490Y-89730288D02*
X139560823Y-89663621D01*
X139560823Y-89663621D02*
X139527490Y-89563621D01*
X139527490Y-89563621D02*
X139527490Y-89496954D01*
X139527490Y-89496954D02*
X139560823Y-89396954D01*
X139560823Y-89396954D02*
X139594157Y-89363621D01*
X140227490Y-88696954D02*
X140227490Y-89096954D01*
X140227490Y-88896954D02*
X139527490Y-88896954D01*
X139527490Y-88896954D02*
X139627490Y-88963621D01*
X139627490Y-88963621D02*
X139694157Y-89030288D01*
X139694157Y-89030288D02*
X139727490Y-89096954D01*
X140227490Y-88030287D02*
X140227490Y-88430287D01*
X140227490Y-88230287D02*
X139527490Y-88230287D01*
X139527490Y-88230287D02*
X139627490Y-88296954D01*
X139627490Y-88296954D02*
X139694157Y-88363621D01*
X139694157Y-88363621D02*
X139727490Y-88430287D01*
X141811823Y-73540954D02*
X141845157Y-73574287D01*
X141845157Y-73574287D02*
X141878490Y-73674287D01*
X141878490Y-73674287D02*
X141878490Y-73740954D01*
X141878490Y-73740954D02*
X141845157Y-73840954D01*
X141845157Y-73840954D02*
X141778490Y-73907621D01*
X141778490Y-73907621D02*
X141711823Y-73940954D01*
X141711823Y-73940954D02*
X141578490Y-73974287D01*
X141578490Y-73974287D02*
X141478490Y-73974287D01*
X141478490Y-73974287D02*
X141345157Y-73940954D01*
X141345157Y-73940954D02*
X141278490Y-73907621D01*
X141278490Y-73907621D02*
X141211823Y-73840954D01*
X141211823Y-73840954D02*
X141178490Y-73740954D01*
X141178490Y-73740954D02*
X141178490Y-73674287D01*
X141178490Y-73674287D02*
X141211823Y-73574287D01*
X141211823Y-73574287D02*
X141245157Y-73540954D01*
X141178490Y-73307621D02*
X141178490Y-72874287D01*
X141178490Y-72874287D02*
X141445157Y-73107621D01*
X141445157Y-73107621D02*
X141445157Y-73007621D01*
X141445157Y-73007621D02*
X141478490Y-72940954D01*
X141478490Y-72940954D02*
X141511823Y-72907621D01*
X141511823Y-72907621D02*
X141578490Y-72874287D01*
X141578490Y-72874287D02*
X141745157Y-72874287D01*
X141745157Y-72874287D02*
X141811823Y-72907621D01*
X141811823Y-72907621D02*
X141845157Y-72940954D01*
X141845157Y-72940954D02*
X141878490Y-73007621D01*
X141878490Y-73007621D02*
X141878490Y-73207621D01*
X141878490Y-73207621D02*
X141845157Y-73274287D01*
X141845157Y-73274287D02*
X141811823Y-73307621D01*
X141611823Y-72574287D02*
X141611823Y-72040954D01*
X141878490Y-71340953D02*
X141878490Y-71740953D01*
X141878490Y-71540953D02*
X141178490Y-71540953D01*
X141178490Y-71540953D02*
X141278490Y-71607620D01*
X141278490Y-71607620D02*
X141345157Y-71674287D01*
X141345157Y-71674287D02*
X141378490Y-71740953D01*
X177438490Y-77933621D02*
X177105157Y-78166954D01*
X177438490Y-78333621D02*
X176738490Y-78333621D01*
X176738490Y-78333621D02*
X176738490Y-78066954D01*
X176738490Y-78066954D02*
X176771823Y-78000288D01*
X176771823Y-78000288D02*
X176805157Y-77966954D01*
X176805157Y-77966954D02*
X176871823Y-77933621D01*
X176871823Y-77933621D02*
X176971823Y-77933621D01*
X176971823Y-77933621D02*
X177038490Y-77966954D01*
X177038490Y-77966954D02*
X177071823Y-78000288D01*
X177071823Y-78000288D02*
X177105157Y-78066954D01*
X177105157Y-78066954D02*
X177105157Y-78333621D01*
X176805157Y-77666954D02*
X176771823Y-77633621D01*
X176771823Y-77633621D02*
X176738490Y-77566954D01*
X176738490Y-77566954D02*
X176738490Y-77400288D01*
X176738490Y-77400288D02*
X176771823Y-77333621D01*
X176771823Y-77333621D02*
X176805157Y-77300288D01*
X176805157Y-77300288D02*
X176871823Y-77266954D01*
X176871823Y-77266954D02*
X176938490Y-77266954D01*
X176938490Y-77266954D02*
X177038490Y-77300288D01*
X177038490Y-77300288D02*
X177438490Y-77700288D01*
X177438490Y-77700288D02*
X177438490Y-77266954D01*
X176738490Y-77033621D02*
X176738490Y-76566954D01*
X176738490Y-76566954D02*
X177438490Y-76866954D01*
X141370490Y-79516287D02*
X140670490Y-79516287D01*
X141303823Y-78782954D02*
X141337157Y-78816287D01*
X141337157Y-78816287D02*
X141370490Y-78916287D01*
X141370490Y-78916287D02*
X141370490Y-78982954D01*
X141370490Y-78982954D02*
X141337157Y-79082954D01*
X141337157Y-79082954D02*
X141270490Y-79149621D01*
X141270490Y-79149621D02*
X141203823Y-79182954D01*
X141203823Y-79182954D02*
X141070490Y-79216287D01*
X141070490Y-79216287D02*
X140970490Y-79216287D01*
X140970490Y-79216287D02*
X140837157Y-79182954D01*
X140837157Y-79182954D02*
X140770490Y-79149621D01*
X140770490Y-79149621D02*
X140703823Y-79082954D01*
X140703823Y-79082954D02*
X140670490Y-78982954D01*
X140670490Y-78982954D02*
X140670490Y-78916287D01*
X140670490Y-78916287D02*
X140703823Y-78816287D01*
X140703823Y-78816287D02*
X140737157Y-78782954D01*
X141370490Y-78116287D02*
X141370490Y-78516287D01*
X141370490Y-78316287D02*
X140670490Y-78316287D01*
X140670490Y-78316287D02*
X140770490Y-78382954D01*
X140770490Y-78382954D02*
X140837157Y-78449621D01*
X140837157Y-78449621D02*
X140870490Y-78516287D01*
X140670490Y-77882954D02*
X140670490Y-77449620D01*
X140670490Y-77449620D02*
X140937157Y-77682954D01*
X140937157Y-77682954D02*
X140937157Y-77582954D01*
X140937157Y-77582954D02*
X140970490Y-77516287D01*
X140970490Y-77516287D02*
X141003823Y-77482954D01*
X141003823Y-77482954D02*
X141070490Y-77449620D01*
X141070490Y-77449620D02*
X141237157Y-77449620D01*
X141237157Y-77449620D02*
X141303823Y-77482954D01*
X141303823Y-77482954D02*
X141337157Y-77516287D01*
X141337157Y-77516287D02*
X141370490Y-77582954D01*
X141370490Y-77582954D02*
X141370490Y-77782954D01*
X141370490Y-77782954D02*
X141337157Y-77849620D01*
X141337157Y-77849620D02*
X141303823Y-77882954D01*
X136372490Y-107861954D02*
X136939157Y-107861954D01*
X136939157Y-107861954D02*
X137005823Y-107828621D01*
X137005823Y-107828621D02*
X137039157Y-107795287D01*
X137039157Y-107795287D02*
X137072490Y-107728621D01*
X137072490Y-107728621D02*
X137072490Y-107595287D01*
X137072490Y-107595287D02*
X137039157Y-107528621D01*
X137039157Y-107528621D02*
X137005823Y-107495287D01*
X137005823Y-107495287D02*
X136939157Y-107461954D01*
X136939157Y-107461954D02*
X136372490Y-107461954D01*
X136372490Y-106795288D02*
X136372490Y-107128621D01*
X136372490Y-107128621D02*
X136705823Y-107161954D01*
X136705823Y-107161954D02*
X136672490Y-107128621D01*
X136672490Y-107128621D02*
X136639157Y-107061954D01*
X136639157Y-107061954D02*
X136639157Y-106895288D01*
X136639157Y-106895288D02*
X136672490Y-106828621D01*
X136672490Y-106828621D02*
X136705823Y-106795288D01*
X136705823Y-106795288D02*
X136772490Y-106761954D01*
X136772490Y-106761954D02*
X136939157Y-106761954D01*
X136939157Y-106761954D02*
X137005823Y-106795288D01*
X137005823Y-106795288D02*
X137039157Y-106828621D01*
X137039157Y-106828621D02*
X137072490Y-106895288D01*
X137072490Y-106895288D02*
X137072490Y-107061954D01*
X137072490Y-107061954D02*
X137039157Y-107128621D01*
X137039157Y-107128621D02*
X137005823Y-107161954D01*
X163147823Y-84712287D02*
X163181157Y-84745620D01*
X163181157Y-84745620D02*
X163214490Y-84845620D01*
X163214490Y-84845620D02*
X163214490Y-84912287D01*
X163214490Y-84912287D02*
X163181157Y-85012287D01*
X163181157Y-85012287D02*
X163114490Y-85078954D01*
X163114490Y-85078954D02*
X163047823Y-85112287D01*
X163047823Y-85112287D02*
X162914490Y-85145620D01*
X162914490Y-85145620D02*
X162814490Y-85145620D01*
X162814490Y-85145620D02*
X162681157Y-85112287D01*
X162681157Y-85112287D02*
X162614490Y-85078954D01*
X162614490Y-85078954D02*
X162547823Y-85012287D01*
X162547823Y-85012287D02*
X162514490Y-84912287D01*
X162514490Y-84912287D02*
X162514490Y-84845620D01*
X162514490Y-84845620D02*
X162547823Y-84745620D01*
X162547823Y-84745620D02*
X162581157Y-84712287D01*
X162581157Y-84445620D02*
X162547823Y-84412287D01*
X162547823Y-84412287D02*
X162514490Y-84345620D01*
X162514490Y-84345620D02*
X162514490Y-84178954D01*
X162514490Y-84178954D02*
X162547823Y-84112287D01*
X162547823Y-84112287D02*
X162581157Y-84078954D01*
X162581157Y-84078954D02*
X162647823Y-84045620D01*
X162647823Y-84045620D02*
X162714490Y-84045620D01*
X162714490Y-84045620D02*
X162814490Y-84078954D01*
X162814490Y-84078954D02*
X163214490Y-84478954D01*
X163214490Y-84478954D02*
X163214490Y-84045620D01*
X131928490Y-87879954D02*
X131595157Y-88113287D01*
X131928490Y-88279954D02*
X131228490Y-88279954D01*
X131228490Y-88279954D02*
X131228490Y-88013287D01*
X131228490Y-88013287D02*
X131261823Y-87946621D01*
X131261823Y-87946621D02*
X131295157Y-87913287D01*
X131295157Y-87913287D02*
X131361823Y-87879954D01*
X131361823Y-87879954D02*
X131461823Y-87879954D01*
X131461823Y-87879954D02*
X131528490Y-87913287D01*
X131528490Y-87913287D02*
X131561823Y-87946621D01*
X131561823Y-87946621D02*
X131595157Y-88013287D01*
X131595157Y-88013287D02*
X131595157Y-88279954D01*
X131928490Y-87579954D02*
X131228490Y-87579954D01*
X131228490Y-87579954D02*
X131928490Y-87179954D01*
X131928490Y-87179954D02*
X131228490Y-87179954D01*
X131295157Y-86879954D02*
X131261823Y-86846621D01*
X131261823Y-86846621D02*
X131228490Y-86779954D01*
X131228490Y-86779954D02*
X131228490Y-86613288D01*
X131228490Y-86613288D02*
X131261823Y-86546621D01*
X131261823Y-86546621D02*
X131295157Y-86513288D01*
X131295157Y-86513288D02*
X131361823Y-86479954D01*
X131361823Y-86479954D02*
X131428490Y-86479954D01*
X131428490Y-86479954D02*
X131528490Y-86513288D01*
X131528490Y-86513288D02*
X131928490Y-86913288D01*
X131928490Y-86913288D02*
X131928490Y-86479954D01*
X172358490Y-77933621D02*
X172025157Y-78166954D01*
X172358490Y-78333621D02*
X171658490Y-78333621D01*
X171658490Y-78333621D02*
X171658490Y-78066954D01*
X171658490Y-78066954D02*
X171691823Y-78000288D01*
X171691823Y-78000288D02*
X171725157Y-77966954D01*
X171725157Y-77966954D02*
X171791823Y-77933621D01*
X171791823Y-77933621D02*
X171891823Y-77933621D01*
X171891823Y-77933621D02*
X171958490Y-77966954D01*
X171958490Y-77966954D02*
X171991823Y-78000288D01*
X171991823Y-78000288D02*
X172025157Y-78066954D01*
X172025157Y-78066954D02*
X172025157Y-78333621D01*
X172358490Y-77266954D02*
X172358490Y-77666954D01*
X172358490Y-77466954D02*
X171658490Y-77466954D01*
X171658490Y-77466954D02*
X171758490Y-77533621D01*
X171758490Y-77533621D02*
X171825157Y-77600288D01*
X171825157Y-77600288D02*
X171858490Y-77666954D01*
X171958490Y-76866954D02*
X171925157Y-76933621D01*
X171925157Y-76933621D02*
X171891823Y-76966954D01*
X171891823Y-76966954D02*
X171825157Y-77000287D01*
X171825157Y-77000287D02*
X171791823Y-77000287D01*
X171791823Y-77000287D02*
X171725157Y-76966954D01*
X171725157Y-76966954D02*
X171691823Y-76933621D01*
X171691823Y-76933621D02*
X171658490Y-76866954D01*
X171658490Y-76866954D02*
X171658490Y-76733621D01*
X171658490Y-76733621D02*
X171691823Y-76666954D01*
X171691823Y-76666954D02*
X171725157Y-76633621D01*
X171725157Y-76633621D02*
X171791823Y-76600287D01*
X171791823Y-76600287D02*
X171825157Y-76600287D01*
X171825157Y-76600287D02*
X171891823Y-76633621D01*
X171891823Y-76633621D02*
X171925157Y-76666954D01*
X171925157Y-76666954D02*
X171958490Y-76733621D01*
X171958490Y-76733621D02*
X171958490Y-76866954D01*
X171958490Y-76866954D02*
X171991823Y-76933621D01*
X171991823Y-76933621D02*
X172025157Y-76966954D01*
X172025157Y-76966954D02*
X172091823Y-77000287D01*
X172091823Y-77000287D02*
X172225157Y-77000287D01*
X172225157Y-77000287D02*
X172291823Y-76966954D01*
X172291823Y-76966954D02*
X172325157Y-76933621D01*
X172325157Y-76933621D02*
X172358490Y-76866954D01*
X172358490Y-76866954D02*
X172358490Y-76733621D01*
X172358490Y-76733621D02*
X172325157Y-76666954D01*
X172325157Y-76666954D02*
X172291823Y-76633621D01*
X172291823Y-76633621D02*
X172225157Y-76600287D01*
X172225157Y-76600287D02*
X172091823Y-76600287D01*
X172091823Y-76600287D02*
X172025157Y-76633621D01*
X172025157Y-76633621D02*
X171991823Y-76666954D01*
X171991823Y-76666954D02*
X171958490Y-76733621D01*
X164738490Y-88025287D02*
X164038490Y-88025287D01*
X164671823Y-87291954D02*
X164705157Y-87325287D01*
X164705157Y-87325287D02*
X164738490Y-87425287D01*
X164738490Y-87425287D02*
X164738490Y-87491954D01*
X164738490Y-87491954D02*
X164705157Y-87591954D01*
X164705157Y-87591954D02*
X164638490Y-87658621D01*
X164638490Y-87658621D02*
X164571823Y-87691954D01*
X164571823Y-87691954D02*
X164438490Y-87725287D01*
X164438490Y-87725287D02*
X164338490Y-87725287D01*
X164338490Y-87725287D02*
X164205157Y-87691954D01*
X164205157Y-87691954D02*
X164138490Y-87658621D01*
X164138490Y-87658621D02*
X164071823Y-87591954D01*
X164071823Y-87591954D02*
X164038490Y-87491954D01*
X164038490Y-87491954D02*
X164038490Y-87425287D01*
X164038490Y-87425287D02*
X164071823Y-87325287D01*
X164071823Y-87325287D02*
X164105157Y-87291954D01*
X164738490Y-86625287D02*
X164738490Y-87025287D01*
X164738490Y-86825287D02*
X164038490Y-86825287D01*
X164038490Y-86825287D02*
X164138490Y-86891954D01*
X164138490Y-86891954D02*
X164205157Y-86958621D01*
X164205157Y-86958621D02*
X164238490Y-87025287D01*
X164038490Y-85991954D02*
X164038490Y-86325287D01*
X164038490Y-86325287D02*
X164371823Y-86358620D01*
X164371823Y-86358620D02*
X164338490Y-86325287D01*
X164338490Y-86325287D02*
X164305157Y-86258620D01*
X164305157Y-86258620D02*
X164305157Y-86091954D01*
X164305157Y-86091954D02*
X164338490Y-86025287D01*
X164338490Y-86025287D02*
X164371823Y-85991954D01*
X164371823Y-85991954D02*
X164438490Y-85958620D01*
X164438490Y-85958620D02*
X164605157Y-85958620D01*
X164605157Y-85958620D02*
X164671823Y-85991954D01*
X164671823Y-85991954D02*
X164705157Y-86025287D01*
X164705157Y-86025287D02*
X164738490Y-86091954D01*
X164738490Y-86091954D02*
X164738490Y-86258620D01*
X164738490Y-86258620D02*
X164705157Y-86325287D01*
X164705157Y-86325287D02*
X164671823Y-86358620D01*
X176360490Y-88025287D02*
X175660490Y-88025287D01*
X176293823Y-87291954D02*
X176327157Y-87325287D01*
X176327157Y-87325287D02*
X176360490Y-87425287D01*
X176360490Y-87425287D02*
X176360490Y-87491954D01*
X176360490Y-87491954D02*
X176327157Y-87591954D01*
X176327157Y-87591954D02*
X176260490Y-87658621D01*
X176260490Y-87658621D02*
X176193823Y-87691954D01*
X176193823Y-87691954D02*
X176060490Y-87725287D01*
X176060490Y-87725287D02*
X175960490Y-87725287D01*
X175960490Y-87725287D02*
X175827157Y-87691954D01*
X175827157Y-87691954D02*
X175760490Y-87658621D01*
X175760490Y-87658621D02*
X175693823Y-87591954D01*
X175693823Y-87591954D02*
X175660490Y-87491954D01*
X175660490Y-87491954D02*
X175660490Y-87425287D01*
X175660490Y-87425287D02*
X175693823Y-87325287D01*
X175693823Y-87325287D02*
X175727157Y-87291954D01*
X176360490Y-86625287D02*
X176360490Y-87025287D01*
X176360490Y-86825287D02*
X175660490Y-86825287D01*
X175660490Y-86825287D02*
X175760490Y-86891954D01*
X175760490Y-86891954D02*
X175827157Y-86958621D01*
X175827157Y-86958621D02*
X175860490Y-87025287D01*
X175727157Y-86358620D02*
X175693823Y-86325287D01*
X175693823Y-86325287D02*
X175660490Y-86258620D01*
X175660490Y-86258620D02*
X175660490Y-86091954D01*
X175660490Y-86091954D02*
X175693823Y-86025287D01*
X175693823Y-86025287D02*
X175727157Y-85991954D01*
X175727157Y-85991954D02*
X175793823Y-85958620D01*
X175793823Y-85958620D02*
X175860490Y-85958620D01*
X175860490Y-85958620D02*
X175960490Y-85991954D01*
X175960490Y-85991954D02*
X176360490Y-86391954D01*
X176360490Y-86391954D02*
X176360490Y-85958620D01*
X138913490Y-116929621D02*
X138580157Y-117162954D01*
X138913490Y-117329621D02*
X138213490Y-117329621D01*
X138213490Y-117329621D02*
X138213490Y-117062954D01*
X138213490Y-117062954D02*
X138246823Y-116996288D01*
X138246823Y-116996288D02*
X138280157Y-116962954D01*
X138280157Y-116962954D02*
X138346823Y-116929621D01*
X138346823Y-116929621D02*
X138446823Y-116929621D01*
X138446823Y-116929621D02*
X138513490Y-116962954D01*
X138513490Y-116962954D02*
X138546823Y-116996288D01*
X138546823Y-116996288D02*
X138580157Y-117062954D01*
X138580157Y-117062954D02*
X138580157Y-117329621D01*
X138213490Y-116696288D02*
X138213490Y-116262954D01*
X138213490Y-116262954D02*
X138480157Y-116496288D01*
X138480157Y-116496288D02*
X138480157Y-116396288D01*
X138480157Y-116396288D02*
X138513490Y-116329621D01*
X138513490Y-116329621D02*
X138546823Y-116296288D01*
X138546823Y-116296288D02*
X138613490Y-116262954D01*
X138613490Y-116262954D02*
X138780157Y-116262954D01*
X138780157Y-116262954D02*
X138846823Y-116296288D01*
X138846823Y-116296288D02*
X138880157Y-116329621D01*
X138880157Y-116329621D02*
X138913490Y-116396288D01*
X138913490Y-116396288D02*
X138913490Y-116596288D01*
X138913490Y-116596288D02*
X138880157Y-116662954D01*
X138880157Y-116662954D02*
X138846823Y-116696288D01*
X138913490Y-115596287D02*
X138913490Y-115996287D01*
X138913490Y-115796287D02*
X138213490Y-115796287D01*
X138213490Y-115796287D02*
X138313490Y-115862954D01*
X138313490Y-115862954D02*
X138380157Y-115929621D01*
X138380157Y-115929621D02*
X138413490Y-115996287D01*
X136931823Y-104909954D02*
X136965157Y-104943287D01*
X136965157Y-104943287D02*
X136998490Y-105043287D01*
X136998490Y-105043287D02*
X136998490Y-105109954D01*
X136998490Y-105109954D02*
X136965157Y-105209954D01*
X136965157Y-105209954D02*
X136898490Y-105276621D01*
X136898490Y-105276621D02*
X136831823Y-105309954D01*
X136831823Y-105309954D02*
X136698490Y-105343287D01*
X136698490Y-105343287D02*
X136598490Y-105343287D01*
X136598490Y-105343287D02*
X136465157Y-105309954D01*
X136465157Y-105309954D02*
X136398490Y-105276621D01*
X136398490Y-105276621D02*
X136331823Y-105209954D01*
X136331823Y-105209954D02*
X136298490Y-105109954D01*
X136298490Y-105109954D02*
X136298490Y-105043287D01*
X136298490Y-105043287D02*
X136331823Y-104943287D01*
X136331823Y-104943287D02*
X136365157Y-104909954D01*
X136298490Y-104276621D02*
X136298490Y-104609954D01*
X136298490Y-104609954D02*
X136631823Y-104643287D01*
X136631823Y-104643287D02*
X136598490Y-104609954D01*
X136598490Y-104609954D02*
X136565157Y-104543287D01*
X136565157Y-104543287D02*
X136565157Y-104376621D01*
X136565157Y-104376621D02*
X136598490Y-104309954D01*
X136598490Y-104309954D02*
X136631823Y-104276621D01*
X136631823Y-104276621D02*
X136698490Y-104243287D01*
X136698490Y-104243287D02*
X136865157Y-104243287D01*
X136865157Y-104243287D02*
X136931823Y-104276621D01*
X136931823Y-104276621D02*
X136965157Y-104309954D01*
X136965157Y-104309954D02*
X136998490Y-104376621D01*
X136998490Y-104376621D02*
X136998490Y-104543287D01*
X136998490Y-104543287D02*
X136965157Y-104609954D01*
X136965157Y-104609954D02*
X136931823Y-104643287D01*
X136731823Y-103943287D02*
X136731823Y-103409954D01*
X136365157Y-103109953D02*
X136331823Y-103076620D01*
X136331823Y-103076620D02*
X136298490Y-103009953D01*
X136298490Y-103009953D02*
X136298490Y-102843287D01*
X136298490Y-102843287D02*
X136331823Y-102776620D01*
X136331823Y-102776620D02*
X136365157Y-102743287D01*
X136365157Y-102743287D02*
X136431823Y-102709953D01*
X136431823Y-102709953D02*
X136498490Y-102709953D01*
X136498490Y-102709953D02*
X136598490Y-102743287D01*
X136598490Y-102743287D02*
X136998490Y-103143287D01*
X136998490Y-103143287D02*
X136998490Y-102709953D01*
X156102490Y-77600287D02*
X155769157Y-77833620D01*
X156102490Y-78000287D02*
X155402490Y-78000287D01*
X155402490Y-78000287D02*
X155402490Y-77733620D01*
X155402490Y-77733620D02*
X155435823Y-77666954D01*
X155435823Y-77666954D02*
X155469157Y-77633620D01*
X155469157Y-77633620D02*
X155535823Y-77600287D01*
X155535823Y-77600287D02*
X155635823Y-77600287D01*
X155635823Y-77600287D02*
X155702490Y-77633620D01*
X155702490Y-77633620D02*
X155735823Y-77666954D01*
X155735823Y-77666954D02*
X155769157Y-77733620D01*
X155769157Y-77733620D02*
X155769157Y-78000287D01*
X156102490Y-76933620D02*
X156102490Y-77333620D01*
X156102490Y-77133620D02*
X155402490Y-77133620D01*
X155402490Y-77133620D02*
X155502490Y-77200287D01*
X155502490Y-77200287D02*
X155569157Y-77266954D01*
X155569157Y-77266954D02*
X155602490Y-77333620D01*
X158642490Y-74631621D02*
X158309157Y-74864954D01*
X158642490Y-75031621D02*
X157942490Y-75031621D01*
X157942490Y-75031621D02*
X157942490Y-74764954D01*
X157942490Y-74764954D02*
X157975823Y-74698288D01*
X157975823Y-74698288D02*
X158009157Y-74664954D01*
X158009157Y-74664954D02*
X158075823Y-74631621D01*
X158075823Y-74631621D02*
X158175823Y-74631621D01*
X158175823Y-74631621D02*
X158242490Y-74664954D01*
X158242490Y-74664954D02*
X158275823Y-74698288D01*
X158275823Y-74698288D02*
X158309157Y-74764954D01*
X158309157Y-74764954D02*
X158309157Y-75031621D01*
X158642490Y-73964954D02*
X158642490Y-74364954D01*
X158642490Y-74164954D02*
X157942490Y-74164954D01*
X157942490Y-74164954D02*
X158042490Y-74231621D01*
X158042490Y-74231621D02*
X158109157Y-74298288D01*
X158109157Y-74298288D02*
X158142490Y-74364954D01*
X157942490Y-73531621D02*
X157942490Y-73464954D01*
X157942490Y-73464954D02*
X157975823Y-73398287D01*
X157975823Y-73398287D02*
X158009157Y-73364954D01*
X158009157Y-73364954D02*
X158075823Y-73331621D01*
X158075823Y-73331621D02*
X158209157Y-73298287D01*
X158209157Y-73298287D02*
X158375823Y-73298287D01*
X158375823Y-73298287D02*
X158509157Y-73331621D01*
X158509157Y-73331621D02*
X158575823Y-73364954D01*
X158575823Y-73364954D02*
X158609157Y-73398287D01*
X158609157Y-73398287D02*
X158642490Y-73464954D01*
X158642490Y-73464954D02*
X158642490Y-73531621D01*
X158642490Y-73531621D02*
X158609157Y-73598287D01*
X158609157Y-73598287D02*
X158575823Y-73631621D01*
X158575823Y-73631621D02*
X158509157Y-73664954D01*
X158509157Y-73664954D02*
X158375823Y-73698287D01*
X158375823Y-73698287D02*
X158209157Y-73698287D01*
X158209157Y-73698287D02*
X158075823Y-73664954D01*
X158075823Y-73664954D02*
X158009157Y-73631621D01*
X158009157Y-73631621D02*
X157975823Y-73598287D01*
X157975823Y-73598287D02*
X157942490Y-73531621D01*
X156102490Y-74298287D02*
X155769157Y-74531620D01*
X156102490Y-74698287D02*
X155402490Y-74698287D01*
X155402490Y-74698287D02*
X155402490Y-74431620D01*
X155402490Y-74431620D02*
X155435823Y-74364954D01*
X155435823Y-74364954D02*
X155469157Y-74331620D01*
X155469157Y-74331620D02*
X155535823Y-74298287D01*
X155535823Y-74298287D02*
X155635823Y-74298287D01*
X155635823Y-74298287D02*
X155702490Y-74331620D01*
X155702490Y-74331620D02*
X155735823Y-74364954D01*
X155735823Y-74364954D02*
X155769157Y-74431620D01*
X155769157Y-74431620D02*
X155769157Y-74698287D01*
X155402490Y-73664954D02*
X155402490Y-73998287D01*
X155402490Y-73998287D02*
X155735823Y-74031620D01*
X155735823Y-74031620D02*
X155702490Y-73998287D01*
X155702490Y-73998287D02*
X155669157Y-73931620D01*
X155669157Y-73931620D02*
X155669157Y-73764954D01*
X155669157Y-73764954D02*
X155702490Y-73698287D01*
X155702490Y-73698287D02*
X155735823Y-73664954D01*
X155735823Y-73664954D02*
X155802490Y-73631620D01*
X155802490Y-73631620D02*
X155969157Y-73631620D01*
X155969157Y-73631620D02*
X156035823Y-73664954D01*
X156035823Y-73664954D02*
X156069157Y-73698287D01*
X156069157Y-73698287D02*
X156102490Y-73764954D01*
X156102490Y-73764954D02*
X156102490Y-73931620D01*
X156102490Y-73931620D02*
X156069157Y-73998287D01*
X156069157Y-73998287D02*
X156035823Y-74031620D01*
X115355490Y-89046621D02*
X115022157Y-89279954D01*
X115355490Y-89446621D02*
X114655490Y-89446621D01*
X114655490Y-89446621D02*
X114655490Y-89179954D01*
X114655490Y-89179954D02*
X114688823Y-89113288D01*
X114688823Y-89113288D02*
X114722157Y-89079954D01*
X114722157Y-89079954D02*
X114788823Y-89046621D01*
X114788823Y-89046621D02*
X114888823Y-89046621D01*
X114888823Y-89046621D02*
X114955490Y-89079954D01*
X114955490Y-89079954D02*
X114988823Y-89113288D01*
X114988823Y-89113288D02*
X115022157Y-89179954D01*
X115022157Y-89179954D02*
X115022157Y-89446621D01*
X114722157Y-88779954D02*
X114688823Y-88746621D01*
X114688823Y-88746621D02*
X114655490Y-88679954D01*
X114655490Y-88679954D02*
X114655490Y-88513288D01*
X114655490Y-88513288D02*
X114688823Y-88446621D01*
X114688823Y-88446621D02*
X114722157Y-88413288D01*
X114722157Y-88413288D02*
X114788823Y-88379954D01*
X114788823Y-88379954D02*
X114855490Y-88379954D01*
X114855490Y-88379954D02*
X114955490Y-88413288D01*
X114955490Y-88413288D02*
X115355490Y-88813288D01*
X115355490Y-88813288D02*
X115355490Y-88379954D01*
X115355490Y-88046621D02*
X115355490Y-87913287D01*
X115355490Y-87913287D02*
X115322157Y-87846621D01*
X115322157Y-87846621D02*
X115288823Y-87813287D01*
X115288823Y-87813287D02*
X115188823Y-87746621D01*
X115188823Y-87746621D02*
X115055490Y-87713287D01*
X115055490Y-87713287D02*
X114788823Y-87713287D01*
X114788823Y-87713287D02*
X114722157Y-87746621D01*
X114722157Y-87746621D02*
X114688823Y-87779954D01*
X114688823Y-87779954D02*
X114655490Y-87846621D01*
X114655490Y-87846621D02*
X114655490Y-87979954D01*
X114655490Y-87979954D02*
X114688823Y-88046621D01*
X114688823Y-88046621D02*
X114722157Y-88079954D01*
X114722157Y-88079954D02*
X114788823Y-88113287D01*
X114788823Y-88113287D02*
X114955490Y-88113287D01*
X114955490Y-88113287D02*
X115022157Y-88079954D01*
X115022157Y-88079954D02*
X115055490Y-88046621D01*
X115055490Y-88046621D02*
X115088823Y-87979954D01*
X115088823Y-87979954D02*
X115088823Y-87846621D01*
X115088823Y-87846621D02*
X115055490Y-87779954D01*
X115055490Y-87779954D02*
X115022157Y-87746621D01*
X115022157Y-87746621D02*
X114955490Y-87713287D01*
X172358490Y-74631621D02*
X172025157Y-74864954D01*
X172358490Y-75031621D02*
X171658490Y-75031621D01*
X171658490Y-75031621D02*
X171658490Y-74764954D01*
X171658490Y-74764954D02*
X171691823Y-74698288D01*
X171691823Y-74698288D02*
X171725157Y-74664954D01*
X171725157Y-74664954D02*
X171791823Y-74631621D01*
X171791823Y-74631621D02*
X171891823Y-74631621D01*
X171891823Y-74631621D02*
X171958490Y-74664954D01*
X171958490Y-74664954D02*
X171991823Y-74698288D01*
X171991823Y-74698288D02*
X172025157Y-74764954D01*
X172025157Y-74764954D02*
X172025157Y-75031621D01*
X172358490Y-73964954D02*
X172358490Y-74364954D01*
X172358490Y-74164954D02*
X171658490Y-74164954D01*
X171658490Y-74164954D02*
X171758490Y-74231621D01*
X171758490Y-74231621D02*
X171825157Y-74298288D01*
X171825157Y-74298288D02*
X171858490Y-74364954D01*
X171658490Y-73364954D02*
X171658490Y-73498287D01*
X171658490Y-73498287D02*
X171691823Y-73564954D01*
X171691823Y-73564954D02*
X171725157Y-73598287D01*
X171725157Y-73598287D02*
X171825157Y-73664954D01*
X171825157Y-73664954D02*
X171958490Y-73698287D01*
X171958490Y-73698287D02*
X172225157Y-73698287D01*
X172225157Y-73698287D02*
X172291823Y-73664954D01*
X172291823Y-73664954D02*
X172325157Y-73631621D01*
X172325157Y-73631621D02*
X172358490Y-73564954D01*
X172358490Y-73564954D02*
X172358490Y-73431621D01*
X172358490Y-73431621D02*
X172325157Y-73364954D01*
X172325157Y-73364954D02*
X172291823Y-73331621D01*
X172291823Y-73331621D02*
X172225157Y-73298287D01*
X172225157Y-73298287D02*
X172058490Y-73298287D01*
X172058490Y-73298287D02*
X171991823Y-73331621D01*
X171991823Y-73331621D02*
X171958490Y-73364954D01*
X171958490Y-73364954D02*
X171925157Y-73431621D01*
X171925157Y-73431621D02*
X171925157Y-73564954D01*
X171925157Y-73564954D02*
X171958490Y-73631621D01*
X171958490Y-73631621D02*
X171991823Y-73664954D01*
X171991823Y-73664954D02*
X172058490Y-73698287D01*
X169818490Y-77933621D02*
X169485157Y-78166954D01*
X169818490Y-78333621D02*
X169118490Y-78333621D01*
X169118490Y-78333621D02*
X169118490Y-78066954D01*
X169118490Y-78066954D02*
X169151823Y-78000288D01*
X169151823Y-78000288D02*
X169185157Y-77966954D01*
X169185157Y-77966954D02*
X169251823Y-77933621D01*
X169251823Y-77933621D02*
X169351823Y-77933621D01*
X169351823Y-77933621D02*
X169418490Y-77966954D01*
X169418490Y-77966954D02*
X169451823Y-78000288D01*
X169451823Y-78000288D02*
X169485157Y-78066954D01*
X169485157Y-78066954D02*
X169485157Y-78333621D01*
X169185157Y-77666954D02*
X169151823Y-77633621D01*
X169151823Y-77633621D02*
X169118490Y-77566954D01*
X169118490Y-77566954D02*
X169118490Y-77400288D01*
X169118490Y-77400288D02*
X169151823Y-77333621D01*
X169151823Y-77333621D02*
X169185157Y-77300288D01*
X169185157Y-77300288D02*
X169251823Y-77266954D01*
X169251823Y-77266954D02*
X169318490Y-77266954D01*
X169318490Y-77266954D02*
X169418490Y-77300288D01*
X169418490Y-77300288D02*
X169818490Y-77700288D01*
X169818490Y-77700288D02*
X169818490Y-77266954D01*
X169118490Y-76833621D02*
X169118490Y-76766954D01*
X169118490Y-76766954D02*
X169151823Y-76700287D01*
X169151823Y-76700287D02*
X169185157Y-76666954D01*
X169185157Y-76666954D02*
X169251823Y-76633621D01*
X169251823Y-76633621D02*
X169385157Y-76600287D01*
X169385157Y-76600287D02*
X169551823Y-76600287D01*
X169551823Y-76600287D02*
X169685157Y-76633621D01*
X169685157Y-76633621D02*
X169751823Y-76666954D01*
X169751823Y-76666954D02*
X169785157Y-76700287D01*
X169785157Y-76700287D02*
X169818490Y-76766954D01*
X169818490Y-76766954D02*
X169818490Y-76833621D01*
X169818490Y-76833621D02*
X169785157Y-76900287D01*
X169785157Y-76900287D02*
X169751823Y-76933621D01*
X169751823Y-76933621D02*
X169685157Y-76966954D01*
X169685157Y-76966954D02*
X169551823Y-77000287D01*
X169551823Y-77000287D02*
X169385157Y-77000287D01*
X169385157Y-77000287D02*
X169251823Y-76966954D01*
X169251823Y-76966954D02*
X169185157Y-76933621D01*
X169185157Y-76933621D02*
X169151823Y-76900287D01*
X169151823Y-76900287D02*
X169118490Y-76833621D01*
X156102490Y-81235621D02*
X155769157Y-81468954D01*
X156102490Y-81635621D02*
X155402490Y-81635621D01*
X155402490Y-81635621D02*
X155402490Y-81368954D01*
X155402490Y-81368954D02*
X155435823Y-81302288D01*
X155435823Y-81302288D02*
X155469157Y-81268954D01*
X155469157Y-81268954D02*
X155535823Y-81235621D01*
X155535823Y-81235621D02*
X155635823Y-81235621D01*
X155635823Y-81235621D02*
X155702490Y-81268954D01*
X155702490Y-81268954D02*
X155735823Y-81302288D01*
X155735823Y-81302288D02*
X155769157Y-81368954D01*
X155769157Y-81368954D02*
X155769157Y-81635621D01*
X155469157Y-80968954D02*
X155435823Y-80935621D01*
X155435823Y-80935621D02*
X155402490Y-80868954D01*
X155402490Y-80868954D02*
X155402490Y-80702288D01*
X155402490Y-80702288D02*
X155435823Y-80635621D01*
X155435823Y-80635621D02*
X155469157Y-80602288D01*
X155469157Y-80602288D02*
X155535823Y-80568954D01*
X155535823Y-80568954D02*
X155602490Y-80568954D01*
X155602490Y-80568954D02*
X155702490Y-80602288D01*
X155702490Y-80602288D02*
X156102490Y-81002288D01*
X156102490Y-81002288D02*
X156102490Y-80568954D01*
X155402490Y-80335621D02*
X155402490Y-79902287D01*
X155402490Y-79902287D02*
X155669157Y-80135621D01*
X155669157Y-80135621D02*
X155669157Y-80035621D01*
X155669157Y-80035621D02*
X155702490Y-79968954D01*
X155702490Y-79968954D02*
X155735823Y-79935621D01*
X155735823Y-79935621D02*
X155802490Y-79902287D01*
X155802490Y-79902287D02*
X155969157Y-79902287D01*
X155969157Y-79902287D02*
X156035823Y-79935621D01*
X156035823Y-79935621D02*
X156069157Y-79968954D01*
X156069157Y-79968954D02*
X156102490Y-80035621D01*
X156102490Y-80035621D02*
X156102490Y-80235621D01*
X156102490Y-80235621D02*
X156069157Y-80302287D01*
X156069157Y-80302287D02*
X156035823Y-80335621D01*
X141533823Y-111001287D02*
X141567157Y-111034620D01*
X141567157Y-111034620D02*
X141600490Y-111134620D01*
X141600490Y-111134620D02*
X141600490Y-111201287D01*
X141600490Y-111201287D02*
X141567157Y-111301287D01*
X141567157Y-111301287D02*
X141500490Y-111367954D01*
X141500490Y-111367954D02*
X141433823Y-111401287D01*
X141433823Y-111401287D02*
X141300490Y-111434620D01*
X141300490Y-111434620D02*
X141200490Y-111434620D01*
X141200490Y-111434620D02*
X141067157Y-111401287D01*
X141067157Y-111401287D02*
X141000490Y-111367954D01*
X141000490Y-111367954D02*
X140933823Y-111301287D01*
X140933823Y-111301287D02*
X140900490Y-111201287D01*
X140900490Y-111201287D02*
X140900490Y-111134620D01*
X140900490Y-111134620D02*
X140933823Y-111034620D01*
X140933823Y-111034620D02*
X140967157Y-111001287D01*
X140900490Y-110767954D02*
X140900490Y-110334620D01*
X140900490Y-110334620D02*
X141167157Y-110567954D01*
X141167157Y-110567954D02*
X141167157Y-110467954D01*
X141167157Y-110467954D02*
X141200490Y-110401287D01*
X141200490Y-110401287D02*
X141233823Y-110367954D01*
X141233823Y-110367954D02*
X141300490Y-110334620D01*
X141300490Y-110334620D02*
X141467157Y-110334620D01*
X141467157Y-110334620D02*
X141533823Y-110367954D01*
X141533823Y-110367954D02*
X141567157Y-110401287D01*
X141567157Y-110401287D02*
X141600490Y-110467954D01*
X141600490Y-110467954D02*
X141600490Y-110667954D01*
X141600490Y-110667954D02*
X141567157Y-110734620D01*
X141567157Y-110734620D02*
X141533823Y-110767954D01*
X174831823Y-84712287D02*
X174865157Y-84745620D01*
X174865157Y-84745620D02*
X174898490Y-84845620D01*
X174898490Y-84845620D02*
X174898490Y-84912287D01*
X174898490Y-84912287D02*
X174865157Y-85012287D01*
X174865157Y-85012287D02*
X174798490Y-85078954D01*
X174798490Y-85078954D02*
X174731823Y-85112287D01*
X174731823Y-85112287D02*
X174598490Y-85145620D01*
X174598490Y-85145620D02*
X174498490Y-85145620D01*
X174498490Y-85145620D02*
X174365157Y-85112287D01*
X174365157Y-85112287D02*
X174298490Y-85078954D01*
X174298490Y-85078954D02*
X174231823Y-85012287D01*
X174231823Y-85012287D02*
X174198490Y-84912287D01*
X174198490Y-84912287D02*
X174198490Y-84845620D01*
X174198490Y-84845620D02*
X174231823Y-84745620D01*
X174231823Y-84745620D02*
X174265157Y-84712287D01*
X174431823Y-84112287D02*
X174898490Y-84112287D01*
X174165157Y-84278954D02*
X174665157Y-84445620D01*
X174665157Y-84445620D02*
X174665157Y-84012287D01*
X177438490Y-81235621D02*
X177105157Y-81468954D01*
X177438490Y-81635621D02*
X176738490Y-81635621D01*
X176738490Y-81635621D02*
X176738490Y-81368954D01*
X176738490Y-81368954D02*
X176771823Y-81302288D01*
X176771823Y-81302288D02*
X176805157Y-81268954D01*
X176805157Y-81268954D02*
X176871823Y-81235621D01*
X176871823Y-81235621D02*
X176971823Y-81235621D01*
X176971823Y-81235621D02*
X177038490Y-81268954D01*
X177038490Y-81268954D02*
X177071823Y-81302288D01*
X177071823Y-81302288D02*
X177105157Y-81368954D01*
X177105157Y-81368954D02*
X177105157Y-81635621D01*
X176805157Y-80968954D02*
X176771823Y-80935621D01*
X176771823Y-80935621D02*
X176738490Y-80868954D01*
X176738490Y-80868954D02*
X176738490Y-80702288D01*
X176738490Y-80702288D02*
X176771823Y-80635621D01*
X176771823Y-80635621D02*
X176805157Y-80602288D01*
X176805157Y-80602288D02*
X176871823Y-80568954D01*
X176871823Y-80568954D02*
X176938490Y-80568954D01*
X176938490Y-80568954D02*
X177038490Y-80602288D01*
X177038490Y-80602288D02*
X177438490Y-81002288D01*
X177438490Y-81002288D02*
X177438490Y-80568954D01*
X177038490Y-80168954D02*
X177005157Y-80235621D01*
X177005157Y-80235621D02*
X176971823Y-80268954D01*
X176971823Y-80268954D02*
X176905157Y-80302287D01*
X176905157Y-80302287D02*
X176871823Y-80302287D01*
X176871823Y-80302287D02*
X176805157Y-80268954D01*
X176805157Y-80268954D02*
X176771823Y-80235621D01*
X176771823Y-80235621D02*
X176738490Y-80168954D01*
X176738490Y-80168954D02*
X176738490Y-80035621D01*
X176738490Y-80035621D02*
X176771823Y-79968954D01*
X176771823Y-79968954D02*
X176805157Y-79935621D01*
X176805157Y-79935621D02*
X176871823Y-79902287D01*
X176871823Y-79902287D02*
X176905157Y-79902287D01*
X176905157Y-79902287D02*
X176971823Y-79935621D01*
X176971823Y-79935621D02*
X177005157Y-79968954D01*
X177005157Y-79968954D02*
X177038490Y-80035621D01*
X177038490Y-80035621D02*
X177038490Y-80168954D01*
X177038490Y-80168954D02*
X177071823Y-80235621D01*
X177071823Y-80235621D02*
X177105157Y-80268954D01*
X177105157Y-80268954D02*
X177171823Y-80302287D01*
X177171823Y-80302287D02*
X177305157Y-80302287D01*
X177305157Y-80302287D02*
X177371823Y-80268954D01*
X177371823Y-80268954D02*
X177405157Y-80235621D01*
X177405157Y-80235621D02*
X177438490Y-80168954D01*
X177438490Y-80168954D02*
X177438490Y-80035621D01*
X177438490Y-80035621D02*
X177405157Y-79968954D01*
X177405157Y-79968954D02*
X177371823Y-79935621D01*
X177371823Y-79935621D02*
X177305157Y-79902287D01*
X177305157Y-79902287D02*
X177171823Y-79902287D01*
X177171823Y-79902287D02*
X177105157Y-79935621D01*
X177105157Y-79935621D02*
X177071823Y-79968954D01*
X177071823Y-79968954D02*
X177038490Y-80035621D01*
X177518823Y-111008287D02*
X177552157Y-111041620D01*
X177552157Y-111041620D02*
X177585490Y-111141620D01*
X177585490Y-111141620D02*
X177585490Y-111208287D01*
X177585490Y-111208287D02*
X177552157Y-111308287D01*
X177552157Y-111308287D02*
X177485490Y-111374954D01*
X177485490Y-111374954D02*
X177418823Y-111408287D01*
X177418823Y-111408287D02*
X177285490Y-111441620D01*
X177285490Y-111441620D02*
X177185490Y-111441620D01*
X177185490Y-111441620D02*
X177052157Y-111408287D01*
X177052157Y-111408287D02*
X176985490Y-111374954D01*
X176985490Y-111374954D02*
X176918823Y-111308287D01*
X176918823Y-111308287D02*
X176885490Y-111208287D01*
X176885490Y-111208287D02*
X176885490Y-111141620D01*
X176885490Y-111141620D02*
X176918823Y-111041620D01*
X176918823Y-111041620D02*
X176952157Y-111008287D01*
X176885490Y-110408287D02*
X176885490Y-110541620D01*
X176885490Y-110541620D02*
X176918823Y-110608287D01*
X176918823Y-110608287D02*
X176952157Y-110641620D01*
X176952157Y-110641620D02*
X177052157Y-110708287D01*
X177052157Y-110708287D02*
X177185490Y-110741620D01*
X177185490Y-110741620D02*
X177452157Y-110741620D01*
X177452157Y-110741620D02*
X177518823Y-110708287D01*
X177518823Y-110708287D02*
X177552157Y-110674954D01*
X177552157Y-110674954D02*
X177585490Y-110608287D01*
X177585490Y-110608287D02*
X177585490Y-110474954D01*
X177585490Y-110474954D02*
X177552157Y-110408287D01*
X177552157Y-110408287D02*
X177518823Y-110374954D01*
X177518823Y-110374954D02*
X177452157Y-110341620D01*
X177452157Y-110341620D02*
X177285490Y-110341620D01*
X177285490Y-110341620D02*
X177218823Y-110374954D01*
X177218823Y-110374954D02*
X177185490Y-110408287D01*
X177185490Y-110408287D02*
X177152157Y-110474954D01*
X177152157Y-110474954D02*
X177152157Y-110608287D01*
X177152157Y-110608287D02*
X177185490Y-110674954D01*
X177185490Y-110674954D02*
X177218823Y-110708287D01*
X177218823Y-110708287D02*
X177285490Y-110741620D01*
X131928490Y-93213954D02*
X131595157Y-93447287D01*
X131928490Y-93613954D02*
X131228490Y-93613954D01*
X131228490Y-93613954D02*
X131228490Y-93347287D01*
X131228490Y-93347287D02*
X131261823Y-93280621D01*
X131261823Y-93280621D02*
X131295157Y-93247287D01*
X131295157Y-93247287D02*
X131361823Y-93213954D01*
X131361823Y-93213954D02*
X131461823Y-93213954D01*
X131461823Y-93213954D02*
X131528490Y-93247287D01*
X131528490Y-93247287D02*
X131561823Y-93280621D01*
X131561823Y-93280621D02*
X131595157Y-93347287D01*
X131595157Y-93347287D02*
X131595157Y-93613954D01*
X131928490Y-92913954D02*
X131228490Y-92913954D01*
X131228490Y-92913954D02*
X131928490Y-92513954D01*
X131928490Y-92513954D02*
X131228490Y-92513954D01*
X131928490Y-91813954D02*
X131928490Y-92213954D01*
X131928490Y-92013954D02*
X131228490Y-92013954D01*
X131228490Y-92013954D02*
X131328490Y-92080621D01*
X131328490Y-92080621D02*
X131395157Y-92147288D01*
X131395157Y-92147288D02*
X131428490Y-92213954D01*
X105975490Y-119274287D02*
X105275490Y-119274287D01*
X105908823Y-118540954D02*
X105942157Y-118574287D01*
X105942157Y-118574287D02*
X105975490Y-118674287D01*
X105975490Y-118674287D02*
X105975490Y-118740954D01*
X105975490Y-118740954D02*
X105942157Y-118840954D01*
X105942157Y-118840954D02*
X105875490Y-118907621D01*
X105875490Y-118907621D02*
X105808823Y-118940954D01*
X105808823Y-118940954D02*
X105675490Y-118974287D01*
X105675490Y-118974287D02*
X105575490Y-118974287D01*
X105575490Y-118974287D02*
X105442157Y-118940954D01*
X105442157Y-118940954D02*
X105375490Y-118907621D01*
X105375490Y-118907621D02*
X105308823Y-118840954D01*
X105308823Y-118840954D02*
X105275490Y-118740954D01*
X105275490Y-118740954D02*
X105275490Y-118674287D01*
X105275490Y-118674287D02*
X105308823Y-118574287D01*
X105308823Y-118574287D02*
X105342157Y-118540954D01*
X105975490Y-117874287D02*
X105975490Y-118274287D01*
X105975490Y-118074287D02*
X105275490Y-118074287D01*
X105275490Y-118074287D02*
X105375490Y-118140954D01*
X105375490Y-118140954D02*
X105442157Y-118207621D01*
X105442157Y-118207621D02*
X105475490Y-118274287D01*
X105275490Y-117640954D02*
X105275490Y-117174287D01*
X105275490Y-117174287D02*
X105975490Y-117474287D01*
X137135490Y-116929621D02*
X136802157Y-117162954D01*
X137135490Y-117329621D02*
X136435490Y-117329621D01*
X136435490Y-117329621D02*
X136435490Y-117062954D01*
X136435490Y-117062954D02*
X136468823Y-116996288D01*
X136468823Y-116996288D02*
X136502157Y-116962954D01*
X136502157Y-116962954D02*
X136568823Y-116929621D01*
X136568823Y-116929621D02*
X136668823Y-116929621D01*
X136668823Y-116929621D02*
X136735490Y-116962954D01*
X136735490Y-116962954D02*
X136768823Y-116996288D01*
X136768823Y-116996288D02*
X136802157Y-117062954D01*
X136802157Y-117062954D02*
X136802157Y-117329621D01*
X136435490Y-116696288D02*
X136435490Y-116262954D01*
X136435490Y-116262954D02*
X136702157Y-116496288D01*
X136702157Y-116496288D02*
X136702157Y-116396288D01*
X136702157Y-116396288D02*
X136735490Y-116329621D01*
X136735490Y-116329621D02*
X136768823Y-116296288D01*
X136768823Y-116296288D02*
X136835490Y-116262954D01*
X136835490Y-116262954D02*
X137002157Y-116262954D01*
X137002157Y-116262954D02*
X137068823Y-116296288D01*
X137068823Y-116296288D02*
X137102157Y-116329621D01*
X137102157Y-116329621D02*
X137135490Y-116396288D01*
X137135490Y-116396288D02*
X137135490Y-116596288D01*
X137135490Y-116596288D02*
X137102157Y-116662954D01*
X137102157Y-116662954D02*
X137068823Y-116696288D01*
X136435490Y-115829621D02*
X136435490Y-115762954D01*
X136435490Y-115762954D02*
X136468823Y-115696287D01*
X136468823Y-115696287D02*
X136502157Y-115662954D01*
X136502157Y-115662954D02*
X136568823Y-115629621D01*
X136568823Y-115629621D02*
X136702157Y-115596287D01*
X136702157Y-115596287D02*
X136868823Y-115596287D01*
X136868823Y-115596287D02*
X137002157Y-115629621D01*
X137002157Y-115629621D02*
X137068823Y-115662954D01*
X137068823Y-115662954D02*
X137102157Y-115696287D01*
X137102157Y-115696287D02*
X137135490Y-115762954D01*
X137135490Y-115762954D02*
X137135490Y-115829621D01*
X137135490Y-115829621D02*
X137102157Y-115896287D01*
X137102157Y-115896287D02*
X137068823Y-115929621D01*
X137068823Y-115929621D02*
X137002157Y-115962954D01*
X137002157Y-115962954D02*
X136868823Y-115996287D01*
X136868823Y-115996287D02*
X136702157Y-115996287D01*
X136702157Y-115996287D02*
X136568823Y-115962954D01*
X136568823Y-115962954D02*
X136502157Y-115929621D01*
X136502157Y-115929621D02*
X136468823Y-115896287D01*
X136468823Y-115896287D02*
X136435490Y-115829621D01*
X169818490Y-74631621D02*
X169485157Y-74864954D01*
X169818490Y-75031621D02*
X169118490Y-75031621D01*
X169118490Y-75031621D02*
X169118490Y-74764954D01*
X169118490Y-74764954D02*
X169151823Y-74698288D01*
X169151823Y-74698288D02*
X169185157Y-74664954D01*
X169185157Y-74664954D02*
X169251823Y-74631621D01*
X169251823Y-74631621D02*
X169351823Y-74631621D01*
X169351823Y-74631621D02*
X169418490Y-74664954D01*
X169418490Y-74664954D02*
X169451823Y-74698288D01*
X169451823Y-74698288D02*
X169485157Y-74764954D01*
X169485157Y-74764954D02*
X169485157Y-75031621D01*
X169818490Y-73964954D02*
X169818490Y-74364954D01*
X169818490Y-74164954D02*
X169118490Y-74164954D01*
X169118490Y-74164954D02*
X169218490Y-74231621D01*
X169218490Y-74231621D02*
X169285157Y-74298288D01*
X169285157Y-74298288D02*
X169318490Y-74364954D01*
X169118490Y-73331621D02*
X169118490Y-73664954D01*
X169118490Y-73664954D02*
X169451823Y-73698287D01*
X169451823Y-73698287D02*
X169418490Y-73664954D01*
X169418490Y-73664954D02*
X169385157Y-73598287D01*
X169385157Y-73598287D02*
X169385157Y-73431621D01*
X169385157Y-73431621D02*
X169418490Y-73364954D01*
X169418490Y-73364954D02*
X169451823Y-73331621D01*
X169451823Y-73331621D02*
X169518490Y-73298287D01*
X169518490Y-73298287D02*
X169685157Y-73298287D01*
X169685157Y-73298287D02*
X169751823Y-73331621D01*
X169751823Y-73331621D02*
X169785157Y-73364954D01*
X169785157Y-73364954D02*
X169818490Y-73431621D01*
X169818490Y-73431621D02*
X169818490Y-73598287D01*
X169818490Y-73598287D02*
X169785157Y-73664954D01*
X169785157Y-73664954D02*
X169751823Y-73698287D01*
X115512157Y-77534954D02*
X115545490Y-77434954D01*
X115545490Y-77434954D02*
X115545490Y-77268288D01*
X115545490Y-77268288D02*
X115512157Y-77201621D01*
X115512157Y-77201621D02*
X115478823Y-77168288D01*
X115478823Y-77168288D02*
X115412157Y-77134954D01*
X115412157Y-77134954D02*
X115345490Y-77134954D01*
X115345490Y-77134954D02*
X115278823Y-77168288D01*
X115278823Y-77168288D02*
X115245490Y-77201621D01*
X115245490Y-77201621D02*
X115212157Y-77268288D01*
X115212157Y-77268288D02*
X115178823Y-77401621D01*
X115178823Y-77401621D02*
X115145490Y-77468288D01*
X115145490Y-77468288D02*
X115112157Y-77501621D01*
X115112157Y-77501621D02*
X115045490Y-77534954D01*
X115045490Y-77534954D02*
X114978823Y-77534954D01*
X114978823Y-77534954D02*
X114912157Y-77501621D01*
X114912157Y-77501621D02*
X114878823Y-77468288D01*
X114878823Y-77468288D02*
X114845490Y-77401621D01*
X114845490Y-77401621D02*
X114845490Y-77234954D01*
X114845490Y-77234954D02*
X114878823Y-77134954D01*
X114845490Y-76901621D02*
X115545490Y-76734954D01*
X115545490Y-76734954D02*
X115045490Y-76601621D01*
X115045490Y-76601621D02*
X115545490Y-76468287D01*
X115545490Y-76468287D02*
X114845490Y-76301621D01*
X115545490Y-75668287D02*
X115545490Y-76068287D01*
X115545490Y-75868287D02*
X114845490Y-75868287D01*
X114845490Y-75868287D02*
X114945490Y-75934954D01*
X114945490Y-75934954D02*
X115012157Y-76001621D01*
X115012157Y-76001621D02*
X115045490Y-76068287D01*
X151530490Y-84712287D02*
X151197157Y-84945620D01*
X151530490Y-85112287D02*
X150830490Y-85112287D01*
X150830490Y-85112287D02*
X150830490Y-84845620D01*
X150830490Y-84845620D02*
X150863823Y-84778954D01*
X150863823Y-84778954D02*
X150897157Y-84745620D01*
X150897157Y-84745620D02*
X150963823Y-84712287D01*
X150963823Y-84712287D02*
X151063823Y-84712287D01*
X151063823Y-84712287D02*
X151130490Y-84745620D01*
X151130490Y-84745620D02*
X151163823Y-84778954D01*
X151163823Y-84778954D02*
X151197157Y-84845620D01*
X151197157Y-84845620D02*
X151197157Y-85112287D01*
X150830490Y-84478954D02*
X150830490Y-84045620D01*
X150830490Y-84045620D02*
X151097157Y-84278954D01*
X151097157Y-84278954D02*
X151097157Y-84178954D01*
X151097157Y-84178954D02*
X151130490Y-84112287D01*
X151130490Y-84112287D02*
X151163823Y-84078954D01*
X151163823Y-84078954D02*
X151230490Y-84045620D01*
X151230490Y-84045620D02*
X151397157Y-84045620D01*
X151397157Y-84045620D02*
X151463823Y-84078954D01*
X151463823Y-84078954D02*
X151497157Y-84112287D01*
X151497157Y-84112287D02*
X151530490Y-84178954D01*
X151530490Y-84178954D02*
X151530490Y-84378954D01*
X151530490Y-84378954D02*
X151497157Y-84445620D01*
X151497157Y-84445620D02*
X151463823Y-84478954D01*
X167278490Y-80902287D02*
X166945157Y-81135620D01*
X167278490Y-81302287D02*
X166578490Y-81302287D01*
X166578490Y-81302287D02*
X166578490Y-81035620D01*
X166578490Y-81035620D02*
X166611823Y-80968954D01*
X166611823Y-80968954D02*
X166645157Y-80935620D01*
X166645157Y-80935620D02*
X166711823Y-80902287D01*
X166711823Y-80902287D02*
X166811823Y-80902287D01*
X166811823Y-80902287D02*
X166878490Y-80935620D01*
X166878490Y-80935620D02*
X166911823Y-80968954D01*
X166911823Y-80968954D02*
X166945157Y-81035620D01*
X166945157Y-81035620D02*
X166945157Y-81302287D01*
X166578490Y-80668954D02*
X166578490Y-80202287D01*
X166578490Y-80202287D02*
X167278490Y-80502287D01*
X167278490Y-74298287D02*
X166945157Y-74531620D01*
X167278490Y-74698287D02*
X166578490Y-74698287D01*
X166578490Y-74698287D02*
X166578490Y-74431620D01*
X166578490Y-74431620D02*
X166611823Y-74364954D01*
X166611823Y-74364954D02*
X166645157Y-74331620D01*
X166645157Y-74331620D02*
X166711823Y-74298287D01*
X166711823Y-74298287D02*
X166811823Y-74298287D01*
X166811823Y-74298287D02*
X166878490Y-74331620D01*
X166878490Y-74331620D02*
X166911823Y-74364954D01*
X166911823Y-74364954D02*
X166945157Y-74431620D01*
X166945157Y-74431620D02*
X166945157Y-74698287D01*
X166578490Y-73698287D02*
X166578490Y-73831620D01*
X166578490Y-73831620D02*
X166611823Y-73898287D01*
X166611823Y-73898287D02*
X166645157Y-73931620D01*
X166645157Y-73931620D02*
X166745157Y-73998287D01*
X166745157Y-73998287D02*
X166878490Y-74031620D01*
X166878490Y-74031620D02*
X167145157Y-74031620D01*
X167145157Y-74031620D02*
X167211823Y-73998287D01*
X167211823Y-73998287D02*
X167245157Y-73964954D01*
X167245157Y-73964954D02*
X167278490Y-73898287D01*
X167278490Y-73898287D02*
X167278490Y-73764954D01*
X167278490Y-73764954D02*
X167245157Y-73698287D01*
X167245157Y-73698287D02*
X167211823Y-73664954D01*
X167211823Y-73664954D02*
X167145157Y-73631620D01*
X167145157Y-73631620D02*
X166978490Y-73631620D01*
X166978490Y-73631620D02*
X166911823Y-73664954D01*
X166911823Y-73664954D02*
X166878490Y-73698287D01*
X166878490Y-73698287D02*
X166845157Y-73764954D01*
X166845157Y-73764954D02*
X166845157Y-73898287D01*
X166845157Y-73898287D02*
X166878490Y-73964954D01*
X166878490Y-73964954D02*
X166911823Y-73998287D01*
X166911823Y-73998287D02*
X166978490Y-74031620D01*
D11*
X163932857Y-88805785D02*
X163932857Y-89021457D01*
X164652857Y-88805785D02*
X164652857Y-89021457D01*
X153991357Y-73944363D02*
X153991357Y-74418879D01*
X155036357Y-73944363D02*
X155036357Y-74418879D01*
X165167357Y-73944363D02*
X165167357Y-74418879D01*
X166212357Y-73944363D02*
X166212357Y-74418879D01*
X172787357Y-80548363D02*
X172787357Y-81022879D01*
X173832357Y-80548363D02*
X173832357Y-81022879D01*
X141696857Y-86373621D02*
X141696857Y-84423621D01*
X141696857Y-86373621D02*
X141696857Y-88323621D01*
X150566857Y-86373621D02*
X150566857Y-84423621D01*
X150566857Y-86373621D02*
X150566857Y-88323621D01*
X141761857Y-89073621D02*
X141431857Y-89313621D01*
X141431857Y-88833621D01*
X141761857Y-89073621D01*
G36*
X141761857Y-89073621D02*
G01*
X141431857Y-89313621D01*
X141431857Y-88833621D01*
X141761857Y-89073621D01*
G37*
X145015857Y-72918873D02*
X145015857Y-72396369D01*
X146485857Y-72918873D02*
X146485857Y-72396369D01*
X152248857Y-88805785D02*
X152248857Y-89021457D01*
X152968857Y-88805785D02*
X152968857Y-89021457D01*
X159071357Y-80548363D02*
X159071357Y-81022879D01*
X160116357Y-80548363D02*
X160116357Y-81022879D01*
X116136857Y-85891785D02*
X116136857Y-86107457D01*
X116856857Y-85891785D02*
X116856857Y-86107457D01*
X170247357Y-81022879D02*
X170247357Y-80548363D01*
X171292357Y-81022879D02*
X171292357Y-80548363D01*
X165167357Y-77720879D02*
X165167357Y-77246363D01*
X166212357Y-77720879D02*
X166212357Y-77246363D01*
X140564857Y-80931785D02*
X140564857Y-81147457D01*
X141284857Y-80931785D02*
X141284857Y-81147457D01*
X117606857Y-86457621D02*
X117841857Y-86457621D01*
X117606857Y-90317621D02*
X117606857Y-86457621D01*
X117606857Y-90317621D02*
X117606857Y-94177621D01*
X117606857Y-94177621D02*
X117841857Y-94177621D01*
X130626857Y-86457621D02*
X130391857Y-86457621D01*
X130626857Y-90317621D02*
X130626857Y-86457621D01*
X130626857Y-90317621D02*
X130626857Y-94177621D01*
X130626857Y-94177621D02*
X130391857Y-94177621D01*
X117841857Y-95030121D02*
X117371857Y-95370121D01*
X117371857Y-94690121D01*
X117841857Y-95030121D01*
G36*
X117841857Y-95030121D02*
G01*
X117371857Y-95370121D01*
X117371857Y-94690121D01*
X117841857Y-95030121D01*
G37*
X100188861Y-99859621D02*
X100188861Y-105319621D01*
X100188861Y-107319621D02*
X100188861Y-112779621D01*
X100188861Y-112779621D02*
X135868861Y-112779621D01*
X135868861Y-99859621D02*
X100188861Y-99859621D01*
X135868861Y-112779621D02*
X135868861Y-99859621D01*
X100188861Y-105319621D02*
G75*
G02*
X100188861Y-107319621I0J-1000000D01*
G01*
X165167357Y-81022879D02*
X165167357Y-80548363D01*
X166212357Y-81022879D02*
X166212357Y-80548363D01*
X105214857Y-116079457D02*
X105214857Y-115863785D01*
X105934857Y-116079457D02*
X105934857Y-115863785D01*
X159071357Y-77720879D02*
X159071357Y-77246363D01*
X160116357Y-77720879D02*
X160116357Y-77246363D01*
X167707357Y-77720879D02*
X167707357Y-77246363D01*
X168752357Y-77720879D02*
X168752357Y-77246363D01*
X137208857Y-110783785D02*
X137208857Y-110999457D01*
X137928857Y-110783785D02*
X137928857Y-110999457D01*
X175489857Y-89021457D02*
X175489857Y-88805785D01*
X176209857Y-89021457D02*
X176209857Y-88805785D01*
X111310857Y-116079457D02*
X111310857Y-115863785D01*
X112030857Y-116079457D02*
X112030857Y-115863785D01*
X162627357Y-81022879D02*
X162627357Y-80548363D01*
X163672357Y-81022879D02*
X163672357Y-80548363D01*
X153991357Y-77720879D02*
X153991357Y-77246363D01*
X155036357Y-77720879D02*
X155036357Y-77246363D01*
X162627357Y-77246363D02*
X162627357Y-77720879D01*
X163672357Y-77246363D02*
X163672357Y-77720879D01*
X139494857Y-110783785D02*
X139494857Y-110999457D01*
X140214857Y-110783785D02*
X140214857Y-110999457D01*
X177740357Y-73944363D02*
X177740357Y-74418879D01*
X178785357Y-73944363D02*
X178785357Y-74418879D01*
X147809857Y-72396369D02*
X147809857Y-72918873D01*
X149279857Y-72396369D02*
X149279857Y-72918873D01*
X153991357Y-80548363D02*
X153991357Y-81022879D01*
X155036357Y-80548363D02*
X155036357Y-81022879D01*
X153380857Y-86373621D02*
X153380857Y-84423621D01*
X153380857Y-86373621D02*
X153380857Y-88323621D01*
X162250857Y-86373621D02*
X162250857Y-84423621D01*
X162250857Y-86373621D02*
X162250857Y-88323621D01*
X153445857Y-89073621D02*
X153115857Y-89313621D01*
X153115857Y-88833621D01*
X153445857Y-89073621D01*
G36*
X153445857Y-89073621D02*
G01*
X153115857Y-89313621D01*
X153115857Y-88833621D01*
X153445857Y-89073621D01*
G37*
X180067857Y-79300621D02*
X180067857Y-81585621D01*
X181537857Y-79300621D02*
X180067857Y-79300621D01*
X181537857Y-81585621D02*
X181537857Y-79300621D01*
X112650857Y-117749621D02*
X112650857Y-116949621D01*
X112650857Y-117749621D02*
X112650857Y-118549621D01*
X115770857Y-117749621D02*
X115770857Y-116949621D01*
X115770857Y-117749621D02*
X115770857Y-118549621D01*
X112700857Y-119049621D02*
X112370857Y-119289621D01*
X112370857Y-118809621D01*
X112700857Y-119049621D01*
G36*
X112700857Y-119049621D02*
G01*
X112370857Y-119289621D01*
X112370857Y-118809621D01*
X112700857Y-119049621D01*
G37*
D15*
G36*
X100937604Y-84301810D02*
G01*
X100937604Y-85166849D01*
X100860115Y-85157654D01*
X100676309Y-85131630D01*
X100491219Y-85097622D01*
X100312834Y-85057471D01*
X100149143Y-85013018D01*
X100008136Y-84966102D01*
X99978014Y-84954463D01*
X99818694Y-84880340D01*
X99682444Y-84795393D01*
X99570557Y-84701563D01*
X99484326Y-84600792D01*
X99425044Y-84495023D01*
X99394003Y-84386196D01*
X99392497Y-84276254D01*
X99421818Y-84167138D01*
X99434860Y-84138723D01*
X99503369Y-84035345D01*
X99602441Y-83935946D01*
X99730155Y-83841446D01*
X99884590Y-83752768D01*
X100063825Y-83670831D01*
X100265940Y-83596559D01*
X100489013Y-83530871D01*
X100731125Y-83474689D01*
X100876428Y-83447355D01*
X100937604Y-83436772D01*
X100937604Y-84301810D01*
G37*
G36*
X100825422Y-87046113D02*
G01*
X100863198Y-87057050D01*
X100895746Y-87081045D01*
X100906232Y-87091202D01*
X100938620Y-87131430D01*
X100952094Y-87175372D01*
X100953917Y-87212369D01*
X100943646Y-87277793D01*
X100911375Y-87321922D01*
X100854918Y-87346535D01*
X100780426Y-87353472D01*
X100722844Y-87357312D01*
X100696062Y-87370277D01*
X100699002Y-87394530D01*
X100730586Y-87432237D01*
X100737764Y-87439221D01*
X100807829Y-87489763D01*
X100901561Y-87533222D01*
X101010196Y-87566075D01*
X101089683Y-87580774D01*
X101147182Y-87586304D01*
X101229493Y-87591110D01*
X101328805Y-87594889D01*
X101437305Y-87597343D01*
X101542381Y-87598173D01*
X101867469Y-87598173D01*
X101867469Y-87459509D01*
X101867843Y-87392361D01*
X101870233Y-87351381D01*
X101876538Y-87330108D01*
X101888659Y-87322082D01*
X101908252Y-87320845D01*
X101949036Y-87320845D01*
X101949036Y-87753151D01*
X101949036Y-88185456D01*
X101908912Y-88185456D01*
X101889192Y-88183880D01*
X101876978Y-88174788D01*
X101870091Y-88151633D01*
X101866346Y-88107870D01*
X101864050Y-88050871D01*
X101859312Y-87916285D01*
X101263872Y-87916285D01*
X100668432Y-87916285D01*
X100663677Y-88051889D01*
X100660942Y-88118060D01*
X100657026Y-88157892D01*
X100649800Y-88177656D01*
X100637134Y-88183627D01*
X100619369Y-88182396D01*
X100579814Y-88177300D01*
X100572648Y-87916285D01*
X100569509Y-87825413D01*
X100565512Y-87744597D01*
X100561060Y-87680122D01*
X100556558Y-87638270D01*
X100554037Y-87626722D01*
X100551534Y-87613874D01*
X100559968Y-87605571D01*
X100584674Y-87600838D01*
X100630984Y-87598697D01*
X100704233Y-87598174D01*
X100710076Y-87598173D01*
X100877561Y-87598173D01*
X100778094Y-87548469D01*
X100679042Y-87486616D01*
X100607508Y-87414852D01*
X100564887Y-87335447D01*
X100552571Y-87250670D01*
X100561149Y-87194962D01*
X100594867Y-87120332D01*
X100649207Y-87070900D01*
X100724470Y-87046447D01*
X100768819Y-87043517D01*
X100825422Y-87046113D01*
G37*
G36*
X101520808Y-89467629D02*
G01*
X101595538Y-89492334D01*
X101679696Y-89531683D01*
X101761974Y-89579363D01*
X101831064Y-89629063D01*
X101862549Y-89658373D01*
X101931839Y-89756579D01*
X101976966Y-89870712D01*
X101996248Y-89993051D01*
X101988001Y-90115878D01*
X101974309Y-90171028D01*
X101919034Y-90295220D01*
X101837467Y-90406230D01*
X101734308Y-90501064D01*
X101614260Y-90576731D01*
X101482026Y-90630238D01*
X101342305Y-90658593D01*
X101206775Y-90659494D01*
X101081344Y-90635672D01*
X100955467Y-90590078D01*
X100837660Y-90527139D01*
X100736438Y-90451283D01*
X100670290Y-90380598D01*
X100598957Y-90265272D01*
X100552695Y-90142484D01*
X100531610Y-90017291D01*
X100535809Y-89894750D01*
X100565398Y-89779919D01*
X100620485Y-89677853D01*
X100654584Y-89636403D01*
X100734513Y-89566888D01*
X100816365Y-89525010D01*
X100896512Y-89511377D01*
X100971326Y-89526599D01*
X101037177Y-89571284D01*
X101037939Y-89572042D01*
X101075907Y-89627989D01*
X101081724Y-89688450D01*
X101057258Y-89751716D01*
X101009650Y-89804836D01*
X100948264Y-89829580D01*
X100876269Y-89825452D01*
X100797531Y-89792366D01*
X100752184Y-89770346D01*
X100715201Y-89760256D01*
X100703275Y-89761109D01*
X100665873Y-89791623D01*
X100636384Y-89847880D01*
X100617992Y-89923341D01*
X100615895Y-89940467D01*
X100618970Y-90043622D01*
X100648891Y-90133781D01*
X100703167Y-90206873D01*
X100779312Y-90258825D01*
X100819838Y-90274159D01*
X100870652Y-90283964D01*
X100946985Y-90291891D01*
X101041771Y-90297749D01*
X101147945Y-90301349D01*
X101258442Y-90302500D01*
X101366198Y-90301012D01*
X101464146Y-90296695D01*
X101513667Y-90292822D01*
X101641587Y-90275637D01*
X101740639Y-90249860D01*
X101813957Y-90213265D01*
X101864670Y-90163629D01*
X101895912Y-90098726D01*
X101910813Y-90016334D01*
X101911282Y-90010442D01*
X101913690Y-89946366D01*
X101907190Y-89897877D01*
X101888498Y-89848422D01*
X101872856Y-89816803D01*
X101807351Y-89724031D01*
X101714770Y-89644777D01*
X101598969Y-89582176D01*
X101570410Y-89570819D01*
X101516904Y-89548749D01*
X101488031Y-89529881D01*
X101476953Y-89508827D01*
X101475946Y-89496387D01*
X101480096Y-89469295D01*
X101499164Y-89463636D01*
X101520808Y-89467629D01*
G37*
G36*
X101246707Y-88112192D02*
G01*
X101336585Y-88112578D01*
X101401696Y-88114425D01*
X101449895Y-88118971D01*
X101489040Y-88127458D01*
X101526989Y-88141124D01*
X101571600Y-88161210D01*
X101578797Y-88164592D01*
X101676321Y-88222272D01*
X101771714Y-88299635D01*
X101856492Y-88388399D01*
X101922168Y-88480277D01*
X101943170Y-88520301D01*
X101976901Y-88622606D01*
X101993398Y-88737279D01*
X101991959Y-88851932D01*
X101971880Y-88954179D01*
X101968353Y-88964557D01*
X101904624Y-89095527D01*
X101814254Y-89212097D01*
X101701698Y-89309735D01*
X101571414Y-89383909D01*
X101545165Y-89394920D01*
X101497494Y-89411726D01*
X101449828Y-89422753D01*
X101393262Y-89429165D01*
X101318890Y-89432125D01*
X101255715Y-89432754D01*
X101221578Y-89432714D01*
X101171946Y-89432657D01*
X101111779Y-89430588D01*
X101066189Y-89424905D01*
X101026154Y-89413968D01*
X100982648Y-89396135D01*
X100937258Y-89374835D01*
X100808001Y-89297207D01*
X100701611Y-89200726D01*
X100619468Y-89089077D01*
X100562951Y-88965944D01*
X100533437Y-88835012D01*
X100532524Y-88725940D01*
X100615371Y-88725940D01*
X100616349Y-88818219D01*
X100642987Y-88903515D01*
X100692946Y-88975986D01*
X100763886Y-89029791D01*
X100809132Y-89048724D01*
X100850782Y-89056220D01*
X100918929Y-89061928D01*
X101007497Y-89065889D01*
X101110406Y-89068142D01*
X101221578Y-89068727D01*
X101334937Y-89067684D01*
X101444403Y-89065053D01*
X101543899Y-89060873D01*
X101627347Y-89055185D01*
X101688669Y-89048028D01*
X101713150Y-89042799D01*
X101799697Y-89001827D01*
X101864044Y-88940329D01*
X101904152Y-88863429D01*
X101917985Y-88776251D01*
X101903502Y-88683922D01*
X101879057Y-88625670D01*
X101848260Y-88579200D01*
X101807935Y-88542068D01*
X101754563Y-88513363D01*
X101684628Y-88492172D01*
X101594613Y-88477583D01*
X101481000Y-88468684D01*
X101340273Y-88464562D01*
X101255715Y-88464005D01*
X101098755Y-88466052D01*
X100970839Y-88473124D01*
X100868645Y-88486133D01*
X100788852Y-88505993D01*
X100728138Y-88533615D01*
X100683179Y-88569914D01*
X100650655Y-88615800D01*
X100642394Y-88632518D01*
X100615371Y-88725940D01*
X100532524Y-88725940D01*
X100532307Y-88699964D01*
X100560939Y-88564487D01*
X100599277Y-88471669D01*
X100650382Y-88393319D01*
X100722986Y-88312482D01*
X100807958Y-88237912D01*
X100896167Y-88178363D01*
X100916661Y-88167353D01*
X100961396Y-88145157D01*
X100997964Y-88129875D01*
X101034052Y-88120222D01*
X101077351Y-88114912D01*
X101135548Y-88112660D01*
X101216334Y-88112181D01*
X101246707Y-88112192D01*
G37*
G36*
X102387490Y-83290628D02*
G01*
X102408922Y-83322138D01*
X102435281Y-83374170D01*
X102437899Y-83379951D01*
X102464399Y-83439125D01*
X102479494Y-83475087D01*
X102484840Y-83494521D01*
X102482099Y-83504108D01*
X102472929Y-83510535D01*
X102470659Y-83511912D01*
X102445706Y-83540064D01*
X102413175Y-83596919D01*
X102374061Y-83679696D01*
X102329358Y-83785619D01*
X102280059Y-83911907D01*
X102227160Y-84055783D01*
X102171654Y-84214467D01*
X102114536Y-84385181D01*
X102056800Y-84565146D01*
X101999441Y-84751583D01*
X101943452Y-84941715D01*
X101889827Y-85132761D01*
X101887031Y-85143003D01*
X101869226Y-85203090D01*
X101854499Y-85237113D01*
X101839469Y-85250990D01*
X101824978Y-85251568D01*
X101797593Y-85245322D01*
X101790385Y-85242456D01*
X101793060Y-85226289D01*
X101802909Y-85183862D01*
X101818570Y-85120407D01*
X101838684Y-85041155D01*
X101861890Y-84951338D01*
X101886828Y-84856187D01*
X101912137Y-84760934D01*
X101936457Y-84670810D01*
X101958427Y-84591047D01*
X101974640Y-84533914D01*
X101991482Y-84470832D01*
X102002518Y-84419499D01*
X102006117Y-84388004D01*
X102005117Y-84382786D01*
X101983734Y-84371956D01*
X101951157Y-84368115D01*
X101924254Y-84371312D01*
X101907206Y-84386145D01*
X101893967Y-84420481D01*
X101885326Y-84453761D01*
X101868926Y-84506174D01*
X101842131Y-84576388D01*
X101809386Y-84653150D01*
X101790306Y-84694384D01*
X101701473Y-84846443D01*
X101592592Y-84973506D01*
X101464537Y-85074666D01*
X101375420Y-85124207D01*
X101309086Y-85152569D01*
X101239248Y-85176990D01*
X101173448Y-85195473D01*
X101119232Y-85206023D01*
X101084143Y-85206645D01*
X101076684Y-85203235D01*
X101075078Y-85185774D01*
X101073569Y-85138673D01*
X101072187Y-85064920D01*
X101070960Y-84967501D01*
X101069916Y-84849406D01*
X101069083Y-84713619D01*
X101068490Y-84563129D01*
X101068165Y-84400923D01*
X101068111Y-84300143D01*
X101068111Y-83405623D01*
X101106341Y-83405623D01*
X101142344Y-83410851D01*
X101195475Y-83424354D01*
X101238245Y-83437852D01*
X101400572Y-83510494D01*
X101545881Y-83609624D01*
X101671702Y-83732525D01*
X101775561Y-83876477D01*
X101854987Y-84038765D01*
X101893884Y-84158605D01*
X101922425Y-84267207D01*
X101980592Y-84258440D01*
X102021977Y-84250023D01*
X102047567Y-84240820D01*
X102049213Y-84239562D01*
X102057902Y-84220670D01*
X102073372Y-84177302D01*
X102093282Y-84116308D01*
X102111213Y-84058160D01*
X102138263Y-83970264D01*
X102169550Y-83871852D01*
X102203432Y-83767748D01*
X102238270Y-83662778D01*
X102272422Y-83561765D01*
X102304247Y-83469532D01*
X102332105Y-83390904D01*
X102354355Y-83330705D01*
X102369356Y-83293759D01*
X102374314Y-83284628D01*
X102387490Y-83290628D01*
G37*
G36*
X101949036Y-85745516D02*
G01*
X101949036Y-86146278D01*
X101908998Y-86146278D01*
X101887675Y-86144191D01*
X101875195Y-86133116D01*
X101868616Y-86105838D01*
X101865000Y-86055141D01*
X101864136Y-86036163D01*
X101859312Y-85926047D01*
X101304656Y-85926213D01*
X101143540Y-85926421D01*
X101011912Y-85927262D01*
X100906633Y-85929225D01*
X100824566Y-85932796D01*
X100762571Y-85938462D01*
X100717510Y-85946711D01*
X100686244Y-85958029D01*
X100665635Y-85972904D01*
X100652544Y-85991822D01*
X100643833Y-86015272D01*
X100640007Y-86029362D01*
X100637086Y-86102403D01*
X100661090Y-86180365D01*
X100708270Y-86257051D01*
X100774876Y-86326263D01*
X100851316Y-86378679D01*
X100907523Y-86407082D01*
X100962779Y-86429244D01*
X101022147Y-86445902D01*
X101090692Y-86457794D01*
X101173479Y-86465658D01*
X101275570Y-86470232D01*
X101402031Y-86472252D01*
X101495687Y-86472547D01*
X101867469Y-86472547D01*
X101867469Y-86366510D01*
X101868184Y-86309509D01*
X101872219Y-86277760D01*
X101882410Y-86263892D01*
X101901591Y-86260534D01*
X101908252Y-86260472D01*
X101949036Y-86260472D01*
X101949036Y-86643838D01*
X101949036Y-87027203D01*
X101908252Y-87027203D01*
X101886945Y-87025524D01*
X101874750Y-87015747D01*
X101869129Y-86990762D01*
X101867543Y-86943459D01*
X101867469Y-86913009D01*
X101867469Y-86798815D01*
X101263872Y-86798815D01*
X100660275Y-86798815D01*
X100660275Y-86914093D01*
X100659766Y-86974000D01*
X100656567Y-87008039D01*
X100648170Y-87022970D01*
X100632069Y-87025552D01*
X100619429Y-87024209D01*
X100578582Y-87019047D01*
X100569197Y-86790659D01*
X100565566Y-86704198D01*
X100562161Y-86626520D01*
X100559313Y-86564927D01*
X100557351Y-86526721D01*
X100557025Y-86521487D01*
X100554238Y-86480704D01*
X100713316Y-86480704D01*
X100780862Y-86479727D01*
X100834162Y-86477098D01*
X100866224Y-86473268D01*
X100872372Y-86470448D01*
X100858914Y-86458000D01*
X100826003Y-86441050D01*
X100820623Y-86438766D01*
X100763086Y-86404136D01*
X100699658Y-86349194D01*
X100638687Y-86282980D01*
X100588524Y-86214536D01*
X100558044Y-86154435D01*
X100532375Y-86038707D01*
X100536711Y-85928724D01*
X100570295Y-85828155D01*
X100632373Y-85740668D01*
X100646048Y-85727035D01*
X100677541Y-85698096D01*
X100707287Y-85674671D01*
X100739088Y-85656111D01*
X100776746Y-85641770D01*
X100824062Y-85630999D01*
X100884840Y-85623151D01*
X100962880Y-85617579D01*
X101061986Y-85613636D01*
X101185958Y-85610673D01*
X101338600Y-85608044D01*
X101345439Y-85607935D01*
X101859312Y-85599779D01*
X101861220Y-85477428D01*
X101862738Y-85415100D01*
X101866561Y-85378226D01*
X101875211Y-85359631D01*
X101891212Y-85352144D01*
X101906082Y-85349915D01*
X101949036Y-85344754D01*
X101949036Y-85745516D01*
G37*
G36*
X101949036Y-90991365D02*
G01*
X101949036Y-91464454D01*
X101908252Y-91464454D01*
X101889664Y-91463445D01*
X101877808Y-91456423D01*
X101871169Y-91437400D01*
X101868234Y-91400388D01*
X101867491Y-91339398D01*
X101867469Y-91303053D01*
X101867469Y-91141651D01*
X101749196Y-91179038D01*
X101684068Y-91199545D01*
X101599777Y-91225970D01*
X101508320Y-91254559D01*
X101439241Y-91276093D01*
X101247559Y-91335760D01*
X101247559Y-91649236D01*
X101247559Y-91962712D01*
X101537122Y-92058477D01*
X101629721Y-92089145D01*
X101712285Y-92116572D01*
X101779555Y-92139005D01*
X101826273Y-92154689D01*
X101847077Y-92161832D01*
X101856224Y-92157397D01*
X101862364Y-92133436D01*
X101865937Y-92086023D01*
X101867383Y-92011233D01*
X101867469Y-91980073D01*
X101867469Y-91790723D01*
X101908252Y-91790723D01*
X101949036Y-91790723D01*
X101949036Y-92157775D01*
X101949036Y-92524827D01*
X101908252Y-92524827D01*
X101888455Y-92523542D01*
X101876396Y-92515369D01*
X101870156Y-92493828D01*
X101867820Y-92452439D01*
X101867469Y-92387006D01*
X101867469Y-92249184D01*
X101357674Y-92083942D01*
X101149678Y-92016445D01*
X101078363Y-91993302D01*
X100828751Y-91912065D01*
X100607440Y-91839753D01*
X100413033Y-91775890D01*
X100244133Y-91719999D01*
X100099342Y-91671605D01*
X100015070Y-91643044D01*
X100279794Y-91643044D01*
X100283597Y-91655272D01*
X100311385Y-91666725D01*
X100312421Y-91666974D01*
X100342856Y-91675454D01*
X100398612Y-91692180D01*
X100473967Y-91715343D01*
X100563204Y-91743134D01*
X100660602Y-91773746D01*
X100760442Y-91805369D01*
X100857005Y-91836194D01*
X100944571Y-91864414D01*
X101017421Y-91888219D01*
X101069836Y-91905801D01*
X101088503Y-91912391D01*
X101149678Y-91934919D01*
X101149678Y-91649001D01*
X101149428Y-91545896D01*
X101148404Y-91471191D01*
X101146196Y-91420664D01*
X101142395Y-91390090D01*
X101136590Y-91375247D01*
X101128371Y-91371909D01*
X101122917Y-91373352D01*
X101100518Y-91380784D01*
X101051408Y-91396355D01*
X100980079Y-91418665D01*
X100891022Y-91446314D01*
X100788728Y-91477903D01*
X100694690Y-91506816D01*
X100585512Y-91540652D01*
X100486584Y-91571949D01*
X100402216Y-91599292D01*
X100336718Y-91621265D01*
X100294399Y-91636454D01*
X100279794Y-91643044D01*
X100015070Y-91643044D01*
X99977264Y-91630231D01*
X99876501Y-91595400D01*
X99795656Y-91566637D01*
X99733332Y-91543464D01*
X99688131Y-91525407D01*
X99658657Y-91511987D01*
X99643513Y-91502730D01*
X99640686Y-91498579D01*
X99641004Y-91493721D01*
X99643400Y-91488875D01*
X99650035Y-91483316D01*
X99663074Y-91476321D01*
X99684678Y-91467166D01*
X99717009Y-91455127D01*
X99762232Y-91439480D01*
X99822507Y-91419502D01*
X99899998Y-91394467D01*
X99996868Y-91363653D01*
X100115278Y-91326336D01*
X100257392Y-91281791D01*
X100425371Y-91229295D01*
X100621380Y-91168123D01*
X100717372Y-91138176D01*
X100867770Y-91091226D01*
X101019108Y-91043928D01*
X101166114Y-90997933D01*
X101303514Y-90954893D01*
X101426034Y-90916461D01*
X101528399Y-90884288D01*
X101605336Y-90860027D01*
X101610532Y-90858384D01*
X101867469Y-90777076D01*
X101867469Y-90647676D01*
X101867912Y-90583284D01*
X101870648Y-90544833D01*
X101877783Y-90525638D01*
X101891424Y-90519015D01*
X101908252Y-90518276D01*
X101949036Y-90518276D01*
X101949036Y-90991365D01*
G37*
D11*
X162627357Y-73944363D02*
X162627357Y-74418879D01*
X163672357Y-73944363D02*
X163672357Y-74418879D01*
X140564857Y-88805785D02*
X140564857Y-89021457D01*
X141284857Y-88805785D02*
X141284857Y-89021457D01*
X142221857Y-72918873D02*
X142221857Y-72396369D01*
X143691857Y-72918873D02*
X143691857Y-72396369D01*
X177740357Y-77720879D02*
X177740357Y-77246363D01*
X178785357Y-77720879D02*
X178785357Y-77246363D01*
X141706857Y-78499621D02*
X141706857Y-76549621D01*
X141706857Y-78499621D02*
X141706857Y-80449621D01*
X151826857Y-78499621D02*
X151826857Y-76549621D01*
X151826857Y-78499621D02*
X151826857Y-80449621D01*
X141761857Y-81199621D02*
X141431857Y-81439621D01*
X141431857Y-80959621D01*
X141761857Y-81199621D01*
G36*
X141761857Y-81199621D02*
G01*
X141431857Y-81439621D01*
X141431857Y-80959621D01*
X141761857Y-81199621D01*
G37*
X137352857Y-107328621D02*
X137352857Y-106528621D01*
X137352857Y-107328621D02*
X137352857Y-108128621D01*
X140472857Y-107328621D02*
X140472857Y-106528621D01*
X140472857Y-107328621D02*
X140472857Y-108128621D01*
X140752857Y-106268621D02*
X140422857Y-106028621D01*
X140752857Y-105788621D01*
X140752857Y-106268621D01*
G36*
X140752857Y-106268621D02*
G01*
X140422857Y-106028621D01*
X140752857Y-105788621D01*
X140752857Y-106268621D01*
G37*
X163528857Y-84455041D02*
X163528857Y-84736201D01*
X164548857Y-84455041D02*
X164548857Y-84736201D01*
X132302857Y-87796621D02*
X132302857Y-86996621D01*
X135742857Y-87796621D02*
X135742857Y-86996621D01*
X180067857Y-75998621D02*
X180067857Y-78283621D01*
X181537857Y-75998621D02*
X180067857Y-75998621D01*
X181537857Y-78283621D02*
X181537857Y-75998621D01*
X172787357Y-77720879D02*
X172787357Y-77246363D01*
X173832357Y-77720879D02*
X173832357Y-77246363D01*
X165064857Y-86373621D02*
X165064857Y-84423621D01*
X165064857Y-86373621D02*
X165064857Y-88323621D01*
X173934857Y-86373621D02*
X173934857Y-84423621D01*
X173934857Y-86373621D02*
X173934857Y-88323621D01*
X165129857Y-89073621D02*
X164799857Y-89313621D01*
X164799857Y-88833621D01*
X165129857Y-89073621D01*
G36*
X165129857Y-89073621D02*
G01*
X164799857Y-89313621D01*
X164799857Y-88833621D01*
X165129857Y-89073621D01*
G37*
X150476857Y-71172621D02*
X150476857Y-73457621D01*
X151946857Y-71172621D02*
X150476857Y-71172621D01*
X151946857Y-73457621D02*
X151946857Y-71172621D01*
X176591857Y-86373621D02*
X176591857Y-84423621D01*
X176591857Y-86373621D02*
X176591857Y-88323621D01*
X181711857Y-86373621D02*
X181711857Y-84423621D01*
X181711857Y-86373621D02*
X181711857Y-88323621D01*
X176686857Y-89073621D02*
X176356857Y-89313621D01*
X176356857Y-88833621D01*
X176686857Y-89073621D01*
G36*
X176686857Y-89073621D02*
G01*
X176356857Y-89313621D01*
X176356857Y-88833621D01*
X176686857Y-89073621D01*
G37*
X138072357Y-119129879D02*
X138072357Y-118655363D01*
X139117357Y-119129879D02*
X139117357Y-118655363D01*
X137208857Y-104134457D02*
X137208857Y-103918785D01*
X137928857Y-104134457D02*
X137928857Y-103918785D01*
X156531357Y-77720879D02*
X156531357Y-77246363D01*
X157576357Y-77720879D02*
X157576357Y-77246363D01*
X159071357Y-74418879D02*
X159071357Y-73944363D01*
X160116357Y-74418879D02*
X160116357Y-73944363D01*
X156531357Y-74418879D02*
X156531357Y-73944363D01*
X157576357Y-74418879D02*
X157576357Y-73944363D01*
X115784357Y-88359363D02*
X115784357Y-88833879D01*
X116829357Y-88359363D02*
X116829357Y-88833879D01*
X172787357Y-73944363D02*
X172787357Y-74418879D01*
X173832357Y-73944363D02*
X173832357Y-74418879D01*
X170247357Y-77720879D02*
X170247357Y-77246363D01*
X171292357Y-77720879D02*
X171292357Y-77246363D01*
X156531357Y-80548363D02*
X156531357Y-81022879D01*
X157576357Y-80548363D02*
X157576357Y-81022879D01*
X141958857Y-111025201D02*
X141958857Y-110744041D01*
X142978857Y-111025201D02*
X142978857Y-110744041D01*
X175085857Y-84455041D02*
X175085857Y-84736201D01*
X176105857Y-84455041D02*
X176105857Y-84736201D01*
X177740357Y-80548363D02*
X177740357Y-81022879D01*
X178785357Y-80548363D02*
X178785357Y-81022879D01*
X178055857Y-111152873D02*
X178055857Y-110630369D01*
X179525857Y-111152873D02*
X179525857Y-110630369D01*
X132302857Y-93130621D02*
X132302857Y-92330621D01*
X135742857Y-93130621D02*
X135742857Y-92330621D01*
X106421857Y-117749621D02*
X106421857Y-116599621D01*
X106421857Y-117749621D02*
X106421857Y-118899621D01*
X108791857Y-117749621D02*
X108791857Y-116599621D01*
X108791857Y-117749621D02*
X108791857Y-118899621D01*
X107096857Y-120364621D02*
X106616857Y-120364621D01*
X106856857Y-120034621D01*
X107096857Y-120364621D01*
G36*
X107096857Y-120364621D02*
G01*
X106616857Y-120364621D01*
X106856857Y-120034621D01*
X107096857Y-120364621D01*
G37*
X180067857Y-72696621D02*
X180067857Y-74981621D01*
X181537857Y-72696621D02*
X180067857Y-72696621D01*
X181537857Y-74981621D02*
X181537857Y-72696621D01*
X136294357Y-119129879D02*
X136294357Y-118655363D01*
X137339357Y-119129879D02*
X137339357Y-118655363D01*
X170247357Y-73944363D02*
X170247357Y-74418879D01*
X171292357Y-73944363D02*
X171292357Y-74418879D01*
X115966857Y-73441621D02*
X117706857Y-73441621D01*
X115966857Y-79761621D02*
X115966857Y-73441621D01*
X115966857Y-79761621D02*
X116916857Y-79761621D01*
X116916857Y-81801621D02*
X116916857Y-79761621D01*
X137346857Y-73441621D02*
X135606857Y-73441621D01*
X137346857Y-79761621D02*
X135606857Y-79761621D01*
X137346857Y-79761621D02*
X137346857Y-73441621D01*
X151832357Y-84832879D02*
X151832357Y-84358363D01*
X152877357Y-84832879D02*
X152877357Y-84358363D01*
X167707357Y-80548363D02*
X167707357Y-81022879D01*
X168752357Y-80548363D02*
X168752357Y-81022879D01*
X167707357Y-73944363D02*
X167707357Y-74418879D01*
X168752357Y-73944363D02*
X168752357Y-74418879D01*
M02*
